<svg width="22" height="26" viewBox="0 0 22 26" fill="none" xmlns="http://www.w3.org/2000/svg">
<path d="M14.6771 4.48724C15.1496 3.94262 15.5099 3.31003 15.7373 2.62578C15.9646 1.94153 16.0546 1.21911 16.002 0.5C14.5513 0.617101 13.2047 1.29939 12.2522 2.39987C11.7961 2.92731 11.4505 3.5409 11.2358 4.20431C11.0211 4.86772 10.9417 5.56747 11.0023 6.26212C11.71 6.26801 12.4095 6.111 13.0467 5.80322C13.6839 5.49544 14.2418 5.04517 14.6771 4.48724ZM17.8269 13.7866C17.8353 12.8289 18.0875 11.889 18.5599 11.0558C19.0323 10.2226 19.7092 9.52347 20.5267 9.02443C20.0108 8.28103 19.3287 7.66807 18.5346 7.23415C17.7406 6.80023 16.8563 6.55729 15.952 6.5246C14.0021 6.32461 12.2022 7.66202 11.1648 7.66202C10.1274 7.66202 8.66498 6.5496 7.04009 6.5746C5.97782 6.60959 4.94275 6.9193 4.03585 7.47352C3.12894 8.02774 2.38116 8.80755 1.86543 9.73689C-0.334421 13.5616 1.30297 19.2488 3.50282 22.336C4.50276 23.8484 5.75267 25.5608 7.40257 25.4983C9.05245 25.4358 9.58992 24.4734 11.5023 24.4734C13.4147 24.4734 14.0021 25.4983 15.627 25.4608C17.2519 25.4233 18.4018 23.9109 19.4518 22.3985C20.1955 21.3005 20.7765 20.1007 21.1766 18.8363C20.1861 18.4138 19.3409 17.7105 18.7456 16.8131C18.1503 15.9156 17.8309 14.8635 17.8269 13.7866Z" fill="black"/>
</svg>
