<svg width="200" height="200" viewBox="0 0 200 200" fill="none" xmlns="http://www.w3.org/2000/svg">
<path d="M54.8883 181.487C75.1134 192.953 100.309 196.184 122.542 189.109C138.227 184.118 152.146 173.921 161.475 160.633C171.089 146.941 174.793 130.107 180.13 114.617C182.876 106.646 184.649 98.0086 184.692 89.5736C184.731 81.9259 182.315 73.7444 179.857 66.5352C177.404 59.3385 174.118 53.1586 169.987 46.8197C161.73 34.1481 154.592 19.4682 140.893 12.6471C137.817 11.1157 134.5 10.0483 131.095 9.49437C118.812 7.49646 106.346 12.2614 95.8522 18.8102C85.3586 25.359 76.1393 33.7214 65.5801 40.1688C56.6455 45.6241 47.5835 50.279 39.1623 56.3923C33.0039 60.863 24.1325 64.776 19.1748 70.5387C6.46875 85.3093 3.44602 103.427 6.46875 122.46C8.94156 138.031 22.3379 152.514 32.9222 163.978C39.2763 170.861 46.6777 176.832 54.8883 181.487Z" fill="#FAE3E9"/>
<path d="M17.8057 86.4629C17.8057 86.4629 -3.52135 135.506 12.3734 145.536C23.7103 152.689 37.6454 144.843 42.1328 141.613C46.6204 138.382 52.7612 134.69 56.3039 133.306C59.8466 131.921 56.3042 91.0811 56.3039 91.078C56.3071 91.1152 55.1447 91.5971 55.0743 91.6326C53.8561 92.2461 52.6945 92.9678 51.5717 93.7339C49.6668 95.0336 47.8697 96.4822 46.1538 98.0112C45.0437 99.0004 43.965 100.025 42.9392 101.094C42.0219 102.049 41.1656 102.914 40.5048 104.08C40.0297 104.918 39.6379 105.799 39.2676 106.685C39.2381 106.756 39.2062 106.83 39.1445 106.877C39.0636 106.938 38.9524 106.938 38.8499 106.941C37.7199 106.978 36.6378 107.908 36.3443 108.966C36.5963 107.445 36.819 105.918 37.0557 104.394C37.5333 101.321 38.0109 98.2481 38.4885 95.175C38.8677 92.7353 39.2468 90.2955 39.626 87.8558C39.6742 87.5454 39.7224 87.2349 39.7707 86.9244L17.8057 86.4629Z" fill="#7399C6"/>
<path d="M24.9211 71.1035C24.9211 71.1035 20.7351 71.0882 20.1054 73.1915C19.4757 75.2948 20.0897 77.2812 18.1763 79.0963C16.2628 80.9114 13.8393 86.0451 20.9917 90.6873C24.4409 92.9261 28.8405 93.6863 32.922 93.4374C35.9175 93.2547 39.9962 92.5368 41.7903 89.8767C42.3855 88.9943 42.5173 88.0953 42.2625 87.0676C42.0687 86.2856 41.7694 85.4999 41.8633 84.7004C42.0103 83.4496 43.0666 82.5006 43.5589 81.3372C43.8352 80.6842 43.9291 79.9712 43.9628 79.2654C44.0018 78.4506 43.9592 77.6107 43.6272 76.8624C42.1012 73.4238 37.134 73.1071 33.9293 72.4012C30.9749 71.7506 27.9383 71.3515 24.9211 71.1035Z" fill="white"/>
<path d="M38.2773 77.3037L37.4657 80.0722C37.4657 80.0722 39.668 80.0831 39.9304 78.9671C40.1928 77.8513 38.2773 77.3037 38.2773 77.3037Z" fill="#1A1A1A"/>
<path d="M24.2013 74.2614C24.2013 74.2614 25.166 72.7156 25.478 68.321C25.7899 63.9264 24.9239 58.915 27.2935 56.5097C29.6629 54.1043 31.983 54.9776 31.983 54.9776C31.983 54.9776 34.246 51.4909 37.3748 53.0157C37.3748 53.0157 40.4112 49.8201 42.9441 52.8559C42.9441 52.8559 43.9444 51.6706 45.8955 52.5785C47.8466 53.4864 50.5216 57.964 50.699 59.7661C50.8765 61.5683 50.2452 62.719 50.2452 62.719C50.2452 62.719 51.7564 62.9407 52.7922 62.1158C53.828 61.2909 59.4822 58.213 63.0155 60.0634C66.5487 61.9139 64.9526 64.6104 63.1435 65.1442C61.3344 65.678 54.8605 66.1047 52.4201 67.7892C49.9797 69.4737 44.1694 74.749 40.1468 75.4908C40.1468 75.4908 38.2527 78.9428 38.3592 80.0241C38.3592 80.0241 35.7806 80.2871 32.5523 79.6606C29.1997 79.0099 25.1755 77.4128 24.2013 74.2614Z" fill="#E7926B"/>
<path d="M49.516 62.944C49.0859 64.6788 47.4793 66.3785 45.566 66.1788C44.6307 66.0811 44.1428 66.1074 43.3718 66.7082C42.988 67.0072 42.7145 67.4296 42.2717 67.6611C40.903 68.3769 40.9337 67.8779 39.8504 67.4253C38.6554 66.9261 38.2512 67.7378 37.0244 67.5508C35.4996 67.3183 36.2451 66.6229 35.3378 66.2784C35.0209 66.1581 34.8502 66.1846 34.5161 66.126C33.4854 65.9453 32.68 66.1135 32.2062 64.975C31.9991 64.4775 31.8648 63.9549 31.6555 63.4568C31.3454 62.7188 30.7407 61.1687 29.9785 60.7433C29.3141 60.3724 28.4332 61.0028 28.1213 60.01C27.9332 59.4111 26.8897 59.6372 27.0095 60.2648C27.2177 61.3571 27.5698 61.9721 28.7158 62.1545C28.9018 62.1842 29.1486 61.9311 29.2996 61.9612C29.4674 61.9947 30.1091 63.407 30.0969 63.3808C30.4843 64.2061 30.6676 65.1135 31.074 65.9273C31.3775 66.5352 31.7433 66.9525 32.2038 67.2335C31.7087 67.3414 31.2176 67.4731 30.7307 67.6301C29.94 67.8853 30.4017 69.0529 31.1917 68.809C32.4966 68.4062 33.8241 68.2333 35.1847 68.1974C35.2929 68.2694 35.4076 68.3485 35.5441 68.4432C36.0828 68.8174 36.7418 69.0055 37.4017 68.982C38.1832 68.9542 38.5967 68.5709 39.3887 68.8869C40.0296 69.1426 40.4047 69.433 41.1579 69.4342C42.8994 69.4369 43.6899 67.7612 45.3127 67.5948C45.9579 67.5287 46.5174 67.7476 47.195 67.538C47.8337 67.3404 48.4011 66.9212 48.8891 66.4888C49.8976 65.5954 50.6863 64.5408 50.6495 63.0448C50.6327 62.3564 49.6864 62.2572 49.516 62.944Z" fill="#DC815C"/>
<path d="M39.4609 119.396C39.4103 117.662 39.2168 115.913 38.7866 114.227C38.4593 112.945 37.9481 111.684 37.6313 110.39C37.6348 110.362 37.6377 110.333 37.6413 110.305C37.674 110.041 37.6056 109.839 37.4823 109.69C37.4347 109.425 37.3967 109.159 37.374 108.889C37.3034 108.054 35.9805 108.033 36.0233 108.889C36.0356 109.138 36.0583 109.382 36.0853 109.625C35.8804 109.777 35.7264 110.003 35.6853 110.305C34.9049 116.038 34.3685 121.783 33.8414 127.542C33.5906 130.281 33.1224 132.964 31.9479 135.483C30.8286 137.884 29.0144 139.957 27.994 142.378C27.6125 143.284 28.9759 143.918 29.6054 143.295C31.4677 141.451 32.869 138.732 33.9434 136.385C35.117 133.821 35.678 131.168 35.9356 128.381C36.3646 123.739 36.7035 119.098 37.1761 114.464C37.5347 116.013 37.7297 117.588 37.7717 119.179C37.8688 122.862 37.1905 126.46 36.7642 130.103C36.6597 130.995 38.196 131.198 38.3735 130.316C39.0909 126.749 39.5672 123.035 39.4609 119.396Z" fill="#376B8D"/>
<path d="M173.235 64.9043C173.235 64.9043 209.435 104.761 197.636 119.213C189.22 129.521 173.453 126.418 168.147 124.752C162.84 123.085 153.407 121.286 149.598 121.076C145.788 120.865 138.245 81.258 138.244 81.2549C138.253 81.2913 139.512 81.3865 139.59 81.3981C140.945 81.6008 142.281 81.9236 143.595 82.3006C145.824 82.9401 148 83.7543 150.125 84.6699C151.5 85.2623 152.856 85.8984 154.177 86.5919C155.358 87.2121 156.452 87.7659 157.458 88.6656C158.181 89.3126 158.84 90.0255 159.48 90.7505C159.531 90.8082 159.585 90.8684 159.659 90.8936C159.756 90.9266 159.861 90.8919 159.959 90.8633C161.042 90.5465 162.371 91.0914 162.994 92.0033C162.259 90.6397 161.551 89.2616 160.83 87.8909C159.375 85.1262 157.921 82.3616 156.467 79.5968C155.312 77.402 154.158 75.2072 153.003 73.0124C152.857 72.7331 152.71 72.4539 152.563 72.1746L173.235 64.9043Z" fill="#7399C6"/>
<path d="M161.484 52.5577C161.484 52.5577 165.448 51.2411 166.73 53.0391C168.012 54.837 168.078 56.9111 170.483 58.0365C172.888 59.162 176.859 63.2745 171.592 69.9001C169.051 73.0953 165.129 75.1846 161.178 76.2183C158.279 76.9769 154.179 77.5653 151.611 75.6016C150.759 74.9502 150.342 74.139 150.248 73.0856C150.177 72.2839 150.205 71.4461 149.855 70.7175C149.308 69.5775 147.998 69.0065 147.152 68.0567C146.677 67.5237 146.356 66.877 146.094 66.2184C145.791 65.4581 145.558 64.6487 145.629 63.8359C145.955 60.1016 150.56 58.2563 153.368 56.5902C155.956 55.0543 158.705 53.7314 161.484 52.5577Z" fill="white"/>
<path d="M150.844 62.5898L152.515 64.9619C152.515 64.9619 150.431 65.6572 149.819 64.681C149.206 63.7046 150.844 62.5898 150.844 62.5898Z" fill="#1A1A1A"/>
<path d="M163.196 55.3276C163.196 55.3276 161.777 54.1624 160.049 50.0935C158.322 46.0246 157.509 41.0047 154.479 39.4617C151.449 37.9186 149.535 39.468 149.535 39.468C149.535 39.468 146.253 36.8668 143.784 39.2855C143.784 39.2855 139.864 37.2007 138.452 40.8665C138.452 40.8665 137.118 40.054 135.564 41.5215C134.01 42.9891 132.934 48.0657 133.353 49.8294C133.772 51.593 134.746 52.4874 134.746 52.4874C134.746 52.4874 133.385 53.1676 132.134 52.7079C130.884 52.2481 124.521 51.0893 121.774 53.9426C119.028 56.7959 121.42 58.8554 123.309 58.7987C125.198 58.742 131.474 57.1326 134.336 57.9703C137.199 58.8079 144.426 62.0012 148.481 61.4532C148.481 61.4532 151.401 64.1364 151.653 65.1946C151.653 65.1946 154.183 64.6418 157.039 63.0435C160.005 61.3839 163.299 58.618 163.196 55.3276Z" fill="#E7926B"/>
<path d="M135.51 52.4738C136.483 53.9846 138.56 55.096 140.309 54.3115C141.163 53.9279 141.634 53.8011 142.561 54.1307C143.022 54.2948 143.419 54.6101 143.914 54.6919C145.445 54.9447 145.254 54.4811 146.133 53.7153C147.103 52.8702 147.751 53.514 148.853 52.9551C150.223 52.2603 149.289 51.8331 150.037 51.2243C150.298 51.0116 150.469 50.9836 150.766 50.8242C151.684 50.3323 152.503 50.2413 152.581 49.0146C152.615 48.4785 152.572 47.9413 152.608 47.4041C152.662 46.6081 152.73 44.9504 153.313 44.3102C153.822 43.7519 154.863 44.0755 154.835 43.0372C154.818 42.411 155.881 42.3007 155.972 42.933C156.131 44.0332 155.997 44.7257 154.97 45.2551C154.804 45.3411 154.487 45.1781 154.354 45.2536C154.206 45.3375 154.058 46.876 154.061 46.8472C153.962 47.75 154.084 48.6674 153.964 49.5652C153.875 50.2359 153.664 50.7452 153.319 51.1548C153.823 51.1031 154.332 51.0752 154.845 51.0726C155.677 51.0686 155.62 52.3189 154.792 52.3336C153.424 52.3576 152.109 52.6066 150.807 52.9959C150.728 53.0979 150.645 53.2085 150.547 53.3408C150.158 53.8631 149.595 54.2464 148.961 54.4294C148.212 54.6461 147.695 54.4114 147.047 54.9572C146.523 55.399 146.262 55.791 145.548 56.0265C143.898 56.5708 142.602 55.2283 141.01 55.5752C140.377 55.7133 139.918 56.0948 139.207 56.1069C138.537 56.1183 137.863 55.8973 137.259 55.6393C136.012 55.1062 134.921 54.3517 134.468 52.9222C134.26 52.2641 135.125 51.8758 135.51 52.4738Z" fill="#DC815C"/>
<path d="M163.439 102.861C162.922 101.201 162.536 99.4829 162.394 97.7508C162.286 96.4335 162.36 95.079 162.239 93.7536C162.226 93.7279 162.214 93.702 162.202 93.6763C162.085 93.4363 162.084 93.2233 162.152 93.0442C162.111 92.7781 162.06 92.5135 161.994 92.2513C161.788 91.4374 163.035 91.0057 163.274 91.8312C163.343 92.0702 163.401 92.3089 163.455 92.5475C163.698 92.6277 163.919 92.7949 164.056 93.0679C166.664 98.2596 169.045 103.539 171.421 108.834C172.552 111.353 173.87 113.75 175.804 115.773C177.648 117.701 180.043 119.102 181.799 121.08C182.456 121.819 181.37 122.845 180.571 122.45C178.204 121.281 175.99 119.14 174.206 117.249C172.258 115.183 170.862 112.843 169.709 110.281C167.79 106.014 165.956 101.72 163.998 97.4745C164.163 99.0539 164.491 100.607 164.97 102.129C166.078 105.65 167.894 108.851 169.485 112.171C169.875 112.984 168.485 113.654 168.029 112.873C166.186 109.716 164.525 106.343 163.439 102.861Z" fill="#376B8D"/>
<path d="M59.3466 183.84C78.7387 193.364 101.915 195.673 122.542 189.108C130.747 186.498 138.469 182.454 145.303 177.296L141.112 152.569L63.7954 168.888C63.6468 169.469 61.3628 177.111 59.3466 183.84Z" fill="#333333"/>
<path d="M76.1877 178.626C76.1877 178.626 83.4614 184.417 98.0089 182.574C112.556 180.732 124.41 176.784 133.569 173.889C142.729 170.994 141.921 130.461 141.921 130.461L136.802 92.0337L116.205 82.3027H81.6027L71.0692 92.8233L76.1877 178.626Z" fill="#A7644C"/>
<path d="M92.8904 99.6666C91.8128 98.6138 84.539 95.7186 82.3838 91.5074C80.2287 87.2962 78.0735 83.085 78.0735 83.085C78.0735 83.085 74.5714 83.6114 73.2244 85.4538C73.2244 85.4538 69.9917 84.9274 65.6813 87.2962C61.3709 89.6651 56.5217 90.1914 53.5584 92.5602C52.326 93.5453 50.5802 94.8958 48.6132 96.5336C47.8649 102.741 47.8733 109.018 48.5353 115.246C49.1495 121.024 50.5249 126.622 51.8997 132.237C53.6505 131.417 55.023 130.976 55.4441 131.251C56.2523 131.777 56.7911 155.202 57.0605 157.834C57.3299 160.466 51.4032 181.258 51.6726 183.89C51.942 186.523 77.2653 200.998 78.6123 199.946C79.9593 198.893 81.5756 177.047 84.539 166.783C87.5023 156.518 89.927 144.411 90.7352 133.356C91.5434 122.302 92.3516 106.51 92.8903 104.141C93.4292 101.772 93.968 100.719 92.8904 99.6666Z" fill="#7399C6"/>
<path d="M54.7437 113.38C54.2062 116.284 53.8255 119.275 53.8462 122.221C53.8677 125.301 54.0813 129.922 54.9288 132.939C55.0587 133.401 55.3939 133.965 55.8686 133.844C56.2966 133.735 56.3641 133.177 56.3431 132.746C56.2044 129.9 55.6527 125.488 55.6968 122.645C55.72 121.142 55.7794 119.639 55.8861 118.139C55.9873 116.714 56.3349 115.229 56.3349 113.808C56.4736 112.808 54.9358 112.342 54.7437 113.38Z" fill="#376B8D"/>
<path opacity="0.5" d="M52.8702 92.9976C51.2876 95.26 51.0802 98.2759 51.0771 100.936C51.0734 104.116 51.45 107.42 52.1369 110.53C52.2261 110.935 52.922 110.853 52.8851 110.432C52.4172 105.081 50.5689 98.3855 53.7243 93.4855C54.0667 92.9538 53.2258 92.4893 52.8702 92.9976ZM85.1011 122.097C84.9501 121.805 84.5742 121.695 84.2378 121.757C76.9614 122.624 69.6312 122.058 62.5821 120.094C61.3867 119.761 60.9945 121.585 62.1682 121.926C68.8085 123.852 75.7457 124.528 82.6352 123.948C82.1025 125.701 81.2251 126.976 79.4943 127.897C77.8235 128.786 75.829 129.185 73.9437 129.305C70.2468 129.54 66.5614 128.605 63.4363 126.67C62.5464 126.119 61.7578 127.473 62.6168 128.04C66.3198 130.483 70.8418 131.545 75.2785 130.989C78.0497 130.642 81.8254 129.369 83.5346 126.892C83.5099 127.708 83.4792 128.524 83.4371 129.34C83.3341 131.333 83.4928 133.656 82.3013 135.373C81.1851 136.982 79.4597 138.3 77.9444 139.528C76.2763 140.88 74.5117 142.171 72.6504 143.26C71.5888 143.881 70.7967 143.986 69.7111 143.335C68.9557 142.883 68.2893 142.275 67.6356 141.697C66.0479 140.294 64.5311 138.757 63.2298 137.092C61.7269 135.169 61.2941 133.251 61.2996 130.866C61.305 128.533 61.436 126.206 61.5021 123.874C61.5346 122.725 59.7629 122.525 59.6659 123.691C59.4675 126.079 59.4346 128.495 59.435 130.89C59.4355 133.039 59.673 135.029 60.8354 136.9C61.8485 138.53 63.1967 139.97 64.5595 141.326C65.7983 142.56 67.1238 143.898 68.6272 144.824C69.9919 145.665 71.5003 145.944 72.9704 145.184C74.6807 144.299 76.2933 143.116 77.8203 141.963C79.3655 140.796 80.8535 139.544 82.2295 138.188C83.4135 137.022 84.4376 135.766 84.8088 134.129C85.225 132.294 85.1691 130.3 85.2147 128.429C85.2574 126.676 85.2545 124.926 85.1972 123.174C85.3517 122.821 85.3164 122.393 85.1011 122.097Z" fill="#376B8D"/>
<path d="M148.925 148.885C148.656 146.779 150.003 142.831 148.925 139.41C147.847 135.988 148.656 121.249 150.003 120.196C150.597 119.732 153.076 119.165 156.009 118.745C156.782 114.399 157.342 110.019 157.602 105.607C157.958 99.547 157.716 94.309 156.92 88.309C151.723 84.8477 145.9 82.6508 139.914 81.3864C129.947 79.2807 114.712 78.3473 112.018 77.0312L112.556 87.5593L107.977 98.6136C107.977 98.6136 104.744 104.404 105.013 111.774C105.283 119.143 109.593 130.987 113.365 140.989C117.136 150.99 133.3 191.786 136.802 192.839C140.304 193.892 154.313 175.994 154.044 172.836C153.774 169.677 149.194 150.99 148.925 148.885Z" fill="#7399C6"/>
<path d="M148.678 125.008C148.584 126.143 150.372 126.434 150.483 125.285C150.8 121.974 151.748 117.998 153.304 115.042C153.864 113.978 152.17 114.084 151.602 115.129C149.929 118.198 148.965 121.544 148.678 125.008Z" fill="#FDDDC8"/>
<path opacity="0.5" d="M141.523 125.377C141.106 122.96 140.651 120.527 140.035 118.15C139.734 116.989 137.98 117.486 138.214 118.641C138.687 120.983 139.225 123.309 139.637 125.663C140.059 128.069 139.957 130.077 138.775 132.268C137.752 134.165 136.489 135.968 135.132 137.649C134.573 138.341 134.006 139.065 133.323 139.648C132.341 140.485 131.523 140.511 130.343 140.061C128.275 139.272 126.269 138.263 124.35 137.176C122.606 136.188 120.635 135.145 119.228 133.708C117.726 132.173 117.481 129.802 117.03 127.808C116.759 126.61 116.511 125.408 116.274 124.204C118.532 126.684 122.9 126.839 126.148 126.673C130.561 126.448 135.42 125.127 137.692 121.078C138.195 120.183 136.879 119.452 136.303 120.285C134.125 123.436 130.313 124.573 126.597 124.792C123.567 124.971 118.882 125.183 117.194 122.211C124.145 121.622 130.925 119.792 137.201 116.785C138.327 116.246 137.613 114.47 136.464 115.005C129.693 118.161 122.394 119.952 114.899 120.288C114.549 120.282 114.189 120.455 114.087 120.776C113.921 121.11 113.96 121.547 114.178 121.879C114.426 123.656 114.728 125.423 115.077 127.185C115.449 129.066 115.74 131.087 116.48 132.87C117.14 134.46 118.393 135.558 119.791 136.537C121.416 137.676 123.136 138.693 124.899 139.613C126.642 140.522 128.475 141.448 130.356 142.056C131.972 142.578 133.446 142.045 134.676 140.97C136.032 139.785 137.136 138.214 138.172 136.763C139.31 135.167 140.42 133.49 141.158 131.675C142.005 129.594 141.897 127.546 141.523 125.377ZM153.113 93.4588C152.806 90.2206 152.025 86.9785 149.818 84.4531C149.426 84.0039 148.789 84.6481 149.16 85.0957C151.447 87.854 152.045 91.4016 152.27 94.848C152.52 98.6794 152.294 102.512 152.131 106.341C152.109 106.859 152.905 106.847 152.947 106.341C153.308 102.068 153.52 97.7372 153.113 93.4588Z" fill="#376B8D"/>
<path d="M114.309 73.2017C113.545 72.6986 112.735 72.2693 111.87 71.9453C110.795 71.5428 107.946 71.1261 106.848 71.4638C105.433 71.8991 106.031 73.5861 107.059 74.7579C107.787 75.5892 108.766 76.2889 109.593 77.031C109.593 77.031 110.94 81.7685 110.811 84.9149C110.696 87.7161 109.922 90.475 108.999 93.1138C107.979 96.0311 105.918 98.7233 107.789 101.761C108.716 103.268 110.214 104.357 111.766 105.248C113.219 106.082 114.784 106.787 116.453 107.011C118.123 107.236 119.918 106.934 121.248 105.923C124.128 103.736 125.313 99.6623 125.899 96.2762C127.155 89.0121 123.35 82.1918 118.503 76.9348C117.237 75.5624 115.868 74.2285 114.309 73.2017ZM85.6567 78.1408C85.6567 78.1408 81.037 79.663 81.8452 86.5062C82.2965 90.3272 84.7447 93.4675 87.787 95.7567C89.9105 97.3546 94.8259 99.0233 93.27 102.508C93.0304 103.045 92.6463 103.508 92.2366 103.935C90.4587 105.79 88.1124 107.091 85.605 107.765C83.0977 108.439 80.4354 108.498 77.8721 108.07C75.7725 107.719 73.5481 106.949 72.1978 105.25C70.7048 103.373 69.8175 101.443 69.3476 99.0985C68.3357 94.0502 68.7891 88.6421 71.1618 84.0499C73.5344 79.4575 77.9315 75.7827 83.0846 74.7266C84.523 74.4318 86.025 74.3389 87.4592 74.6519C87.1316 75.9217 86.3247 77.0012 85.6567 78.1408Z" fill="white"/>
<path d="M106.899 74.1357C106.899 74.1357 108.516 73.8725 109.593 74.9253C110.671 75.9781 110.811 80.0977 110.811 80.0977L106.899 80.9789L106.899 74.1357ZM81.8451 85.7164C81.8451 85.7164 86.1554 83.6108 86.6942 80.4525C87.233 77.2941 85.2054 78.2896 85.2054 78.2896C85.2054 78.2896 80.4982 79.1365 81.8451 85.7164Z" fill="#1A1A1A"/>
<path d="M106.63 69.6615C106.63 70.1879 107.169 75.4519 108.246 76.7679C109.324 78.0839 110.671 78.3471 110.671 78.3471C110.671 78.3471 111.21 83.6111 110.671 85.7167C110.132 87.8222 102.822 98.4751 98.8816 98.4751C95.2813 98.4751 83.731 90.1911 82.6534 85.1903C82.6534 85.1903 86.425 83.8743 84.5392 75.1887C82.6533 66.5031 106.63 69.6615 106.63 69.6615Z" fill="#E7926B"/>
<path d="M106.495 72.4258L84.4373 74.3052C84.441 74.5859 84.4718 74.8792 84.5391 75.1894C84.9613 77.1345 85.0986 78.7077 85.0594 79.9815C85.9024 81.9923 88.4814 85.7086 95.9885 85.3225C106.226 84.7961 106.495 72.4258 106.495 72.4258Z" fill="#4A3333"/>
<path d="M110.077 47.9251C110.149 48.8648 110.234 49.6885 110.338 50.3118C110.437 50.8966 110.512 51.4807 110.583 52.0655C110.978 55.4085 111.276 58.9467 110.911 62.3061C110.757 63.738 110.185 65.2763 109.783 66.6778C108.748 70.2937 107.242 73.9674 104.709 76.8677C103.463 78.2905 102.008 78.9532 100.208 79.5617C96.9166 80.6721 92.6185 81.3696 89.3019 80.0553C86.6724 79.0125 84.4071 77.3589 82.2265 75.6479C80.0253 73.9227 78.1332 71.8192 76.6778 69.4571C75.8703 68.1486 75.4907 66.6093 75.0361 65.1566C74.3822 63.052 73.8266 60.9184 73.3315 58.7707C73.0501 57.5489 72.6903 56.2607 72.313 54.949C71.4417 51.8972 70.474 48.6987 70.1083 45.7982C71.8268 43.0986 74.0735 41.647 76.1307 40.2434C77.0525 39.6135 77.9357 38.9942 78.7179 38.2814C79.7921 37.3026 81.551 37.5162 82.4355 36.3706C83.3464 35.1944 86.5675 32.4645 87.7282 32.3487C88.6725 32.2545 89.486 32.9306 90.3257 33.3616C92.1721 34.3108 94.411 34.1231 96.4454 33.6523C97.4302 33.4244 98.4319 33.1368 99.4311 33.2616C101.105 33.4756 102.372 34.7676 103.669 35.8135C104.296 36.3178 104.965 35.3033 105.659 35.7183C106.252 36.0747 107.676 36.5875 108.13 37.0758C108.529 37.5029 108.838 37.5234 109.041 37.7978C109.116 37.8955 109.173 38.0222 109.219 38.2165C109.695 40.3016 109.831 44.7511 110.077 47.9251Z" fill="#E7926B"/>
<path d="M77.4855 40.6466C77.3943 40.8152 77.2854 40.971 77.23 41.0549C76.7604 41.7668 76.0708 42.3488 75.7759 43.1641C75.5428 43.8086 75.587 44.5487 75.2219 45.1318C74.9292 45.5994 74.3989 45.9168 74.2074 46.4322C73.9091 47.2344 74.5546 48.0643 74.6427 48.9134C74.7658 50.1005 73.7869 51.206 73.9329 52.3905C74.0034 52.9608 74.3277 53.4665 74.5274 54.0069C74.9072 55.0348 74.8282 56.1635 74.7334 57.2523C74.7106 57.514 74.6805 57.7927 74.5124 57.9977C73.5526 59.168 72.4585 55.3631 72.3131 54.9488C71.4418 51.8969 70.4741 48.6984 70.1084 45.7979C71.827 43.0983 74.0737 41.6467 76.1309 40.2431C76.3814 40.1852 77.3523 39.8049 77.5774 40.0304C77.704 40.1573 77.6114 40.4143 77.4855 40.6466ZM110.077 47.9248C110.102 48.6347 110.033 49.3488 109.898 50.0462C109.832 50.3889 109.758 51.6455 109.158 51.2007C108.503 50.7158 108.277 49.856 108.218 49.0557C108.16 48.2555 108.222 47.4319 107.965 46.6699C107.771 46.0931 107.397 45.5642 107.35 44.9587C107.31 44.4466 107.511 43.9244 107.389 43.425C107.169 42.5266 106.029 42.0983 105.729 41.2224C105.563 40.7357 105.688 40.1929 105.548 39.6984C105.397 39.164 104.96 38.7597 104.542 38.3844C104.137 38.0199 103.71 37.644 103.18 37.4975C103.02 37.4532 102.036 37.3102 102.169 36.9846C102.234 36.8263 102.93 37.0203 103.051 37.0379C103.938 37.1669 104.83 37.2639 105.719 37.3765C106.502 37.4758 107.285 37.5751 108.068 37.6743C108.202 37.6913 108.955 37.6858 109.041 37.7976C109.116 37.8952 109.173 38.022 109.219 38.2163C109.695 40.3013 109.831 44.7508 110.077 47.9248Z" fill="#6C4E4E"/>
<path d="M72.9608 55.0314C72.9608 55.0314 68.2843 53.5835 67.7848 57.3493C67.1906 61.8284 71.976 68.9524 75.8816 67.7156C79.2472 66.6499 72.9608 55.0314 72.9608 55.0314Z" fill="#E7926B"/>
<path d="M103.027 51.5814C102.306 50.8793 101.121 50.9131 100.457 51.6749C100.399 51.7426 100.349 51.8167 100.304 51.8942C100.147 52.1413 100.082 52.4369 100.138 52.7419C100.144 52.7777 100.151 52.8126 100.16 52.8478C100.163 52.8585 100.163 52.8691 100.166 52.8801C100.328 53.4014 100.506 53.9281 100.901 54.3307C101.663 55.107 102.905 54.7828 103.42 53.9138C103.868 53.1581 103.643 52.181 103.027 51.5814ZM83.114 54.772C82.3927 54.0698 81.2079 54.1036 80.5446 54.8655C80.4858 54.933 80.4358 55.0073 80.3915 55.0847C80.2342 55.3318 80.1687 55.6275 80.2255 55.9324C80.2307 55.9682 80.2382 56.0032 80.2468 56.0382C80.2499 56.0489 80.2499 56.0596 80.2532 56.0705C80.4156 56.5918 80.5934 57.1185 80.9886 57.5211C81.7505 58.2973 82.9924 57.9732 83.5073 57.1042C83.9547 56.3486 83.7299 55.3715 83.114 54.772Z" fill="#1A1A1A"/>
<path d="M94.9968 60.91C94.8493 60.4352 94.3064 60.1456 93.8181 60.2957C93.3374 60.4432 92.8568 60.591 92.3763 60.7385C91.8898 60.8881 91.5984 61.4101 91.7475 61.8902C91.8949 62.3651 92.4379 62.6547 92.9263 62.5045C93.4068 62.357 93.8874 62.2095 94.3681 62.0617C94.8545 61.9124 95.1457 61.3901 94.9968 60.91Z" fill="#DC815C"/>
<path d="M84.0729 43.213C82.9789 43.836 81.7941 44.2418 80.7347 44.9389C79.6595 45.6462 78.6774 46.5194 77.6313 47.2773C76.6876 47.9609 78.2147 50.1608 79.1665 49.4714C80.2121 48.7142 81.1926 47.8351 82.2698 47.1328C83.3318 46.4408 84.5141 46.03 85.6081 45.4069C86.6153 44.8337 85.0808 42.639 84.0729 43.213ZM96.6624 47.6268C96.2999 47.491 96.0421 47.1277 96.0306 46.6648C96.0146 46.0233 96.4777 45.435 97.0653 45.3511C97.2048 45.3311 100.506 44.8658 103.597 46.1687C104.127 46.3895 104.348 47.0621 104.091 47.6703C103.835 48.2788 103.198 48.6136 102.668 48.371C100.04 47.2816 97.153 47.671 97.1244 47.6744C96.96 47.6984 96.8032 47.6795 96.6624 47.6268Z" fill="#4A3333"/>
<path d="M73.1224 58.5796C72.5257 58.6752 72.2226 60.5197 72.3205 61.1027C72.4184 61.6857 74.5021 63.1477 74.5021 63.1477C74.5021 63.1477 73.7192 58.4839 73.1224 58.5796Z" fill="#DC815C"/>
<path d="M108.93 48.6077C108.93 48.6077 112.842 45.9194 114.904 49.3613C116.965 52.8033 114.138 61.586 110.378 62.1885C106.711 62.7761 108.93 48.6077 108.93 48.6077Z" fill="#E7926B"/>
<path d="M109.937 52.6807C110.533 52.5851 111.424 54.2385 111.522 54.8214C111.619 55.4044 110.123 57.4401 110.123 57.4401C110.123 57.4401 109.34 52.7763 109.937 52.6807Z" fill="#DC815C"/>
<path d="M112.437 32.2211C111.648 30.1557 109.854 30.0046 109.854 30.0046C109.854 30.0046 111.72 27.9522 110.644 26.8094C109.568 25.6666 107.344 25.5847 107.344 25.5847C107.344 25.5847 109.21 23.5322 107.201 22.1005C105.192 20.6688 104.044 21.7296 104.044 21.7296C104.044 21.7296 101.39 16.4559 98.0175 17.4346C94.6449 18.4134 93.3528 21.2507 93.3528 21.2507L92.0612 21.4576C92.0612 21.4576 91.5596 18.4693 89.4068 18.8143C87.2541 19.1593 87.5408 20.8668 85.7469 20.7158C83.9531 20.5649 81.5854 19.6291 80.7954 22.8243C80.7954 22.8243 74.0501 24.7818 73.0445 29.3268C73.0445 29.3268 70.6768 28.391 69.2412 30.3746C68.5091 31.3862 68.0602 32.7849 68.5229 33.9957C68.5481 34.0615 67.7962 34.6849 67.7179 34.8071C67.5297 35.1007 67.4055 35.5037 67.3385 35.8454C67.1617 36.7462 67.3917 37.7056 68.0362 38.3881C68.1508 38.5095 68.2774 38.6225 68.3664 38.7629C68.635 39.1866 70.1842 46.4238 70.2273 46.4049C70.7234 46.1867 71.3172 44.7763 71.6581 44.3612C71.8021 44.1858 71.9524 44.0052 72.1573 43.9026C72.309 43.8265 72.4806 43.7985 72.6408 43.7414C73.577 43.4077 73.8825 42.2197 74.7243 41.6985C75.4421 41.2541 76.4183 41.115 77.2115 40.8059C80.1556 39.6586 83.0207 38.2561 85.9131 36.9881C87.8886 36.1221 90.033 35.236 92.1515 35.6737C92.5338 35.7526 92.9071 35.8742 93.2939 35.9287C93.8155 36.0023 94.3551 35.9505 94.8522 35.7793C95.1125 35.6895 95.3624 35.5674 95.6317 35.5083C96.9555 35.2178 98 36.2544 99.1495 36.6549C99.9164 36.922 100.655 36.9336 101.436 37.0046C102.192 37.0732 102.846 37.6226 103.624 37.5689C103.883 37.551 104.132 37.4623 104.39 37.425C104.773 37.3698 105.172 37.432 105.519 37.6008C105.63 37.6552 105.74 37.7231 105.811 37.8234C105.881 37.9217 105.912 38.0481 106.005 38.1252C106.091 38.1955 106.21 38.2089 106.321 38.2195C106.736 38.2586 108.7 38.1219 108.806 38.7542C109.206 39.314 111.001 36.8345 110.355 35.6228C109.71 34.4116 113.226 34.2866 112.437 32.2211Z" fill="#4A3333"/>
<path d="M89.2685 68.1867C91.1543 70.0095 93.6676 71.2458 96.1899 70.0081C98.0866 69.0773 99.3573 67.48 100.008 65.5713C96.4172 66.3937 92.814 67.1546 89.2685 68.1867Z" fill="#FCFFFF"/>
<path d="M63.6296 157.32C61.4917 164.244 58.6533 170.816 55.5684 177.378C54.9863 178.617 56.805 179.712 57.4724 178.466C60.956 171.959 63.5745 164.907 65.7025 157.878C66.0958 156.579 64.0286 156.027 63.6296 157.32ZM150.904 168.387C150.11 166.884 148.936 165.588 147.999 164.166C147.058 162.735 146.203 161.248 145.443 159.718C143.902 156.618 142.768 153.344 142.019 149.978C141.733 148.693 139.743 149.24 140.008 150.519C140.733 154.017 141.881 157.406 143.446 160.632C144.22 162.229 145.094 163.779 146.063 165.271C147.027 166.755 148.031 168.374 149.44 169.49C150.244 170.127 151.412 169.349 150.904 168.387Z" fill="#376B8D"/>
<path d="M180.041 130.596C179.13 133.773 178.617 137.046 177.649 140.217C176.717 143.268 175.603 146.268 174.282 149.179C171.583 155.123 168.168 160.786 164.077 165.918C163.471 166.678 163.319 167.701 164.077 168.442C164.72 169.07 166.035 169.194 166.661 168.442C171.111 163.102 174.915 157.283 177.9 151.042C179.406 147.892 180.735 144.651 181.854 141.35C182.964 138.078 184.095 134.621 184.433 131.176C184.679 128.676 180.704 128.285 180.041 130.596ZM162.381 171.6C162.271 171.416 162.129 171.268 161.986 171.115C161.813 170.933 161.608 170.805 161.371 170.73C161.144 170.613 160.899 170.559 160.636 170.569C160.142 170.591 159.631 170.749 159.286 171.115C159.142 171.268 159 171.416 158.89 171.6C158.685 171.942 158.606 172.312 158.6 172.705C158.598 172.85 158.6 172.994 158.6 173.139C158.6 173.649 158.827 174.185 159.196 174.545C159.381 174.739 159.599 174.876 159.851 174.957C160.094 175.081 160.355 175.138 160.636 175.128C161.162 175.105 161.708 174.936 162.075 174.545C162.441 174.156 162.672 173.678 162.672 173.139C162.672 172.994 162.674 172.849 162.672 172.705C162.666 172.312 162.587 171.942 162.381 171.6ZM118.896 0.000370963C107.895 0.147913 96.8785 1.31773 87.003 6.03874C82.1246 8.37088 77.5526 11.2454 73.3082 14.5528C68.9733 17.9307 65.2408 21.8522 61.6093 25.9281C58.1215 29.8429 54.6036 33.9168 50.2249 36.9189C45.3459 40.2642 39.5771 41.8866 34.2211 44.3175C25.124 48.4463 17.3096 55.0142 11.383 62.8845C4.81065 71.6121 0.637727 82.1839 0.00297875 93.0283C-0.102355 94.8272 2.6196 94.7481 2.82065 93.0283C4.99624 74.4193 16.8291 57.2556 34.003 48.7817C39.0779 46.2776 44.6339 44.8289 49.6074 42.1139C54.3308 39.5354 58.2336 35.7996 61.8231 31.896C65.3719 28.0367 68.731 24.0152 72.6614 20.5098C76.4877 17.0973 80.7121 14.146 85.2198 11.6538C95.4209 6.01379 107.016 2.89047 118.741 2.7446C121.499 2.71015 121.662 -0.0366543 118.896 0.000370963Z" fill="#FAE3E9"/>
</svg>
