<svg width="25" height="24" viewBox="0 0 25 24" fill="none" xmlns="http://www.w3.org/2000/svg">
<g clip-path="url(#clip0_132_299)">
<path d="M24.8234 12C24.8234 5.37262 19.4507 0 12.8234 0C6.19599 0 0.823364 5.37253 0.823364 12C0.823364 17.9895 5.21161 22.954 10.9484 23.8542V15.4688H7.90149V12H10.9484V9.35625C10.9484 6.34875 12.7399 4.6875 15.4809 4.6875C16.7939 4.6875 18.1671 4.92188 18.1671 4.92188V7.875H16.654C15.1632 7.875 14.6984 8.80003 14.6984 9.74906V12H18.0265L17.4945 15.4688H14.6984V23.8542C20.4351 22.954 24.8234 17.9896 24.8234 12Z" fill="#1877F2"/>
<path d="M17.4945 15.4688L18.0265 12H14.6984V9.74906C14.6984 8.79994 15.1633 7.875 16.654 7.875H18.1671V4.92188C18.1671 4.92188 16.7939 4.6875 15.4809 4.6875C12.7399 4.6875 10.9484 6.34875 10.9484 9.35625V12H7.90149V15.4688H10.9484V23.8542C11.5686 23.9514 12.1955 24.0002 12.8234 24C13.4512 24.0002 14.0781 23.9514 14.6984 23.8542V15.4688H17.4945Z" fill="white"/>
</g>
<defs>
<clipPath id="clip0_132_299">
<rect width="24" height="24" fill="white" transform="translate(0.823364)"/>
</clipPath>
</defs>
</svg>
