<svg width="100" height="92" viewBox="0 0 100 92" fill="none" xmlns="http://www.w3.org/2000/svg">
<path d="M55.3634 6.86114C55.2733 6.43301 55.1488 6.01283 54.991 5.60467C54.348 3.97353 53.2166 2.58002 51.751 1.61412C50.2855 0.648221 48.5572 0.156937 46.8017 0.207247C45.0462 0.257558 43.3489 0.847013 41.9413 1.89525C40.5338 2.94349 39.4843 4.39951 38.9361 6.06479C36.5455 5.88124 34.1516 6.37618 32.0308 7.4925C29.91 8.60881 28.1487 10.301 26.9503 12.3737C25.9098 12.0027 24.797 11.8795 23.7004 12.0138C22.6038 12.1482 21.5539 12.5363 20.6342 13.1474C19.7146 13.7585 18.9506 14.5756 18.4034 15.5335C17.8562 16.4914 17.5407 17.5637 17.4822 18.6648H66.5247C66.7124 17.126 66.5585 15.5648 66.0739 14.0919C65.5893 12.6191 64.7859 11.2707 63.7207 10.1425C62.6555 9.01433 61.3546 8.13392 59.9103 7.56377C58.4659 6.99362 56.9136 6.74769 55.3634 6.84344V6.86114Z" fill="white"/>
<path d="M55.5319 6.64878C55.4374 6.26716 55.3189 5.89184 55.1773 5.52504C54.5232 3.86895 53.3773 2.45217 51.8932 1.46487C50.4092 0.477564 48.6581 -0.0330152 46.8749 0.00165567C45.0917 0.0363266 43.3618 0.61459 41.9174 1.65883C40.473 2.70307 39.3832 4.16332 38.7943 5.84358C36.9018 5.72957 35.0074 6.03163 33.2447 6.72842C30.5671 7.77422 28.3192 9.68754 26.8617 12.1613C25.7959 11.8084 24.663 11.7058 23.551 11.8615C22.439 12.0172 21.378 12.4269 20.4506 13.0588C19.5233 13.6907 18.7545 14.5278 18.2043 15.5047C17.6541 16.4817 17.3372 17.5722 17.2784 18.6914C17.2755 18.7188 17.2788 18.7466 17.288 18.7726C17.2972 18.7986 17.312 18.8223 17.3315 18.8418C17.3503 18.8635 17.3734 18.8811 17.3993 18.8933C17.4253 18.9055 17.4536 18.9121 17.4823 18.9126H66.5248C66.5759 18.9128 66.6253 18.8938 66.6631 18.8594C66.7008 18.825 66.7243 18.7776 66.7287 18.7268C66.92 17.1729 66.7692 15.596 66.2869 14.1063C65.8046 12.6166 65.0024 11.2498 63.9363 10.1015C62.8701 8.95311 61.5658 8.05081 60.1142 7.45752C58.6626 6.86424 57.0988 6.59428 55.5319 6.66648V6.64878ZM66.3386 18.479H17.7039C17.7946 17.4305 18.125 16.4167 18.6697 15.5156C19.2144 14.6144 19.9588 13.8499 20.8458 13.2808C21.7327 12.7117 22.7386 12.3531 23.7862 12.2327C24.8337 12.1122 25.8949 12.2331 26.8883 12.586C26.9336 12.6013 26.9827 12.6008 27.0278 12.5848C27.0728 12.5687 27.1111 12.538 27.1365 12.4975C28.3151 10.4611 30.0468 8.79893 32.1316 7.70294C34.2163 6.60696 36.5692 6.12187 38.9184 6.30369C38.965 6.30963 39.0122 6.29858 39.0513 6.27257C39.0904 6.24656 39.1188 6.20734 39.1312 6.16212C39.6674 4.53871 40.6918 3.11963 42.0649 2.098C43.438 1.07636 45.0931 0.501796 46.8051 0.45248C48.517 0.403164 50.2025 0.881495 51.6324 1.82238C53.0622 2.76327 54.1669 4.12102 54.7961 5.71085C54.9507 6.11022 55.0723 6.52157 55.1596 6.94078C55.1734 6.98821 55.2027 7.02967 55.2429 7.05853C55.283 7.0874 55.3317 7.10201 55.3812 7.10005C56.8856 7.00847 58.3919 7.24494 59.7955 7.79303C61.1991 8.34112 62.4663 9.18768 63.509 10.2739C64.5517 11.3601 65.345 12.6599 65.8336 14.0829C66.3223 15.506 66.4946 17.0182 66.3386 18.5144V18.479Z" fill="#251853"/>
<path d="M34.8138 40.5999H34.7429C34.4728 40.206 34.1766 39.8306 33.8563 39.4762C34.1339 38.4778 34.1898 37.4311 34.0204 36.4089C33.8509 35.3868 33.4601 34.4138 32.8751 33.5579C32.2901 32.702 31.5252 31.9838 30.6335 31.4533C29.7418 30.9229 28.745 30.5929 27.7124 30.4865C26.6798 30.3801 25.6365 30.4999 24.655 30.8373C23.6736 31.1748 22.7778 31.7219 22.03 32.4405C21.2822 33.1591 20.7004 34.0318 20.3253 34.9979C19.9502 35.9639 19.7908 37 19.8581 38.0339C18.8279 38.8239 17.9583 39.8029 17.296 40.9185C16.6824 40.3752 15.9962 39.9196 15.257 39.5647C15.4988 38.7308 15.4552 37.8403 15.1329 37.034C14.7664 36.0644 14.0333 35.277 13.0912 34.8413C12.1491 34.4056 11.0733 34.3564 10.0952 34.7042C9.11708 35.0521 8.31483 35.7692 7.861 36.7013C7.40716 37.6334 7.338 38.7061 7.66839 39.6885C6.36661 40.3647 5.26212 41.3652 4.46214 42.5932C3.66216 43.8211 3.19389 45.2346 3.10278 46.6964H42.562C42.705 45.7083 42.5853 44.7001 42.215 43.7727C41.8448 42.8452 41.2369 42.0312 40.4522 41.412C39.6676 40.7928 38.7337 40.3902 37.7442 40.2446C36.7546 40.099 35.7441 40.2154 34.8138 40.5822V40.5999Z" fill="white"/>
<path d="M36.9059 39.9982C36.1938 39.9951 35.4874 40.1241 34.8226 40.3787C34.6038 40.0725 34.37 39.7772 34.1222 39.4939C34.4671 38.1878 34.4435 36.8119 34.054 35.5184C33.6646 34.2248 32.9244 33.0639 31.9153 32.1639C30.9063 31.2639 29.6676 30.6598 28.3361 30.4184C27.0046 30.177 25.6322 30.3076 24.3704 30.7959C22.936 31.3458 21.7113 32.3322 20.8696 33.6153C20.028 34.8984 19.612 36.4133 19.6807 37.9454C18.7329 38.6857 17.9201 39.5837 17.2783 40.5999C16.7341 40.149 16.139 39.7629 15.5052 39.4496C15.6815 38.7086 15.651 37.9335 15.4169 37.2086C15.1829 36.4836 14.7543 35.8366 14.1777 35.3377C13.6011 34.8388 12.8986 34.5071 12.1464 34.3788C11.3942 34.2504 10.6211 34.3302 9.91123 34.6096C8.95666 34.9923 8.17724 35.7133 7.72243 36.6342C7.26762 37.5552 7.16943 38.6113 7.44669 39.6C6.16062 40.3091 5.07303 41.3284 4.28323 42.5649C3.49344 43.8015 3.02662 45.2158 2.92541 46.6787C2.92332 46.7172 2.93024 46.7556 2.94563 46.7909C2.96102 46.8263 2.98445 46.8575 3.01407 46.8822C3.05588 46.9192 3.10898 46.9411 3.16477 46.9442H42.5619C42.6117 46.9446 42.6599 46.9268 42.6975 46.8942C42.735 46.8616 42.7593 46.8165 42.7658 46.7672C42.8882 45.9289 42.828 45.0742 42.5894 44.2612C42.3508 43.4482 41.9395 42.6962 41.3833 42.0562C40.8271 41.4163 40.1393 40.9036 39.3666 40.553C38.594 40.2025 37.7547 40.0223 36.9059 40.0248V39.9982ZM42.3846 46.5018H3.37754C3.50606 45.1186 3.97888 43.7895 4.753 42.6352C5.52713 41.4808 6.57802 40.5379 7.81016 39.892C7.85389 39.8694 7.88839 39.8323 7.90779 39.7872C7.92719 39.742 7.93028 39.6915 7.91655 39.6443C7.62643 38.7383 7.69103 37.7563 8.09734 36.896C8.50365 36.0357 9.22148 35.361 10.1063 35.0078C10.5431 34.8323 11.0095 34.7422 11.4804 34.7423C12.0627 34.7407 12.6374 34.8741 13.1592 35.1321C13.681 35.3901 14.1356 35.7655 14.4872 36.2288C14.8388 36.6921 15.0777 37.2306 15.1852 37.8018C15.2926 38.3731 15.2656 38.9614 15.1063 39.5204C15.0931 39.5664 15.0965 39.6155 15.1159 39.6592C15.1354 39.7029 15.1696 39.7383 15.2126 39.7593C15.9345 40.1015 16.6033 40.5455 17.1985 41.0777C17.2204 41.0992 17.247 41.1152 17.2763 41.1244C17.3056 41.1336 17.3366 41.1358 17.3669 41.1308C17.3974 41.126 17.4266 41.1148 17.4526 41.0981C17.4785 41.0813 17.5007 41.0593 17.5176 41.0335C18.1633 39.9396 19.0153 38.981 20.0265 38.2109C20.0551 38.1913 20.0783 38.1648 20.0938 38.1338C20.1093 38.1029 20.1167 38.0685 20.1151 38.0339C20.0491 37.0282 20.2039 36.0203 20.5689 35.0806C20.9338 34.141 21.5 33.2922 22.2278 32.5936C22.9556 31.8951 23.8276 31.3637 24.7826 31.0366C25.7377 30.7095 26.7528 30.5945 27.757 30.6998C28.7612 30.805 29.7303 31.128 30.5964 31.646C31.4625 32.164 32.2048 32.8646 32.7714 33.6989C33.3379 34.5331 33.7151 35.4807 33.8764 36.4756C34.0378 37.4704 33.9795 38.4885 33.7056 39.4585C33.6908 39.4872 33.6831 39.5191 33.6831 39.5514C33.6831 39.5837 33.6908 39.6155 33.7056 39.6443C34.0076 39.991 34.286 40.3575 34.5389 40.7415C34.5921 40.83 34.7694 40.83 34.858 40.7946C35.7404 40.4485 36.6972 40.3352 37.6361 40.4658C38.5751 40.5964 39.4644 40.9664 40.2183 41.5401C40.9722 42.1138 41.5652 42.8718 41.94 43.7409C42.3148 44.61 42.4588 45.5609 42.358 46.5018H42.3846ZM41.1967 14.1964C41.2942 14.1964 41.3474 14.046 41.3829 13.7983C41.4824 13.3018 41.6525 12.822 41.8882 12.3737C42.1304 11.9175 42.3235 11.437 42.4644 10.9402C42.5904 10.4263 42.5109 9.88359 42.2428 9.42716C42.0598 9.0523 41.7852 8.7294 41.4444 8.48819C41.1036 8.24698 40.7074 8.0952 40.2924 8.04682C39.985 8.03383 39.6795 8.10092 39.4059 8.24149C38.976 8.44877 38.5882 8.73378 38.2623 9.08208C38.0402 9.27744 37.8593 9.51509 37.7304 9.7811C37.7304 9.92267 37.757 10.02 37.8102 10.0731C37.9949 10.1971 38.1908 10.3037 38.3953 10.3916C38.6701 10.5067 38.8474 10.5421 38.9361 10.4978C38.9536 10.5014 38.9717 10.5014 38.9892 10.4978C39.2919 9.95792 39.7246 9.50178 40.2481 9.17056C40.3392 9.121 40.4413 9.09503 40.5451 9.09503C40.6489 9.09503 40.751 9.121 40.8421 9.17056C41.1346 9.32098 41.2144 9.68377 41.0726 10.2589C40.9053 10.8338 40.6888 11.3934 40.4254 11.9312C40.1868 12.4004 39.9881 12.8888 39.8314 13.3912C39.7897 13.5267 39.7897 13.6716 39.8314 13.8071C39.8449 13.839 39.8704 13.8644 39.9024 13.8779C40.2923 14.1105 40.7431 14.2214 41.1967 14.1964ZM42.5176 15.2228C42.3222 15.0854 42.0977 14.9945 41.8616 14.9574C41.6279 14.884 41.3772 14.884 41.1435 14.9574C41.0494 15.0027 40.9696 15.0732 40.913 15.1609C40.889 15.1961 40.8762 15.2377 40.8762 15.2803C40.8762 15.323 40.889 15.3646 40.913 15.3998C40.9713 15.5347 41.0072 15.6781 41.0194 15.8245C41.0194 15.9484 41.0194 16.0811 41.0194 16.205V16.2935C41.0189 16.3119 41.0249 16.3298 41.0362 16.3444C41.0475 16.3589 41.0635 16.369 41.0814 16.3731C41.4932 16.5672 41.9481 16.6525 42.4024 16.6209C42.5176 16.6209 42.5619 16.4705 42.5353 16.2581C42.5088 16.0457 42.5353 15.9749 42.5353 15.8334C42.5317 15.7419 42.5499 15.6509 42.5885 15.5679C42.6122 15.487 42.6122 15.4011 42.5885 15.3202L42.5176 15.2228ZM45.3102 12.2763C45.3988 12.2763 45.4609 12.1436 45.4963 11.8782C45.5975 11.3878 45.7676 10.9141 46.0017 10.4713C46.2439 10.0151 46.437 9.5346 46.5779 9.03783C46.7039 8.5239 46.6244 7.98119 46.3563 7.52477C46.1679 7.15535 45.89 6.83881 45.5478 6.60391C45.2056 6.36902 44.8101 6.22323 44.397 6.17982C44.0896 6.16683 43.7841 6.23391 43.5105 6.37448C43.0806 6.58177 42.6928 6.86678 42.3669 7.21507C42.1448 7.41044 41.9639 7.64809 41.835 7.91409C41.835 8.05567 41.835 8.153 41.9148 8.20609C42.0995 8.33006 42.2954 8.4367 42.4999 8.52463C42.7658 8.63966 42.952 8.67505 43.0407 8.63081C43.3758 8.0909 43.8385 7.64125 44.3882 7.32126C44.4793 7.27169 44.5814 7.24572 44.6852 7.24572C44.7889 7.24572 44.891 7.27169 44.9821 7.32126C45.2747 7.47168 45.3456 7.83446 45.2126 8.4096C45.0443 8.98704 44.8278 9.5494 44.5655 10.0908C44.3318 10.5397 44.136 11.0074 43.9804 11.4888C43.9344 11.6237 43.9344 11.7699 43.9804 11.9047C43.9939 11.9366 44.0193 11.962 44.0513 11.9755C44.433 12.1951 44.8702 12.2996 45.3102 12.2763ZM46.6311 13.3027C46.4331 13.164 46.2054 13.0731 45.9662 13.0373C45.7355 12.9641 45.4877 12.9641 45.257 13.0373C45.1628 13.0826 45.0831 13.1531 45.0265 13.2408C45.0025 13.276 44.9896 13.3177 44.9896 13.3603C44.9896 13.4029 45.0025 13.4445 45.0265 13.4797C45.0848 13.6146 45.1207 13.758 45.1329 13.9044C45.1329 14.0283 45.1329 14.161 45.1329 14.2849C45.1372 14.3142 45.1372 14.3441 45.1329 14.3734C45.1366 14.3917 45.1451 14.4087 45.1576 14.4227C45.17 14.4367 45.186 14.4472 45.2038 14.453C45.6156 14.6471 46.0704 14.7324 46.5247 14.7008C46.6311 14.7008 46.6843 14.5504 46.6577 14.338C46.6311 14.1256 46.6577 14.0549 46.6577 13.9133C46.654 13.8218 46.6722 13.7308 46.7109 13.6478C46.7345 13.5669 46.7345 13.481 46.7109 13.4001L46.6311 13.3027ZM49.4236 10.3651C49.5123 10.3651 49.5743 10.2058 49.6098 9.95806C49.7076 9.46673 49.8779 8.9926 50.1151 8.55118C50.3573 8.09499 50.5505 7.6145 50.6914 7.11774C50.8136 6.60364 50.7343 6.06233 50.4697 5.60467C50.2833 5.23061 50.0066 4.90865 49.6647 4.66771C49.3227 4.42678 48.9261 4.27442 48.5105 4.22433C48.2031 4.21134 47.8976 4.27843 47.624 4.41899C47.1816 4.63399 46.7844 4.93131 46.4538 5.29498C46.2317 5.49035 46.0508 5.728 45.9219 5.994C45.8864 6.13558 45.913 6.23291 46.0017 6.286C46.1864 6.40997 46.3823 6.5166 46.5868 6.60454C46.8527 6.71957 47.0389 6.75496 47.1275 6.71072C47.4585 6.13063 47.9313 5.64359 48.5017 5.29498C48.5962 5.24611 48.7011 5.2206 48.8075 5.2206C48.914 5.2206 49.0188 5.24611 49.1134 5.29498C49.4059 5.4454 49.4768 5.80819 49.3439 6.38333C49.1755 6.96201 48.9559 7.52461 48.6878 8.06452C48.4536 8.53157 48.258 9.01688 48.1027 9.51565C48.0524 9.64972 48.0524 9.79744 48.1027 9.93152C48.1027 9.93152 48.1027 9.99346 48.1736 10.0023C48.5469 10.2401 48.9808 10.366 49.4236 10.3651ZM50.7889 11.4888C50.7929 11.4684 50.7929 11.4473 50.7889 11.4269C50.586 11.2975 50.3604 11.2074 50.124 11.1614C49.8933 11.0882 49.6455 11.0882 49.4148 11.1614C49.3189 11.2042 49.2385 11.2752 49.1843 11.365C49.1476 11.3973 49.1226 11.4409 49.1134 11.4888C49.1788 11.6217 49.2179 11.7659 49.2286 11.9135C49.2286 12.0374 49.2286 12.1702 49.2286 12.294C49.2286 12.4179 49.2286 12.356 49.2286 12.3825C49.2323 12.4008 49.2409 12.4179 49.2533 12.4319C49.2658 12.4458 49.2817 12.4563 49.2995 12.4621C49.71 12.6602 50.1659 12.7457 50.6204 12.7099C50.7268 12.7099 50.7712 12.5683 50.7534 12.3471C50.7357 12.1259 50.7534 12.064 50.7534 11.9224C50.736 11.8348 50.736 11.7446 50.7534 11.6569C50.78 11.6051 50.7923 11.547 50.7889 11.4888Z" fill="#23548F"/>
<path d="M58.5548 32.5125C58.5548 30.2296 56.9236 25.1064 55.8952 26.0178C55.3722 26.4868 56.4715 31.3268 56.4715 31.3268C56.4715 31.3268 54.8225 27.2831 51.3651 25.6108C48.5371 24.2482 49.1133 26.7345 49.1133 26.7345C46.3385 26.1859 46.5867 27.2035 47.0477 27.5044C50.6559 29.858 50.8864 31.84 50.8864 31.84C50.4342 30.6278 48.28 28.867 47.1807 28.3007C46.0814 27.7344 43.8562 27.8937 45.842 29.3448C47.8279 30.7959 49.0247 32.0524 49.3881 33.5212C49.7516 34.9901 47.4821 31.4242 46.5424 30.7605C45.6027 30.0969 44.6541 31.3091 45.6559 32.6452C47.9254 35.5917 45.6559 36.8925 48.6435 39.5381C52.8988 43.2721 50.8509 48.3865 50.8509 48.3865L58.5459 49.0501C58.5459 45.785 58.1825 43.4048 58.3598 39.9186C58.5371 36.4323 58.5548 36.0165 58.5548 32.5125Z" fill="white"/>
<path d="M58.6435 45.4754C58.5188 43.6287 58.4981 41.7764 58.5815 39.9274C58.7588 36.3881 58.7677 35.9722 58.7677 32.5125C58.7677 30.4774 57.4024 25.6993 56.1613 25.6993C56.0156 25.7004 55.8759 25.7574 55.7712 25.8586C55.3545 26.2302 55.6471 28.2299 55.9574 29.8669C54.9165 27.9915 53.3559 26.4554 51.4627 25.4427C50.3102 24.8852 49.5212 24.8764 49.1223 25.3807C48.9033 25.7054 48.8118 26.0991 48.8652 26.4868C48.4963 26.4216 48.1227 26.3861 47.7481 26.3806C46.9059 26.3806 46.64 26.6638 46.5691 26.8938C46.5408 27.0465 46.5606 27.2041 46.6257 27.3451C46.6908 27.4861 46.7979 27.6035 46.9325 27.6813C47.7962 28.227 48.5883 28.8779 49.2907 29.6191C48.664 29.0472 47.9739 28.5484 47.234 28.1326C46.7978 27.9203 46.3185 27.8113 45.8333 27.814C45.2836 27.814 44.9467 27.9733 44.8226 28.2653C44.6985 28.5573 44.9911 29.0263 45.7091 29.5306C47.7393 31.0083 48.7765 32.1851 49.1577 33.4504C48.9184 33.185 48.5726 32.7514 48.2712 32.4152C47.792 31.7719 47.2484 31.1789 46.6489 30.6455C46.5359 30.5508 46.4029 30.4826 46.26 30.446C46.117 30.4095 45.9676 30.4055 45.8229 30.4344C45.6781 30.4633 45.5418 30.5243 45.4239 30.6129C45.306 30.7016 45.2096 30.8155 45.1418 30.9464C45.0215 31.2618 44.9918 31.6045 45.056 31.9359C45.1202 32.2673 45.2758 32.5742 45.5052 32.8222C46.2433 33.7314 46.6497 34.864 46.6577 36.0342C46.6556 36.7544 46.823 37.4652 47.1464 38.1091C47.4697 38.753 47.94 39.3122 48.5194 39.7416C52.6152 43.3341 50.7003 48.2891 50.6825 48.3422C50.667 48.3707 50.6589 48.4027 50.6589 48.4351C50.6589 48.4676 50.667 48.4995 50.6825 48.528C50.6986 48.5547 50.7205 48.5773 50.7466 48.5941C50.7727 48.611 50.8024 48.6217 50.8333 48.6254L58.5283 49.289C58.5558 49.2902 58.5833 49.2858 58.609 49.2761C58.6348 49.2664 58.6584 49.2516 58.6782 49.2326C58.6981 49.2136 58.7139 49.1908 58.7247 49.1655C58.7355 49.1402 58.7411 49.113 58.7411 49.0855C58.7463 49.0652 58.7463 49.0439 58.7411 49.0235C58.7588 47.714 58.6967 46.5814 58.6435 45.4754ZM58.2269 45.4754C58.2801 46.5195 58.3333 47.599 58.3421 48.7935L51.1435 48.1653C51.6621 46.622 51.715 44.9607 51.2958 43.3876C50.8766 41.8146 50.0036 40.3991 48.7854 39.3169C48.2456 38.9226 47.808 38.4053 47.5089 37.8082C47.2097 37.2111 47.0577 36.5513 47.0655 35.8837C47.0503 34.6353 46.6129 33.4286 45.8244 32.4594C45.6433 32.2716 45.5177 32.0376 45.4614 31.7831C45.4051 31.5286 45.4203 31.2636 45.5052 31.0171C45.5432 30.9377 45.5997 30.8685 45.67 30.8154C45.7403 30.7623 45.8224 30.7269 45.9094 30.7122C45.9963 30.6974 46.0855 30.7038 46.1695 30.7307C46.2534 30.7576 46.3297 30.8042 46.3918 30.8667C46.9675 31.4028 47.4873 31.9957 47.9432 32.6364C48.8297 33.7778 49.1134 34.061 49.3528 34.061C49.4303 34.0544 49.5029 34.0198 49.5567 33.9636C49.5952 33.8836 49.6152 33.7959 49.6152 33.707C49.6152 33.6182 49.5952 33.5305 49.5567 33.4504C49.1843 32.0259 48.1205 30.7959 45.913 29.159C45.1418 28.6015 45.2038 28.3715 45.2127 28.3626C45.2216 28.3538 45.4166 28.1857 45.8244 28.1857C46.2417 28.1863 46.6537 28.28 47.0301 28.46C48.1648 29.0528 50.2304 30.7959 50.6382 31.902C50.6545 31.9494 50.6884 31.9888 50.733 32.0118C50.7776 32.0349 50.8294 32.0399 50.8776 32.0259C50.9269 32.0152 50.9705 31.9867 51 31.9459C51.0294 31.905 51.0427 31.8547 51.0372 31.8046C51.0372 31.725 50.8067 29.6899 47.1453 27.3008C47.0212 27.2212 46.9325 27.0708 46.9591 26.9823C46.9857 26.8938 47.2162 26.7522 47.7393 26.7522C48.1837 26.7624 48.6261 26.8158 49.0602 26.9115C49.0939 26.9195 49.1292 26.918 49.1621 26.907C49.195 26.8961 49.2242 26.8762 49.2464 26.8496C49.2723 26.8271 49.2912 26.7975 49.3006 26.7645C49.3101 26.7316 49.3097 26.6965 49.2996 26.6638C49.2077 26.3058 49.2552 25.9263 49.4325 25.602C49.7074 25.2657 50.3191 25.3277 51.2765 25.7789C54.6187 27.3982 56.2588 31.3445 56.2765 31.3888C56.2963 31.4373 56.3341 31.4763 56.382 31.4977C56.4298 31.5192 56.4842 31.5213 56.5336 31.5038C56.5828 31.4894 56.6243 31.4563 56.6492 31.4116C56.6741 31.3669 56.6803 31.3142 56.6666 31.2649C56.1613 29.0263 55.7801 26.4337 56.0372 26.1417C56.0677 26.1104 56.1087 26.0915 56.1524 26.0886C56.906 26.0886 58.3421 30.2739 58.3421 32.486C58.3421 35.9368 58.3421 36.3527 58.1559 39.8743C58.0745 41.7501 58.0982 43.6288 58.2269 45.5019V45.4754Z" fill="#251853"/>
<path d="M49.1844 26.531L49.0337 26.9204C49.0337 26.9204 52.5798 28.2653 53.3156 31.0172L53.7145 30.911C52.8901 27.9556 49.3351 26.6018 49.1844 26.531Z" fill="#251853"/>
<path d="M47.6951 40.8034C44.3972 45.6081 46.0816 53.1026 46.6046 60.6326C46.6046 60.6326 43.2358 48.4219 37.11 49.7491C33.1915 50.6339 26.5426 57.9515 28.6259 62.2518C31.5958 68.3749 45.3192 79.7273 52.3937 76.303C60.0532 72.6133 60.0444 60.2963 60.789 53.0938C61.0124 50.2937 60.6841 47.477 59.8227 44.8029C59.6454 44.7675 50.7447 42.697 47.6951 40.8034Z" fill="#23548F"/>
<path d="M59.8581 44.5994C59.7783 44.5994 50.8421 42.5112 47.8014 40.6265C47.755 40.599 47.6999 40.5901 47.6473 40.6016C47.5946 40.6131 47.5483 40.6441 47.5177 40.6884C44.8581 44.6082 45.3989 50.2446 46.0017 56.2084C46.0992 57.2171 46.2056 58.2435 46.2943 59.2699C45.4077 57.1375 43.4663 52.908 41.2233 50.8021C41.2036 50.7835 41.1803 50.769 41.1549 50.7593C41.1295 50.7497 41.1024 50.7452 41.0752 50.746C41.0481 50.7468 41.0213 50.753 40.9965 50.7641C40.9718 50.7753 40.9494 50.7912 40.9308 50.8109C40.9122 50.8307 40.8976 50.8539 40.888 50.8793C40.8783 50.9046 40.8738 50.9316 40.8746 50.9588C40.8755 50.9859 40.8816 51.0126 40.8928 51.0373C40.9039 51.062 40.9199 51.0843 40.9397 51.1029C43.8829 53.8636 46.3918 60.6326 46.4538 60.7034C46.4683 60.7505 46.5001 60.7904 46.5429 60.8151C46.5857 60.8397 46.6362 60.8472 46.6843 60.8361C46.7344 60.8256 46.7789 60.7974 46.8098 60.7568C46.8408 60.7162 46.856 60.6658 46.8528 60.6149C46.7464 59.1284 46.5957 57.6242 46.445 56.1907C45.8599 50.3862 45.3102 44.9002 47.7925 41.1485C50.8421 42.9182 58.617 44.794 59.6985 45.0418C60.5086 47.6625 60.8095 50.4135 60.5851 53.1469C60.4964 54.0317 60.4166 55.005 60.328 56.0314C59.7251 63.1898 58.9095 73.0026 52.3049 76.188C45.7003 79.3734 33.2269 69.4456 29.406 63.3136C29.3818 63.272 29.3436 63.2402 29.2981 63.224C29.2527 63.2078 29.2029 63.2082 29.1577 63.2252C29.1115 63.2431 29.0733 63.2772 29.0505 63.3212C29.0276 63.3652 29.0216 63.416 29.0336 63.4641C29.7218 66.4269 30.9218 69.2474 32.5797 71.7992C32.6192 71.8366 32.6716 71.8574 32.726 71.8574C32.7804 71.8574 32.8328 71.8366 32.8723 71.7992C32.9091 71.7613 32.9297 71.7105 32.9297 71.6576C32.9297 71.6048 32.9091 71.554 32.8723 71.5161C31.447 69.3595 30.3728 66.9912 29.6897 64.4993C33.617 69.9588 42.757 77.1702 49.3616 77.1702C50.4209 77.1896 51.4704 76.9656 52.429 76.5154C59.2464 73.2327 60.0797 63.2429 60.6914 56.0226C60.7712 54.9962 60.851 54.0317 60.9485 53.1469C61.1657 50.3165 60.8316 47.471 59.9645 44.7675C59.9645 44.7323 59.9545 44.6978 59.9357 44.668C59.9169 44.6383 59.89 44.6145 59.8581 44.5994Z" fill="#251853"/>
<path d="M42.2251 76.3473C43.8829 70.525 40.9042 62.7031 40.7003 58.8364C40.4964 54.9696 28.0762 48.1033 25.1772 48.1033C9.21978 48.1033 3.90063 68.3926 3.90063 88.1598H42.7304C43.7322 84.0453 40.2482 83.2755 42.2251 76.3473Z" fill="#23548F"/>
<path d="M42.42 76.4004C43.5725 72.3567 42.5264 67.4016 41.6842 63.4198C41.32 61.9085 41.0594 60.3742 40.9041 58.8275C40.6736 54.6334 27.8367 47.8998 25.1771 47.8998C17.7658 47.8998 12.1275 52.1824 8.40409 60.6414C4.55657 69.4013 3.74097 80.4441 3.74097 88.1598C3.74097 88.2161 3.76338 88.2702 3.80328 88.31C3.84319 88.3498 3.89731 88.3722 3.95373 88.3722H42.7303C42.7768 88.3703 42.8214 88.3539 42.858 88.3254C42.8946 88.2968 42.9213 88.2574 42.9342 88.2129C43.2631 86.7707 43.1234 85.2614 42.5353 83.9038C41.9591 82.2226 41.303 80.3113 42.42 76.4004ZM42.5708 87.9563H4.13104C4.13104 78.3735 5.78884 48.3157 25.1505 48.3157C28.1381 48.3157 40.2835 55.1732 40.4874 58.8541C40.6492 60.4209 40.9128 61.9756 41.2764 63.5083C42.1098 67.4458 43.147 72.3567 42.0211 76.2942C40.8952 80.2317 41.5424 82.3022 42.1364 84.0365C42.6853 85.2664 42.8371 86.6364 42.5708 87.9563Z" fill="#251853"/>
<path d="M26.3032 48.3157C29.5302 54.3149 34.0426 55.6244 34.0426 55.6244C33.7944 52.6248 37.961 51.0233 37.961 51.0233L35.3015 41.1751C30.3901 44.9445 26.3032 48.3157 26.3032 48.3157Z" fill="white"/>
<path d="M35.319 40.9804C35.2887 40.9655 35.2553 40.9578 35.2215 40.9578C35.1877 40.9578 35.1543 40.9655 35.124 40.9804C30.3102 44.7144 26.2055 48.0591 26.1701 48.1299C26.133 48.162 26.1077 48.2055 26.0981 48.2535C26.0884 48.3016 26.0951 48.3514 26.1169 48.3953C29.3527 54.3945 33.7942 55.7483 33.9804 55.8014H34.0424C34.0989 55.8014 34.153 55.779 34.1929 55.7392C34.2328 55.6994 34.2552 55.6453 34.2552 55.589C34.2593 55.5626 34.2593 55.5358 34.2552 55.5094C34.0868 52.7399 38.0141 51.1914 38.0495 51.1737C38.0977 51.1557 38.1373 51.1201 38.1603 51.0741C38.1833 51.0282 38.1881 50.9752 38.1736 50.9259L35.5141 41.0866C35.4962 41.0512 35.468 41.022 35.4332 41.0031C35.3983 40.9841 35.3585 40.9762 35.319 40.9804ZM33.8208 55.3324C32.8102 54.9342 29.2552 53.2619 26.5602 48.3688C27.2871 47.7759 30.913 44.8294 35.1329 41.529L37.7126 50.8994C36.9236 51.2356 33.8474 52.7222 33.8208 55.3324Z" fill="#251853"/>
<path d="M46.7553 32.2382C37.89 29.044 35.9131 36.105 35.9131 36.105C34.14 35.4944 32.695 36.7155 32.234 38.6798C32.1299 39.1529 32.1575 39.6454 32.3138 40.1039C32.4701 40.5625 32.749 40.9696 33.1205 41.2812C30.9308 48.0945 35.8954 52.3063 39.1046 52.1028C42.3138 51.8993 44.7517 51.0587 45.9929 49.4483C47.234 47.8379 49.4149 43.3429 50.7446 41.4405C52.1542 39.3611 54.0159 34.8396 46.7553 32.2382Z" fill="white"/>
<path d="M46.8263 32.0436C45.4458 31.5194 43.9856 31.2351 42.5089 31.203C41.0456 31.1764 39.6111 31.6111 38.4094 32.445C37.2078 33.279 36.3002 34.4699 35.8157 35.8484C34.0869 35.3794 32.5621 36.5208 32.0657 38.6356C31.9541 39.1208 31.9715 39.6267 32.1161 40.1032C32.2608 40.5796 32.5276 41.0101 32.8901 41.352C32.4084 42.6891 32.252 44.1213 32.4339 45.5305C32.6158 46.9397 33.1307 48.2856 33.9362 49.4571C34.4936 50.2749 35.2288 50.9566 36.0868 51.4514C36.9448 51.9463 37.9037 52.2415 38.8919 52.3151H39.1224C42.571 52.0939 44.938 51.1649 46.2146 49.5456C47.1066 48.2114 47.9292 46.8321 48.6791 45.4134C49.4149 43.9535 50.2571 42.4581 50.8866 41.5732C51.516 40.6884 52.7217 38.5029 52.0479 36.3793C51.4717 34.4946 49.7075 33.0788 46.8263 32.0436ZM50.5497 41.2901C49.9025 42.1749 49.0603 43.7411 48.2359 45.2188C47.4951 46.62 46.6814 47.9816 45.7979 49.2979C44.6543 50.8198 42.3848 51.6958 39.0603 51.8993C38.103 51.871 37.1662 51.6155 36.3275 51.1538C35.4888 50.6922 34.7724 50.0378 34.2376 49.2448C33.4567 48.1084 32.9625 46.8004 32.7973 45.4323C32.6322 44.0641 32.8009 42.6764 33.2891 41.3874C33.3018 41.3472 33.3027 41.3041 33.2917 41.2634C33.2807 41.2226 33.2583 41.1858 33.227 41.1574C32.8892 40.8673 32.6371 40.4906 32.4981 40.068C32.359 39.6455 32.3383 39.193 32.438 38.7595C32.8103 37.1756 33.7944 36.1846 35.0001 36.1846C35.2744 36.1689 35.5495 36.1958 35.8157 36.2642C35.8409 36.2749 35.868 36.2805 35.8954 36.2805C35.9229 36.2805 35.95 36.2749 35.9752 36.2642C36.0003 36.2516 36.0226 36.2342 36.0408 36.2129C36.0591 36.1916 36.0729 36.167 36.0816 36.1404C36.5133 34.7958 37.3689 33.6265 38.5208 32.8069C39.6727 31.9872 41.0592 31.5612 42.4735 31.5923C43.9024 31.6246 45.315 31.903 46.649 32.4152C49.4061 33.4062 51.0816 34.76 51.6135 36.4412C52.2696 38.4144 51.2235 40.3256 50.5497 41.2901Z" fill="#251853"/>
<path d="M44.7961 39.9275C43.3714 39.2818 41.7738 39.1202 40.2482 39.4673C40.2213 39.4724 40.1957 39.483 40.1732 39.4986C40.1507 39.5141 40.1317 39.5343 40.1175 39.5576C40.1033 39.581 40.0941 39.6071 40.0907 39.6342C40.0873 39.6614 40.0896 39.6889 40.0975 39.7151C40.1026 39.742 40.1132 39.7675 40.1288 39.79C40.1444 39.8125 40.1646 39.8314 40.188 39.8456C40.2114 39.8598 40.2376 39.8689 40.2648 39.8723C40.2919 39.8758 40.3195 39.8734 40.3458 39.8655C41.7827 39.5486 43.2837 39.7006 44.6277 40.2991H44.7252C44.764 40.2996 44.8021 40.289 44.8351 40.2686C44.868 40.2483 44.8945 40.2189 44.9114 40.1841C44.9268 40.1346 44.9236 40.0812 44.9024 40.034C44.8812 39.9867 44.8434 39.9488 44.7961 39.9275ZM47.8103 41.2459C47.7921 41.2266 47.7701 41.2112 47.7457 41.2007C47.7213 41.1902 47.695 41.1848 47.6685 41.1848C47.6419 41.1848 47.6156 41.1902 47.5912 41.2007C47.5668 41.2112 47.5448 41.2266 47.5266 41.2459C47.4892 41.2853 47.4683 41.3375 47.4683 41.3919C47.4683 41.4462 47.4892 41.4984 47.5266 41.5379C48.431 42.2691 49.0873 43.261 49.406 44.3782C49.416 44.4227 49.4406 44.4626 49.476 44.4915C49.5113 44.5204 49.5554 44.5366 49.6011 44.5374H49.6543C49.7062 44.5229 49.7506 44.4892 49.7786 44.4432C49.8065 44.3972 49.816 44.3424 49.805 44.2897C49.4777 43.0908 48.7796 42.0256 47.8103 41.2459ZM40.1064 47.1035C39.5745 47.7582 39.2199 50.6428 41.5426 48.5015C43.8653 46.3602 40.6294 46.4487 40.1064 47.1035Z" fill="#251853"/>
<path d="M41.4094 46.4929C40.8761 46.4613 40.3504 46.632 39.9378 46.9707C39.7378 47.2823 39.6054 47.6322 39.5489 47.9979C39.4924 48.3636 39.5131 48.7371 39.6098 49.0943C39.6603 49.209 39.7436 49.3063 39.8493 49.374C39.9549 49.4416 40.0782 49.4767 40.2037 49.4748C40.7765 49.3761 41.2985 49.0859 41.6842 48.6519C42.4467 47.9794 42.7392 47.4397 42.5708 47.015C42.4023 46.5902 42.0211 46.4929 41.4094 46.4929ZM41.4094 48.3511C40.7091 48.9705 40.3544 49.0589 40.2037 49.0589C40.1554 49.0615 40.1076 49.0481 40.0676 49.021C40.0275 48.9938 39.9975 48.9543 39.9821 48.9085C39.9133 48.6261 39.9013 48.3328 39.947 48.0457C39.9926 47.7586 40.095 47.4835 40.2481 47.2362C40.5814 46.9854 40.9926 46.8601 41.4094 46.8822C41.8172 46.8822 42.1275 46.9884 42.1896 47.1565C42.2516 47.3247 42.2605 47.599 41.4094 48.3511ZM43.0672 44.6082C43.0163 44.6263 42.9737 44.6624 42.9476 44.7097C42.9215 44.757 42.9136 44.8121 42.9254 44.8648C42.9325 44.8912 42.9449 44.916 42.9618 44.9375C42.9787 44.959 42.9998 44.9769 43.0238 44.9901C43.0478 45.0034 43.0742 45.0116 43.1015 45.0144C43.1287 45.0172 43.1563 45.0145 43.1825 45.0064C43.6169 44.8825 43.9449 44.8914 44.069 45.0064C44.1202 45.0686 44.1571 45.1412 44.177 45.2192C44.1969 45.2972 44.1994 45.3786 44.1842 45.4577C44.1764 45.5114 44.1894 45.5662 44.2208 45.6106C44.2521 45.6551 44.2993 45.6858 44.3527 45.6966C44.4007 45.6956 44.447 45.6785 44.484 45.648C44.521 45.6174 44.5466 45.5753 44.5566 45.5284C44.5854 45.3801 44.5779 45.227 44.5346 45.0822C44.4914 44.9374 44.4138 44.8051 44.3084 44.6967C44.1233 44.5849 43.9143 44.5185 43.6985 44.5031C43.4827 44.4877 43.2663 44.5238 43.0672 44.6082Z" fill="#251853"/>
<path d="M38.883 23.558C29.1578 24.5932 25.8245 39.0603 24.9823 41.5732C24.828 42.2357 24.4469 42.8236 23.9047 43.2355C23.3625 43.6474 22.6933 43.8575 22.0125 43.8296C23.5018 49.3598 31.8706 52.8991 31.8706 52.8991C30.2217 50.5455 35.5142 43.98 33.094 41.2812C31.9415 40.0071 31.5249 35.5475 35.9132 36.105C35.9752 36.105 37.4557 33.8752 37.5178 33.884C37.5798 33.8929 36.3387 36.158 36.4539 36.1757C40.3724 36.7332 41.1437 37.5738 41.1437 37.5738C42.1728 36.9718 43.2713 36.4965 44.4149 36.158C43.7604 36.7804 43.0612 37.3542 42.3227 37.8746L44.2288 38.4675C46.0104 37.736 47.6064 36.6176 48.9008 35.1936C48.9877 36.8403 48.428 38.456 47.3405 39.6974C50.3281 39.8124 50.6915 41.414 50.6915 41.414C50.6915 41.414 46.4539 48.9439 44.9469 50.4216C42.4469 52.8814 37.3139 51.9524 37.3139 51.9524L36.5515 54.2529C40.3792 55.9952 44.5957 56.7118 48.7855 56.3323C44.3972 54.5626 49.1578 47.2096 50.727 44.0065C52.1454 41.1043 58.4575 38.264 52.5 30.5039C52.5089 30.5216 50.3724 22.3369 38.883 23.558Z" fill="#251853"/>
<path d="M41.1348 23.2306C40.3738 23.2336 39.6133 23.2749 38.8565 23.3545C29.8937 24.3101 26.2678 36.512 25.0799 40.5203C24.9557 40.9361 24.8582 41.2635 24.7784 41.4936C24.6387 42.111 24.288 42.6607 23.7866 43.0482C23.2851 43.4357 22.6641 43.6369 22.0302 43.6172C21.9971 43.6137 21.9637 43.6183 21.9327 43.6306C21.9018 43.6429 21.8744 43.6626 21.8529 43.688C21.8309 43.713 21.8153 43.743 21.8075 43.7754C21.7998 43.8078 21.8002 43.8416 21.8086 43.8738C23.3157 49.4483 31.4451 52.9434 31.7909 53.0761C31.832 53.0934 31.8778 53.0967 31.921 53.0855C31.9643 53.0743 32.0026 53.0492 32.0302 53.0141C32.0575 52.9786 32.0723 52.9351 32.0723 52.8903C32.0723 52.8455 32.0575 52.8019 32.0302 52.7664C31.3299 51.7665 32.0302 49.8287 32.7749 47.7848C33.6614 45.2718 34.6277 42.6704 33.2448 41.1308C32.8773 40.6266 32.6418 40.0388 32.5598 39.4207C32.4777 38.8026 32.5517 38.1738 32.7749 37.5915C32.9926 37.1487 33.3418 36.7836 33.7749 36.5461C34.208 36.3086 34.7039 36.2102 35.1951 36.2642C35.4342 36.2481 35.6741 36.2481 35.9132 36.2642C36.0107 36.2642 36.0373 36.2642 36.2944 35.9191C36.2146 36.1049 36.2323 36.1492 36.2944 36.22C36.3091 36.251 36.3315 36.2779 36.3594 36.298C36.3873 36.3181 36.4198 36.3308 36.454 36.335C40.1951 36.8659 41.0107 37.6623 41.0196 37.6711C41.0566 37.7029 41.1038 37.7203 41.1526 37.7203C41.2014 37.7203 41.2485 37.7029 41.2855 37.6711C42.0049 37.229 42.7722 36.8698 43.5728 36.6005C42.8813 37.1756 42.243 37.6269 42.2341 37.6357C42.2012 37.6574 42.1753 37.6882 42.1596 37.7243C42.1438 37.7605 42.1389 37.8004 42.1455 37.8392C42.1521 37.8763 42.1688 37.9108 42.1938 37.9389C42.2189 37.967 42.2512 37.9876 42.2873 37.9985L44.1933 38.5913C44.2389 38.6091 44.2896 38.6091 44.3352 38.5913C45.9951 37.9145 47.5023 36.9127 48.7678 35.6448C48.7297 37.0548 48.2105 38.4095 47.2962 39.485C47.2655 39.5119 47.2445 39.5482 47.2365 39.5881C47.2285 39.6281 47.2339 39.6696 47.2519 39.7062C47.2664 39.7434 47.2921 39.7753 47.3254 39.7975C47.3587 39.8196 47.398 39.831 47.438 39.8301C49.8848 39.9274 50.4611 41.0246 50.5675 41.3166C50.1065 42.1218 46.2678 48.8377 44.8671 50.2181C43.4664 51.5984 41.2501 51.8639 39.61 51.8639C38.8768 51.865 38.1447 51.8088 37.4203 51.6957C37.37 51.6867 37.3182 51.6961 37.2742 51.7221C37.2303 51.7481 37.1972 51.789 37.1809 51.8373L36.4274 54.1379C36.4111 54.184 36.412 54.2344 36.4299 54.2799C36.4478 54.3254 36.4815 54.3629 36.5249 54.3856C39.7249 55.8808 43.2224 56.6341 46.7554 56.5889C47.4658 56.5922 48.1759 56.5597 48.8831 56.4916C48.9289 56.4841 48.971 56.4619 49.003 56.4284C49.035 56.3948 49.0552 56.3518 49.0604 56.3057C49.0636 56.2608 49.0525 56.2161 49.0286 56.1779C49.0047 56.1397 48.9692 56.1101 48.9274 56.0934C48.5755 55.9953 48.2502 55.8195 47.9755 55.5791C47.7008 55.3386 47.4838 55.0396 47.3405 54.7042C46.454 52.4036 48.6614 48.3422 50.0887 45.6523C50.3901 45.0772 50.6738 44.5551 50.8866 44.1127C51.3058 43.3852 51.8151 42.7134 52.4026 42.113C54.477 39.7505 57.3228 36.5208 52.6685 30.4243C52.5178 29.8315 50.3281 23.2306 41.1348 23.2306ZM52.11 41.8121C51.4979 42.4423 50.9678 43.1469 50.532 43.9092C50.3192 44.3428 50.0444 44.8648 49.743 45.4311C48.227 48.3776 46.0728 52.3771 46.977 54.8458C47.1815 55.4016 47.557 55.8786 48.0497 56.2084C47.704 56.2084 47.243 56.2084 46.6845 56.2084C43.2763 56.251 39.9008 55.5409 36.7997 54.129L37.4557 52.1913C38.1454 52.2937 38.8418 52.344 39.5391 52.3417C41.2589 52.3417 43.6082 52.032 45.0887 50.572C46.5692 49.112 50.727 41.8033 50.9043 41.4936C50.9179 41.4444 50.9179 41.3924 50.9043 41.3432C50.9043 41.2812 50.5054 39.7505 47.7749 39.5027C48.7136 38.2641 49.1873 36.736 49.1136 35.1847C49.1119 35.143 49.0974 35.1027 49.072 35.0695C49.0466 35.0362 49.0116 35.0116 48.9717 34.9989C48.9328 34.9857 48.8908 34.9846 48.8513 34.9957C48.8118 35.0067 48.7765 35.0294 48.7501 35.0608C47.4907 36.4356 45.9484 37.5222 44.2288 38.2462L42.7926 37.8038C43.4147 37.3401 44.0069 36.8377 44.5657 36.2996C44.593 36.2641 44.6078 36.2205 44.6078 36.1757C44.6078 36.1309 44.593 36.0874 44.5657 36.0519C44.541 36.0127 44.5046 35.9822 44.4617 35.9648C44.4187 35.9473 44.3714 35.9437 44.3263 35.9545C43.2157 36.2906 42.1454 36.7476 41.1348 37.3172C40.7802 37.0606 39.6632 36.4323 36.7022 36.0076C36.7997 35.7864 36.9859 35.4325 37.1366 35.1228C37.7394 33.9725 37.7483 33.9106 37.6774 33.7778C37.6614 33.7423 37.6352 33.7123 37.602 33.6918C37.5688 33.6713 37.5302 33.6612 37.4912 33.6628C37.3494 33.6628 37.3494 33.6628 36.5249 34.8485C36.2767 35.2113 35.9398 35.6891 35.8068 35.866C35.5942 35.8533 35.3811 35.8533 35.1685 35.866C34.5961 35.8098 34.0203 35.9318 33.5203 36.2154C33.0202 36.499 32.6205 36.9303 32.376 37.4499C32.1193 38.1062 32.0343 38.8169 32.1289 39.5151C32.2235 40.2132 32.4946 40.8758 32.9167 41.4405C34.1313 42.7943 33.2359 45.2807 32.3671 47.6343C31.7199 49.5367 31.0816 51.3064 31.4451 52.4744C29.6721 51.5896 23.688 48.4838 22.2962 44.0331C22.9702 43.989 23.6126 43.732 24.1306 43.2993C24.6485 42.8666 25.0151 42.2807 25.1774 41.6263C25.2572 41.3963 25.3635 41.0512 25.4877 40.6353C26.6579 36.6889 30.2217 24.7083 38.9096 23.7703C39.6484 23.6865 40.3913 23.6452 41.1348 23.6465C50.3724 23.6465 52.2784 30.5039 52.2962 30.5747V30.6455C56.8263 36.4854 54.2111 39.4585 52.1189 41.8387L52.11 41.8121Z" fill="#251853"/>
<path d="M40.6561 29.8315C39.4681 30.1854 37.0213 31.5304 36.3653 32.6364C36.3653 32.6364 36.8972 30.7163 40.8866 29.0971C41.3919 28.8847 41.8263 27.9379 38.9983 27.9645C38.9983 27.9645 39.6188 26.6991 36.5249 27.0796C32.7217 27.5663 30.7625 32.6983 30.7625 32.6983C30.7625 32.6983 31.782 29.2032 30.7625 28.3892C28.9894 27 29.4061 31.0437 28.6348 32.6541C27.1543 35.8307 27.9788 35.7599 27.5089 39.2107C27.0391 42.6616 26.8795 48.6519 27.3937 51.041L36.6047 53.6158C36.6047 53.6158 32.2695 43.7942 36.4096 41.644C39.4149 40.0867 38.4309 36.335 41.2057 33.8752C42.4646 32.7514 41.8883 31.8666 40.8068 32.3621C39.7252 32.8576 36.8529 35.9014 37.5 34.5565C38.1472 33.2115 39.5568 32.1763 41.7731 31.1056C43.9894 30.035 41.7997 29.4775 40.6561 29.8315Z" fill="white"/>
<path d="M41.4273 29.5218C41.1459 29.5182 40.8654 29.5539 40.5939 29.628C39.7888 29.9073 39.016 30.2721 38.289 30.7163C39.113 30.1216 40.006 29.6284 40.9486 29.2475C41.1024 29.1947 41.2341 29.0919 41.3225 28.9555C41.4109 28.8191 41.4509 28.6571 41.4361 28.4954C41.3386 27.991 40.5496 27.7344 39.2376 27.7167C39.248 27.5675 39.2107 27.4188 39.1312 27.292C38.8209 26.8053 37.9344 26.6549 36.4716 26.8407C33.9273 27.177 32.2074 29.4952 31.2943 31.0525C31.4539 29.973 31.4716 28.6989 30.8244 28.2034C30.6136 28.0063 30.3413 27.8876 30.0532 27.8671C29.2376 27.8671 29.0514 29.1059 28.8652 30.4066C28.7975 31.1349 28.6366 31.8516 28.3865 32.5391C27.697 33.7501 27.3593 35.1289 27.4113 36.5208C27.4234 37.4087 27.3671 38.2961 27.2429 39.1753C26.7819 42.6439 26.64 48.7315 27.1631 51.1029C27.1711 51.1383 27.1885 51.171 27.2135 51.1974C27.2384 51.2239 27.27 51.2432 27.3049 51.2533L36.5248 53.837H36.578C36.6083 53.8384 36.6385 53.8328 36.6662 53.8205C36.6939 53.8082 36.7183 53.7896 36.7376 53.7663C36.7562 53.734 36.7661 53.6974 36.7661 53.6601C36.7661 53.6228 36.7562 53.5862 36.7376 53.5539C36.7376 53.4566 32.5 43.8738 36.445 41.8387C38.1117 40.9538 38.5993 39.5027 39.1046 37.9277C39.4528 36.4566 40.2049 35.1114 41.2766 34.0433C41.906 33.4858 42.1631 32.893 42.0124 32.4594C41.8617 32.0259 41.2766 31.902 40.656 32.194C39.9617 32.6175 39.3139 33.1128 38.7234 33.6716C38.3865 33.9548 37.9698 34.3176 37.6861 34.5565C38.289 33.3973 39.5301 32.424 41.7907 31.3357C42.5886 30.9552 42.9432 30.5836 42.8546 30.2031C42.7659 29.8226 42.0212 29.5218 41.4273 29.5218ZM41.6844 30.9552C39.211 32.1409 37.9432 33.1673 37.3138 34.4945C37.2074 34.7158 37.1631 34.8927 37.2429 35.0254C37.2993 35.0907 37.3786 35.1319 37.4645 35.1405C37.7039 35.1405 38.0939 34.8219 39.0603 33.9902C39.6273 33.4633 40.2416 32.9894 40.8954 32.5745C41.0449 32.5013 41.2078 32.4592 41.3741 32.4506C41.4379 32.4444 41.5022 32.457 41.5589 32.4869C41.6156 32.5168 41.6623 32.5626 41.6932 32.6187C41.773 32.8134 41.6932 33.2292 41.0727 33.7513C39.9444 34.8647 39.1519 36.2719 38.7854 37.8127C38.2712 39.3611 37.828 40.6972 36.312 41.4847C32.4645 43.4668 35.4255 51.4214 36.25 53.3238L27.562 50.8994C27.0922 48.4926 27.234 42.6173 27.6861 39.2461C27.8027 38.3661 27.8589 37.4792 27.8546 36.5916C27.7916 35.2631 28.0985 33.9431 28.7411 32.778C29.013 32.0553 29.1859 31.2993 29.2553 30.5305C29.406 29.5041 29.5744 28.3449 30.0354 28.3449C30.2316 28.3705 30.4146 28.4572 30.5585 28.5927C31.3298 29.1855 30.789 31.7427 30.5585 32.6806C30.5502 32.7062 30.5471 32.7331 30.5493 32.7599C30.5516 32.7867 30.5591 32.8127 30.5714 32.8366C30.5838 32.8604 30.6008 32.8816 30.6214 32.8989C30.642 32.9162 30.6658 32.9292 30.6915 32.9372C30.7421 32.9521 30.7964 32.9476 30.8439 32.9247C30.8914 32.9018 30.9287 32.8621 30.9486 32.8134C30.9486 32.7603 32.9078 27.7875 36.5425 27.3185C36.8876 27.2477 37.2371 27.2004 37.5886 27.177C38.4751 27.177 38.7145 27.3893 38.7943 27.5132C38.8192 27.5626 38.8322 27.6171 38.8322 27.6725C38.8322 27.7278 38.8192 27.7823 38.7943 27.8317C38.7764 27.8627 38.767 27.8978 38.767 27.9335C38.767 27.9692 38.7764 28.0043 38.7943 28.0352C38.8157 28.0626 38.8425 28.0853 38.8729 28.1021C38.9034 28.1188 38.937 28.1292 38.9716 28.1326H39.1134C40.5496 28.1326 40.9929 28.4069 41.0195 28.575C41.0461 28.7431 40.9308 28.8051 40.7801 28.867C36.7464 30.5393 36.1613 32.5037 36.1347 32.5833C36.1234 32.6315 36.1286 32.6821 36.1495 32.7271C36.1703 32.772 36.2057 32.8086 36.25 32.8311C36.2975 32.851 36.3507 32.853 36.3996 32.8367C36.4485 32.8204 36.4899 32.787 36.5159 32.7426C37.1099 31.7339 39.4592 30.3978 40.6915 30.0261C40.9218 29.9592 41.1608 29.9264 41.4007 29.9288C42.0301 29.9288 42.4645 30.1146 42.4911 30.2562C42.5177 30.3978 42.3936 30.5836 41.6844 30.9552Z" fill="#251853"/>
<path d="M33.7058 31.1941L34.0781 31.3711C35.337 28.8051 38.9984 28.1326 39.0338 28.1237L38.9629 27.7256C38.8033 27.7521 35.0622 28.4334 33.7058 31.1941Z" fill="#251853"/>
<path d="M38.0563 43.0174C37.8701 43.0174 30.0776 42.4954 26.8151 41C24.1556 46.194 25.7602 54.7415 28.5261 60.4664C28.5261 60.4664 23.3754 49.0962 17.48 51.2022C13.7034 52.6179 8.04742 60.723 10.6715 64.7224C14.4038 70.4119 29.4747 79.9062 36.0527 75.6236C43.1449 70.9782 40.1307 58.3693 39.9446 51.1314C39.8525 48.3295 39.2109 45.5729 38.0563 43.0174Z" fill="#23548F"/>
<path d="M40.2482 51.563C40.1538 48.7397 39.5063 45.9621 38.3422 43.3871C38.3257 43.3531 38.3008 43.3238 38.2697 43.3021C38.2387 43.2804 38.2026 43.2671 38.1649 43.2633C38.0851 43.2633 30.1862 42.7412 27.0035 41.2724C26.9537 41.2527 26.8984 41.2517 26.8478 41.2696C26.7973 41.2875 26.755 41.3231 26.7287 41.3697C24.344 46.0416 25.3191 53.1469 27.4202 58.6682C26.0638 56.6154 23.9273 53.722 21.8262 52.1913C21.8041 52.1756 21.7791 52.1644 21.7527 52.1583C21.7262 52.1523 21.6988 52.1515 21.6721 52.156C21.6453 52.1605 21.6197 52.1703 21.5967 52.1847C21.5738 52.1991 21.5538 52.2178 21.5381 52.2399C21.5224 52.262 21.5112 52.2869 21.5051 52.3133C21.4991 52.3397 21.4983 52.3671 21.5028 52.3938C21.5073 52.4205 21.5171 52.446 21.5315 52.469C21.5459 52.4919 21.5648 52.5118 21.5869 52.5275C24.8582 54.9077 28.4486 61.0396 28.484 61.0396C28.5102 61.0862 28.5537 61.1207 28.6051 61.1356C28.6565 61.1505 28.7118 61.1446 28.7589 61.1192C28.8055 61.093 28.8405 61.0502 28.8569 60.9994C28.8734 60.9486 28.87 60.8934 28.8475 60.8449C26.0904 55.1201 24.6099 46.7495 27.0745 41.7148C30.2748 43.0686 37.0656 43.5818 38.0762 43.6526C39.1734 46.1473 39.7755 48.8307 39.8493 51.5542C39.8936 53.0141 40.0443 54.6953 40.2039 56.465C40.8422 63.4906 41.6401 72.2328 36.055 75.8783C30.0355 79.8424 16.3121 71.6576 11.711 66.0566C11.674 66.0249 11.6268 66.0074 11.578 66.0074C11.5292 66.0074 11.482 66.0249 11.445 66.0566C11.4019 66.0794 11.3688 66.1174 11.3524 66.1633C11.336 66.2092 11.3374 66.2595 11.3564 66.3044C12.4197 69.155 13.9771 71.7966 15.9574 74.1086C15.9939 74.1485 16.0447 74.1723 16.0987 74.1748C16.1528 74.1773 16.2056 74.1583 16.2456 74.1219C16.2855 74.0855 16.3094 74.0348 16.3119 73.9809C16.3144 73.9269 16.2953 73.8742 16.2589 73.8343C14.5654 71.8613 13.1951 69.6335 12.1986 67.2335C16.4982 71.8258 25.4965 77.356 32.0301 77.3471C33.5329 77.3992 35.0182 77.0117 36.3032 76.2322C42.0922 72.454 41.2855 63.5702 40.6383 56.4385C40.4699 54.6776 40.3191 53.0142 40.2482 51.563Z" fill="#251853"/>
<path d="M26.2764 56.6685C25.5495 57.1817 28.9892 62.7297 28.9892 62.7297L29.131 59.8362C29.131 59.8362 26.9945 56.1553 26.2764 56.6685Z" fill="#23548F"/>
<path d="M26.5604 56.4296C26.4915 56.4096 26.4189 56.4055 26.3482 56.4178C26.2775 56.4301 26.2106 56.4583 26.1526 56.5004C25.3813 57.0402 27.4912 60.7034 28.8121 62.8358C28.8307 62.8661 28.8567 62.8909 28.8878 62.908C28.9189 62.9251 28.954 62.9338 28.9894 62.9332C29.0245 62.9411 29.0608 62.9411 29.0958 62.9332C29.1197 62.9187 29.1405 62.8996 29.157 62.8771C29.1735 62.8545 29.1853 62.829 29.1919 62.8018C29.1985 62.7747 29.1997 62.7466 29.1954 62.719C29.191 62.6914 29.1813 62.665 29.1667 62.6412C27.3937 59.8362 26.1614 57.1906 26.3919 56.8632C26.3919 56.8632 26.3919 56.8632 26.4717 56.8632C27.0391 56.9871 28.2891 58.8364 28.9451 59.969C28.9772 60.0059 29.0211 60.0306 29.0693 60.039C29.1176 60.0474 29.1672 60.0389 29.2099 60.015C29.2526 59.9911 29.2858 59.9532 29.3037 59.9078C29.3217 59.8623 29.3234 59.812 29.3086 59.7655C29.1224 59.4115 27.4912 56.6155 26.5604 56.4296Z" fill="#23548F"/>
<path d="M46.0461 58.3851C45.3635 58.624 46.2589 61.5705 46.2589 61.5705L47.2075 60.1105C47.2075 60.1105 46.7288 58.1108 46.0461 58.3851Z" fill="#8585FF"/>
<path d="M46.4538 58.1904C46.3813 58.1582 46.3027 58.1416 46.2233 58.1416C46.1439 58.1416 46.0654 58.1582 45.9928 58.1904C45.2038 58.4647 45.7801 60.6857 46.0638 61.6325C46.0783 61.6753 46.1056 61.7127 46.142 61.7396C46.1785 61.7665 46.2223 61.7816 46.2677 61.7829H46.3209C46.3473 61.7758 46.3721 61.7634 46.3937 61.7465C46.4152 61.7297 46.4332 61.7086 46.4464 61.6847C46.4597 61.6607 46.4679 61.6343 46.4707 61.6071C46.4735 61.5799 46.4708 61.5524 46.4627 61.5263C46.0372 60.1017 45.8687 58.6771 46.1258 58.5886C46.1657 58.5729 46.2101 58.5729 46.2499 58.5886C46.5779 58.7656 46.8882 59.6416 47.0212 60.1459C47.0263 60.1728 47.0369 60.1983 47.0525 60.2208C47.0681 60.2433 47.0883 60.2622 47.1117 60.2764C47.1351 60.2906 47.1613 60.2997 47.1884 60.3032C47.2156 60.3066 47.2432 60.3043 47.2694 60.2964C47.2957 60.2901 47.3205 60.2788 47.3424 60.2629C47.3642 60.247 47.3827 60.227 47.3967 60.2039C47.4107 60.1809 47.42 60.1553 47.4241 60.1286C47.4281 60.1019 47.4267 60.0747 47.4201 60.0486C47.3404 59.8628 47.0301 58.509 46.4538 58.1904ZM46.4538 43.8207C46.3898 43.8765 46.3395 43.9464 46.3071 44.0248C46.2746 44.1032 46.2609 44.1881 46.2669 44.2728C46.2728 44.3574 46.2984 44.4395 46.3416 44.5126C46.3847 44.5857 46.4443 44.6479 46.5156 44.6941C46.5869 44.7403 46.6679 44.7695 46.7524 44.7791C46.8369 44.7888 46.9224 44.7788 47.0024 44.7499C47.0823 44.721 47.1544 44.674 47.2131 44.6126C47.2717 44.5511 47.3153 44.4769 47.3404 44.3959C47.4102 44.3411 47.4659 44.2705 47.5029 44.1899C47.54 44.1093 47.5572 44.0211 47.5532 43.9326C47.5492 43.844 47.5241 43.7577 47.48 43.6808C47.4359 43.6038 47.3741 43.5385 47.2996 43.4902C47.2252 43.4419 47.1402 43.412 47.0519 43.403C46.9635 43.394 46.8743 43.4062 46.7916 43.4385C46.7089 43.4708 46.6351 43.5223 46.5764 43.5888C46.5177 43.6553 46.4756 43.7348 46.4538 43.8207Z" fill="#251853"/>
<path d="M46.2412 43.7057C46.1174 43.8804 46.0667 44.0964 46.0998 44.3079C46.1329 44.5193 46.2472 44.7096 46.4185 44.8383C46.5263 44.9091 46.6529 44.946 46.782 44.9445C46.9321 44.939 47.0784 44.8955 47.2072 44.8181C47.3359 44.7408 47.4428 44.632 47.5178 44.502C47.5844 44.4151 47.6327 44.3156 47.6599 44.2095C47.6871 44.1035 47.6926 43.9931 47.6761 43.8849C47.6595 43.7766 47.6212 43.6729 47.5636 43.5798C47.5059 43.4866 47.4301 43.4061 47.3405 43.3429C47.1441 43.2618 46.9251 43.2539 46.7233 43.3204C46.5215 43.387 46.3504 43.5238 46.2412 43.7057ZM47.1277 44.2808C47.0786 44.3733 46.9981 44.4454 46.9008 44.4843C46.8034 44.5232 46.6953 44.5263 46.5958 44.4932C46.5241 44.4163 46.4843 44.3151 46.4843 44.2101C46.4843 44.105 46.5241 44.0038 46.5958 43.9269C46.6344 43.8578 46.6893 43.7991 46.7557 43.7559C46.8221 43.7128 46.8981 43.6864 46.977 43.6791C47.0277 43.6791 47.0772 43.6945 47.1189 43.7234C47.1975 43.7919 47.2469 43.8878 47.2568 43.9915C47.2667 44.0952 47.2363 44.1988 47.172 44.2808H47.1277ZM41.2501 41.1308C41.1951 41.1911 41.154 41.2627 41.1297 41.3406C41.1054 41.4184 41.0986 41.5007 41.1096 41.5814C41.1206 41.6622 41.1493 41.7396 41.1936 41.8082C41.2378 41.8767 41.2966 41.9347 41.3658 41.9781C41.4349 42.0215 41.5128 42.0492 41.5939 42.0593C41.6749 42.0694 41.7572 42.0616 41.835 42.0365C41.9127 42.0114 41.984 41.9696 42.0437 41.914C42.1035 41.8584 42.1503 41.7904 42.1809 41.7148C42.2331 41.6498 42.2715 41.5749 42.294 41.4947C42.3165 41.4145 42.3226 41.3305 42.3118 41.2479C42.301 41.1653 42.2737 41.0857 42.2314 41.0139C42.1891 40.9421 42.1327 40.8795 42.0657 40.83C41.9924 40.7959 41.9131 40.7766 41.8323 40.7732C41.7515 40.7699 41.6708 40.7826 41.595 40.8106C41.5191 40.8386 41.4496 40.8813 41.3904 40.9362C41.3312 40.9912 41.2835 41.0573 41.2501 41.1308Z" fill="#251853"/>
<path d="M42.172 40.6884C41.9786 40.6049 41.7618 40.5929 41.5603 40.6545C41.3589 40.7162 41.186 40.8474 41.0727 41.0246C40.9489 41.1994 40.8982 41.4154 40.9313 41.6268C40.9644 41.8383 41.0787 42.0285 41.25 42.1572C41.3583 42.227 41.4846 42.2639 41.6135 42.2634C41.7496 42.2557 41.8825 42.2191 42.0033 42.156C42.1241 42.093 42.23 42.0049 42.3139 41.8976C42.3978 41.7904 42.4579 41.6665 42.49 41.5343C42.5221 41.4021 42.5255 41.2645 42.5 41.1308C42.4782 41.0388 42.4379 40.9521 42.3815 40.876C42.3251 40.8 42.2538 40.7362 42.172 40.6884ZM42.0213 41.5732C41.9735 41.6668 41.8927 41.7394 41.7945 41.7769C41.6963 41.8145 41.5876 41.8145 41.4894 41.7768C41.4183 41.7013 41.3788 41.6016 41.3788 41.498C41.3788 41.3945 41.4183 41.2948 41.4894 41.2193C41.5294 41.1495 41.5858 41.0905 41.6538 41.0473C41.7217 41.0042 41.7992 40.9782 41.8794 40.9716C41.93 40.9725 41.9792 40.9879 42.0213 41.0158C42.0513 41.0362 42.0769 41.0624 42.0967 41.0928C42.1164 41.1231 42.13 41.1571 42.1365 41.1928C42.1452 41.2607 42.1395 41.3297 42.1196 41.3953C42.0998 41.4608 42.0663 41.5215 42.0213 41.5732Z" fill="#251853"/>
<path d="M96.64 44.3605H61.4715C60.866 44.361 60.2764 44.5544 59.7885 44.9125C59.3006 45.2705 58.9399 45.7746 58.7588 46.3513L51.3386 70.1888C51.2527 70.4634 51.2336 70.7545 51.2827 71.0379C51.3318 71.3214 51.4477 71.5891 51.6209 71.819C51.7941 72.049 52.0196 72.2345 52.2788 72.3603C52.538 72.486 52.8235 72.5485 53.1116 72.5425H88.28C88.8761 72.534 89.4542 72.3378 89.9318 71.9818C90.4094 71.6259 90.7621 71.1284 90.9396 70.5604L98.3598 46.723C98.444 46.4522 98.4637 46.1655 98.4173 45.8858C98.371 45.6061 98.2599 45.341 98.093 45.1116C97.926 44.8822 97.7077 44.6949 97.4555 44.5645C97.2032 44.4341 96.924 44.3643 96.64 44.3605Z" fill="white"/>
<path d="M96.64 44.1569H61.4715C60.8216 44.1532 60.1877 44.3586 59.6639 44.7427C59.1401 45.1268 58.7543 45.6692 58.5637 46.2894L51.1435 70.1269C51.0438 70.432 51.0182 70.7563 51.0686 71.0733C51.1191 71.3902 51.2443 71.6906 51.4339 71.9498C51.6235 72.209 51.872 72.4196 52.1591 72.5642C52.4461 72.7087 52.7635 72.7832 53.085 72.7814H88.2534C88.9034 72.7841 89.5367 72.5771 90.0592 72.1912C90.5816 71.8053 90.965 71.2612 91.1524 70.6401L98.5815 46.8114C98.6695 46.5125 98.6874 46.1973 98.6335 45.8904C98.5797 45.5835 98.4557 45.2931 98.2712 45.0418C98.091 44.7739 97.8485 44.5535 97.5644 44.3994C97.2804 44.2453 96.9632 44.1621 96.64 44.1569ZM98.1825 46.661L90.78 70.4985C90.6087 71.0295 90.274 71.4931 89.8237 71.8235C89.3733 72.1539 88.8301 72.3342 88.2712 72.339H53.085C52.8276 72.3388 52.574 72.2767 52.3456 72.1582C52.1173 72.0396 51.9208 71.8679 51.7729 71.6576C51.62 71.4558 51.5183 71.2199 51.4766 70.9703C51.4349 70.7207 51.4545 70.4646 51.5336 70.2242L58.9538 46.3867C59.1166 45.8506 59.449 45.3815 59.9013 45.0497C60.3536 44.7179 60.9014 44.5413 61.4627 44.5463H96.6311C96.8841 44.546 97.1336 44.6051 97.3595 44.7189C97.5854 44.8326 97.7814 44.9978 97.9315 45.201C98.0816 45.4043 98.1818 45.6399 98.2238 45.8889C98.2659 46.1379 98.2487 46.3933 98.1736 46.6345L98.1825 46.661Z" fill="#251853"/>
<path d="M96.7554 45.1126H62.4557C61.8589 45.123 61.2806 45.321 60.8031 45.6784C60.3256 46.0359 59.9732 46.5345 59.7961 47.1034L52.3759 70.9321C52.2904 71.2071 52.2715 71.4985 52.3206 71.7823C52.3697 72.0662 52.4855 72.3343 52.6585 72.5648C52.8315 72.7953 53.0568 72.9816 53.3159 73.1085C53.5749 73.2353 53.8604 73.2991 54.149 73.2946H88.4486C89.053 73.2935 89.6413 73.0998 90.1276 72.7417C90.614 72.3835 90.9731 71.8797 91.1525 71.3037L98.5727 47.4751C98.6596 47.1963 98.6781 46.9009 98.6267 46.6135C98.5753 46.3262 98.4555 46.0553 98.2774 45.8238C98.0993 45.5923 97.8681 45.4068 97.6032 45.2831C97.3383 45.1593 97.0476 45.1008 96.7554 45.1126Z" fill="#CAD1FF"/>
<path d="M96.7553 44.9356H62.4557C61.8058 44.9329 61.1724 45.1399 60.6499 45.5258C60.1275 45.9117 59.7441 46.4557 59.5567 47.0769L52.1365 70.9055C52.0444 71.2034 52.0237 71.5188 52.0761 71.8262C52.1284 72.1336 52.2524 72.4244 52.4379 72.6752C52.626 72.9306 52.8716 73.1382 53.155 73.2812C53.4384 73.4241 53.7516 73.4984 54.0691 73.4981H88.3688C89.0172 73.5 89.6491 73.2937 90.1711 72.9097C90.6931 72.5257 91.0776 71.9844 91.2677 71.3656L98.6879 47.5282C98.7808 47.2303 98.8018 46.9148 98.7495 46.6073C98.6971 46.2998 98.5727 46.009 98.3865 45.7585C98.1995 45.502 97.9541 45.2937 97.6704 45.1506C97.3868 45.0075 97.0731 44.9338 96.7553 44.9356ZM98.2979 47.4485L90.8777 71.2771C90.7078 71.8098 90.3738 72.2753 89.9233 72.6074C89.4728 72.9394 88.9288 73.1211 88.3688 73.1265H54.0691C53.8158 73.1284 53.5657 73.069 53.3403 72.9534C53.1149 72.8379 52.9208 72.6695 52.7748 72.4628C52.623 72.2604 52.5214 72.025 52.4782 71.7759C52.4351 71.5267 52.4517 71.2709 52.5266 71.0294L59.9468 47.2008C60.1167 46.6681 60.4506 46.2026 60.9011 45.8705C61.3516 45.5385 61.8957 45.3568 62.4557 45.3515H96.7553C97.0077 45.35 97.2568 45.4087 97.4819 45.5225C97.707 45.6364 97.9016 45.8022 98.0496 46.0062C98.2016 46.2103 98.3032 46.4472 98.3463 46.6978C98.3894 46.9484 98.3728 47.2055 98.2979 47.4485Z" fill="#251853"/>
<path d="M92.4467 67.5343H53.2268C53.0528 67.5343 52.886 67.6033 52.7629 67.7261C52.6399 67.8489 52.5708 68.0154 52.5708 68.1891C52.5708 68.3627 52.6399 68.5293 52.7629 68.6521C52.886 68.7749 53.0528 68.8439 53.2268 68.8439H92.4467C92.6207 68.8439 92.7875 68.7749 92.9106 68.6521C93.0336 68.5293 93.1027 68.3627 93.1027 68.1891C93.1027 68.0154 93.0336 67.8489 92.9106 67.7261C92.7875 67.6033 92.6207 67.5343 92.4467 67.5343Z" fill="#6243CB"/>
<path d="M92.4467 67.3219H53.2269C52.9917 67.3219 52.7662 67.4152 52.6 67.5811C52.4337 67.747 52.3403 67.9721 52.3403 68.2068C52.3403 68.4414 52.4337 68.6665 52.6 68.8324C52.7662 68.9984 52.9917 69.0916 53.2269 69.0916H92.4467C92.6818 69.0916 92.9073 68.9984 93.0736 68.8324C93.2398 68.6665 93.3332 68.4414 93.3332 68.2068C93.3332 67.9721 93.2398 67.747 93.0736 67.5811C92.9073 67.4152 92.6818 67.3219 92.4467 67.3219ZM92.4467 68.6315H53.2269C53.1679 68.6327 53.1093 68.6221 53.0545 68.6004C52.9997 68.5787 52.9498 68.5463 52.9077 68.5051C52.8656 68.4639 52.8321 68.4147 52.8093 68.3604C52.7865 68.3062 52.7747 68.2479 52.7747 68.1891C52.7747 68.1298 52.7864 68.0711 52.8091 68.0164C52.8319 67.9616 52.8652 67.9119 52.9072 67.87C52.9491 67.8281 52.999 67.7948 53.0538 67.7722C53.1087 67.7495 53.1675 67.7378 53.2269 67.7378H92.4467C92.5057 67.7378 92.5641 67.7495 92.6184 67.7723C92.6728 67.7951 92.722 67.8285 92.7633 67.8705C92.8046 67.9125 92.8371 67.9623 92.8588 68.017C92.8806 68.0718 92.8912 68.1302 92.89 68.1891C92.89 68.3064 92.8433 68.4189 92.7601 68.5019C92.677 68.5849 92.5643 68.6315 92.4467 68.6315Z" fill="#251853"/>
<path d="M74.9025 76.0818H60.1596C60.091 76.0623 60.0188 76.0589 59.9487 76.0719C59.8785 76.0849 59.8124 76.114 59.7554 76.1569C59.6984 76.1998 59.6522 76.2553 59.6204 76.319C59.5886 76.3828 59.572 76.453 59.572 76.5242C59.572 76.5954 59.5886 76.6657 59.6204 76.7294C59.6522 76.7932 59.6984 76.8487 59.7554 76.8916C59.8124 76.9344 59.8785 76.9636 59.9487 76.9766C60.0188 76.9896 60.091 76.9862 60.1596 76.9667H74.9025C74.9711 76.9862 75.0434 76.9896 75.1135 76.9766C75.1837 76.9636 75.2498 76.9344 75.3068 76.8916C75.3637 76.8487 75.41 76.7932 75.4418 76.7294C75.4736 76.6657 75.4902 76.5954 75.4902 76.5242C75.4902 76.453 75.4736 76.3828 75.4418 76.319C75.41 76.2553 75.3637 76.1998 75.3068 76.1569C75.2498 76.114 75.1837 76.0849 75.1135 76.0719C75.0434 76.0589 74.9711 76.0623 74.9025 76.0818Z" fill="#6243CB"/>
<path d="M74.9024 75.8871H60.1595C60.0663 75.8764 59.972 75.8854 59.8825 75.9136C59.7931 75.9418 59.7107 75.9885 59.6406 76.0508C59.5706 76.113 59.5146 76.1894 59.4762 76.2748C59.4378 76.3602 59.418 76.4527 59.418 76.5463C59.418 76.64 59.4378 76.7325 59.4762 76.8179C59.5146 76.9033 59.5706 76.9797 59.6406 77.0419C59.7107 77.1042 59.7931 77.1509 59.8825 77.1791C59.972 77.2073 60.0663 77.2163 60.1595 77.2055H74.9024C74.9956 77.2163 75.09 77.2073 75.1794 77.1791C75.2688 77.1509 75.3512 77.1042 75.4213 77.0419C75.4913 76.9797 75.5474 76.9033 75.5857 76.8179C75.6241 76.7325 75.644 76.64 75.644 76.5463C75.644 76.4527 75.6241 76.3602 75.5857 76.2748C75.5474 76.1894 75.4913 76.113 75.4213 76.0508C75.3512 75.9885 75.2688 75.9418 75.1794 75.9136C75.09 75.8854 74.9956 75.8764 74.9024 75.8871ZM74.9024 76.772H60.1595C60.1006 76.7609 60.0474 76.7297 60.0092 76.6836C59.9709 76.6376 59.9499 76.5796 59.9499 76.5198C59.9499 76.46 59.9709 76.402 60.0092 76.356C60.0474 76.3099 60.1006 76.2787 60.1595 76.2676H74.9024C74.9396 76.2607 74.9778 76.2619 75.0144 76.2714C75.051 76.2808 75.085 76.2982 75.1141 76.3223C75.1432 76.3464 75.1666 76.3766 75.1826 76.4107C75.1987 76.4448 75.207 76.4821 75.207 76.5198C75.207 76.5575 75.1987 76.5948 75.1826 76.6289C75.1666 76.663 75.1432 76.6932 75.1141 76.7173C75.085 76.7414 75.051 76.7588 75.0144 76.7682C74.9778 76.7777 74.9396 76.779 74.9024 76.772Z" fill="#251853"/>
<path d="M79.8491 67.5343H68.5548L69.6541 73.9228C69.7139 74.2987 69.692 74.683 69.5899 75.0497C69.4878 75.4164 69.3079 75.7569 69.0623 76.0481C68.8168 76.3393 68.5114 76.5744 68.1669 76.7375C67.8224 76.9005 67.4467 76.9878 67.0654 76.9932H78.1381C78.5488 76.9925 78.9545 76.9025 79.3268 76.7294C79.6992 76.5564 80.0293 76.3045 80.2942 75.9912C80.5591 75.678 80.7525 75.3109 80.8609 74.9155C80.9693 74.5201 80.9901 74.1058 80.9218 73.7016L79.8491 67.5343Z" fill="#6243CB"/>
<path d="M80.0264 67.3219H68.3066L69.4502 73.9582C69.5078 74.305 69.4895 74.6601 69.3965 74.9992C69.3034 75.3382 69.1379 75.6531 68.9113 75.9222C68.6847 76.1913 68.4023 76.4082 68.0836 76.5579C67.765 76.7077 67.4176 76.7867 67.0654 76.7897V77.1967H78.147C78.5879 77.1954 79.0232 77.098 79.4225 76.9116C79.8219 76.7251 80.1757 76.4539 80.4593 76.117C80.7429 75.78 80.9494 75.3854 81.0645 74.9606C81.1796 74.5358 81.2005 74.091 81.1257 73.6574L80.0264 67.3219ZM80.1417 75.8694C79.8908 76.1494 79.5833 76.373 79.2395 76.5255C78.8956 76.678 78.5233 76.756 78.147 76.7543H68.5282C69.0148 76.4582 69.4014 76.0236 69.6384 75.5064C69.8754 74.9892 69.9519 74.413 69.858 73.852L68.7942 67.6582H79.6807L80.7179 73.6662C80.7916 74.0531 80.7782 74.4515 80.6785 74.8326C80.5788 75.2137 80.3955 75.5679 80.1417 75.8694Z" fill="#251853"/>
<path d="M96.0017 46.7938H91.6666C91.451 46.7934 91.2408 46.8619 91.067 46.9893C90.8931 47.1167 90.7646 47.2962 90.7003 47.5016L89.8138 50.2358C89.7822 50.3625 89.7791 50.4947 89.8048 50.6227C89.8304 50.7508 89.8842 50.8716 89.9622 50.9765C90.0401 51.0814 90.1404 51.1677 90.2557 51.2294C90.3711 51.291 90.4987 51.3264 90.6294 51.333H94.9911C95.2068 51.3333 95.4169 51.2648 95.5907 51.1375C95.7646 51.0101 95.8931 50.8306 95.9574 50.6251L96.8439 47.891C96.8759 47.7621 96.8784 47.6277 96.8512 47.4978C96.8241 47.3679 96.768 47.2457 96.6871 47.1403C96.6062 47.0349 96.5026 46.9491 96.384 46.8891C96.2653 46.8291 96.1347 46.7965 96.0017 46.7938Z" fill="#6243CB"/>
<path d="M96.0018 46.5814H91.6667C91.4016 46.5812 91.1438 46.6676 90.9325 46.8274C90.7212 46.9871 90.5681 47.2115 90.4965 47.4662L89.61 50.2004C89.5597 50.3586 89.5475 50.5264 89.5746 50.6902C89.6017 50.854 89.6671 51.0091 89.7656 51.1428C89.8642 51.2765 89.993 51.3851 90.1416 51.4597C90.2902 51.5342 90.4543 51.5727 90.6206 51.5719H94.9823C95.2459 51.5701 95.5017 51.4829 95.7112 51.3232C95.9207 51.1636 96.0725 50.9403 96.1437 50.687L97.0302 47.9529C97.0785 47.7947 97.0892 47.6275 97.0613 47.4645C97.0334 47.3015 96.9678 47.1473 96.8696 47.0141C96.7715 46.8809 96.6435 46.7724 96.4959 46.6973C96.3483 46.6222 96.1852 46.5825 96.0196 46.5814H96.0018ZM96.6135 47.829L95.727 50.5632C95.6759 50.7274 95.5734 50.871 95.4346 50.9729C95.2959 51.0748 95.128 51.1296 94.9557 51.1295H90.594C90.4919 51.1302 90.3911 51.1065 90.3001 51.0603C90.2091 51.0141 90.1305 50.9468 90.071 50.864C90.0101 50.7845 89.9694 50.6915 89.9524 50.5928C89.9355 50.4942 89.9427 50.3929 89.9735 50.2977L90.86 47.5636C90.9111 47.3993 91.0136 47.2558 91.1523 47.1539C91.2911 47.052 91.459 46.9971 91.6313 46.9973H95.993C96.0951 46.9965 96.1958 47.0203 96.2869 47.0665C96.3779 47.1126 96.4565 47.18 96.516 47.2627C96.5776 47.3419 96.6187 47.4349 96.6357 47.5337C96.6527 47.6325 96.6451 47.7339 96.6135 47.829Z" fill="#251853"/>
<path d="M92.4113 47.537C92.19 47.5446 91.9777 47.6265 91.8088 47.7694C91.6399 47.9123 91.5242 48.1079 91.4804 48.3245C91.4604 48.4209 91.4625 48.5205 91.4863 48.616C91.5102 48.7115 91.5554 48.8004 91.6184 48.876C91.6814 48.9517 91.7607 49.0122 91.8504 49.0531C91.9401 49.0939 92.0379 49.1141 92.1365 49.112C92.3573 49.1029 92.5688 49.0205 92.7374 48.8779C92.906 48.7352 93.0221 48.5405 93.0673 48.3245C93.0891 48.228 93.0884 48.1277 93.0652 48.0315C93.042 47.9353 92.997 47.8456 92.9336 47.7695C92.8702 47.6934 92.7902 47.6329 92.6996 47.5926C92.609 47.5523 92.5104 47.5333 92.4113 47.537Z" fill="white"/>
<path d="M92.4113 47.3246C92.1403 47.332 91.88 47.4317 91.6736 47.6072C91.4671 47.7826 91.3271 48.0232 91.2766 48.2891C91.2526 48.4163 91.2568 48.5472 91.2889 48.6725C91.3211 48.7979 91.3804 48.9147 91.4627 49.0147C91.5468 49.1102 91.6505 49.1865 91.7668 49.2384C91.883 49.2903 92.0091 49.3166 92.1365 49.3155C92.4063 49.3086 92.6656 49.2101 92.8719 49.0365C93.0781 48.8628 93.219 48.6241 93.2713 48.3599C93.2966 48.2314 93.2931 48.0988 93.2609 47.9718C93.2287 47.8448 93.1687 47.7265 93.0851 47.6255C93.001 47.53 92.8973 47.4537 92.7811 47.4018C92.6648 47.3498 92.5387 47.3235 92.4113 47.3246ZM92.1365 48.8997C92.0699 48.9028 92.0034 48.891 91.942 48.8649C91.8806 48.8389 91.8259 48.7993 91.7819 48.7492C91.7372 48.6959 91.7053 48.6332 91.6884 48.5657C91.6715 48.4983 91.6701 48.4279 91.6844 48.3599C91.7196 48.1908 91.8101 48.0382 91.9417 47.9261C92.0733 47.814 92.2385 47.7487 92.4113 47.7405C92.478 47.7373 92.5445 47.7492 92.6059 47.7753C92.6673 47.8013 92.722 47.8409 92.7659 47.8909C92.8113 47.9456 92.8437 48.0099 92.8606 48.0788C92.8775 48.1478 92.8785 48.2197 92.8635 48.2891C92.8265 48.4566 92.7353 48.6072 92.6038 48.7176C92.4724 48.828 92.3081 48.892 92.1365 48.8997Z" fill="#0E0E27"/>
<path d="M94.9113 47.537C94.6973 47.5527 94.4945 47.6383 94.3342 47.7807C94.1739 47.923 94.0652 48.1142 94.0248 48.3245C94.0013 48.4205 94.0005 48.5206 94.0225 48.6169C94.0445 48.7132 94.0886 48.8032 94.1514 48.8795C94.2141 48.9559 94.2938 49.0167 94.3842 49.057C94.4745 49.0974 94.5731 49.1162 94.6719 49.112C94.8854 49.0949 95.0875 49.0088 95.2475 48.8667C95.4075 48.7245 95.5167 48.5342 95.5585 48.3245C95.5819 48.2285 95.5827 48.1284 95.5607 48.0321C95.5388 47.9358 95.4946 47.8459 95.4319 47.7695C95.3691 47.6931 95.2894 47.6323 95.199 47.592C95.1087 47.5516 95.0102 47.5328 94.9113 47.537Z" fill="white"/>
<path d="M94.9112 47.3247C94.6402 47.332 94.3799 47.4317 94.1734 47.6072C93.967 47.7826 93.8269 48.0233 93.7765 48.2891C93.7557 48.4166 93.7632 48.5471 93.7984 48.6713C93.8336 48.7956 93.8956 48.9107 93.9801 49.0085C94.0646 49.1063 94.1695 49.1845 94.2875 49.2376C94.4054 49.2906 94.5336 49.3172 94.663 49.3155C94.9328 49.3086 95.1921 49.2102 95.3984 49.0365C95.6046 48.8628 95.7455 48.6242 95.7977 48.3599C95.8231 48.2314 95.8196 48.0988 95.7874 47.9718C95.7552 47.8448 95.6951 47.7265 95.6116 47.6255C95.5246 47.5265 95.4166 47.4481 95.2954 47.3961C95.1743 47.3441 95.043 47.3196 94.9112 47.3247ZM94.6275 48.8997C94.5611 48.901 94.4952 48.8883 94.4341 48.8624C94.3729 48.8365 94.318 48.7979 94.2729 48.7492C94.2309 48.6946 94.2012 48.6315 94.1859 48.5643C94.1706 48.4971 94.17 48.4274 94.1843 48.3599C94.218 48.1901 94.3081 48.0367 94.44 47.9243C94.5719 47.8119 94.7379 47.7472 94.9112 47.7405C94.9776 47.7392 95.0436 47.7519 95.1047 47.7778C95.1658 47.8037 95.2207 47.8423 95.2658 47.891C95.3076 47.9475 95.337 48.0121 95.3523 48.0807C95.3675 48.1493 95.3683 48.2203 95.3545 48.2891C95.3176 48.4566 95.2263 48.6072 95.0948 48.7176C94.9634 48.828 94.7991 48.892 94.6275 48.8997ZM93.3066 49.5368C93.1813 49.5424 93.0616 49.59 92.9667 49.6719C92.8718 49.7538 92.8073 49.8651 92.7835 49.988C92.7714 50.0418 92.7717 50.0977 92.7845 50.1514C92.7972 50.2051 92.822 50.2551 92.8571 50.2978C92.8921 50.3404 92.9365 50.3746 92.9867 50.3976C93.0369 50.4205 93.0918 50.4318 93.147 50.4304C93.2711 50.4252 93.3898 50.3789 93.4846 50.2988C93.5793 50.2186 93.6446 50.1093 93.6701 49.988C93.6838 49.9336 93.6847 49.8767 93.6727 49.8219C93.6607 49.7671 93.6361 49.7158 93.6009 49.6721C93.5657 49.6283 93.5208 49.5933 93.4697 49.5699C93.4186 49.5464 93.3628 49.5351 93.3066 49.5368Z" fill="#0E0E27"/>
<path d="M93.3068 49.3509C93.1325 49.3544 92.9649 49.4179 92.8323 49.5309C92.6998 49.6438 92.6106 49.7991 92.5798 49.9703C92.561 50.0541 92.5624 50.1411 92.584 50.2242C92.6055 50.3073 92.6467 50.3841 92.7039 50.4481C92.7576 50.5133 92.8254 50.5655 92.9021 50.6008C92.9789 50.636 93.0627 50.6534 93.1472 50.6517C93.3202 50.6486 93.4869 50.5863 93.6192 50.4751C93.7516 50.364 93.8416 50.2107 93.8742 50.0411C93.8913 49.9573 93.8895 49.8708 93.8689 49.7878C93.8483 49.7047 93.8094 49.6274 93.755 49.5613C93.7007 49.4951 93.6322 49.442 93.5547 49.4056C93.4772 49.3692 93.3925 49.3505 93.3068 49.3509ZM93.0142 50.1827C92.9955 50.1373 92.9955 50.0865 93.0142 50.0411C93.0283 49.966 93.0676 49.8979 93.1256 49.848C93.1836 49.7982 93.2569 49.7695 93.3334 49.7668C93.358 49.7659 93.3826 49.7702 93.4055 49.7794C93.4284 49.7885 93.4491 49.8023 93.4664 49.8199C93.4851 49.8652 93.4851 49.9161 93.4664 49.9615C93.4398 50.165 93.1206 50.3066 93.0142 50.1827Z" fill="#0E0E27"/>
<path d="M99.7871 77.0817H0.212646V80.4883H99.7871V77.0817Z" fill="white"/>
<path d="M99.7872 76.8782H0.212768C0.157841 76.8781 0.105023 76.8993 0.0653674 76.9372C0.0257113 76.9751 0.00228866 77.0269 9.11725e-08 77.0817V80.506C-2.59512e-05 80.5335 0.00552729 80.5607 0.0163242 80.586C0.027121 80.6113 0.0429378 80.6341 0.0628209 80.6531C0.0827039 80.6721 0.106242 80.6869 0.132013 80.6966C0.157784 80.7063 0.185254 80.7107 0.212768 80.7095H99.7872C99.8148 80.7107 99.8422 80.7063 99.868 80.6966C99.8938 80.6869 99.9173 80.6721 99.9372 80.6531C99.9571 80.6341 99.9729 80.6113 99.9837 80.586C99.9945 80.5607 100 80.5335 100 80.506V77.0905C100 77.0342 99.9776 76.9802 99.9377 76.9404C99.8978 76.9005 99.8437 76.8782 99.7872 76.8782ZM99.5833 80.2936H0.416668V77.294H99.5833V80.2936Z" fill="#0E0E27"/>
<path d="M3.66138 80.5591L3.68797 91.7257H96.9415L96.9149 80.5591H3.66138Z" fill="#23548F"/>
<path d="M3.38647 80.2848V92H97.2251V80.2848H3.38647ZM3.97158 91.4514V80.8334H96.64V91.4514H3.97158Z" fill="#251853"/>
<path d="M30.8066 77.0817H0.212646V80.4883H30.8066V77.0817Z" fill="#CAD1FF"/>
<path d="M30.8067 76.8782H0.212768C0.157841 76.8781 0.105023 76.8993 0.0653674 76.9372C0.0257113 76.9751 0.00228866 77.0269 9.11725e-08 77.0817V80.506C-2.59512e-05 80.5335 0.0055273 80.5607 0.0163242 80.586C0.027121 80.6113 0.0429379 80.6341 0.0628209 80.6531C0.0827039 80.6721 0.106242 80.6869 0.132013 80.6966C0.157784 80.7063 0.185254 80.7107 0.212768 80.7095H30.8067C30.8608 80.7095 30.9127 80.6881 30.9509 80.6499C30.9892 80.6117 31.0106 80.56 31.0106 80.506V77.0905C31.0118 77.0631 31.0074 77.0357 30.9977 77.0099C30.988 76.9842 30.9732 76.9607 30.9541 76.9409C30.9351 76.921 30.9122 76.9052 30.8869 76.8945C30.8615 76.8837 30.8343 76.8781 30.8067 76.8782ZM30.6028 80.2936H0.416668V77.294H30.6028V80.2936Z" fill="#251853"/>
<path d="M3.62598 80.5591L3.72349 91.7257H27.9965L27.899 80.5591H3.62598Z" fill="#251853"/>
<path d="M3.42188 80.3467L3.51939 91.9292H28.2002L28.1027 80.3467H3.42188ZM3.9006 91.5133L3.80308 80.7626H27.6949L27.7836 91.5133H3.9006Z" fill="#251853"/>
<path d="M96.3853 36.788C96.6506 27.2477 89.117 19.2991 79.5585 19.0343C70 18.7695 62.0363 26.2887 61.7709 35.829C61.5056 45.3692 69.0392 53.3178 78.5977 53.5827C88.1562 53.8475 96.1199 46.3282 96.3853 36.788Z" fill="white"/>
<path d="M79.0781 18.8152C75.6117 18.8152 72.2231 19.8412 69.3409 21.7634C66.4586 23.6856 64.2122 26.4176 62.8857 29.6141C61.5591 32.8106 61.212 36.3279 61.8883 39.7212C62.5646 43.1145 64.2338 46.2315 66.6849 48.678C69.1361 51.1245 72.259 52.7905 75.6589 53.4655C79.0587 54.1405 82.5827 53.7941 85.7853 52.4701C88.9878 51.146 91.7251 48.9039 93.651 46.0271C95.5768 43.1504 96.6047 39.7683 96.6047 36.3084C96.6 31.6704 94.752 27.2237 91.4661 23.9441C88.1803 20.6645 83.725 18.8199 79.0781 18.8152ZM79.0781 53.3858C75.6941 53.3858 72.3861 52.3842 69.5723 50.5077C66.7586 48.6312 64.5656 45.9641 63.2706 42.8437C61.9756 39.7232 61.6368 36.2895 62.2969 32.9768C62.9571 29.6641 64.5867 26.6213 66.9796 24.233C69.3724 21.8446 72.4211 20.2182 75.7401 19.5593C79.0591 18.9003 82.4994 19.2385 85.6258 20.5311C88.7522 21.8236 91.4244 24.0124 93.3045 26.8208C95.1846 29.6291 96.1881 32.9309 96.1881 36.3084C96.1834 40.8362 94.3792 45.1772 91.1715 48.3788C87.9638 51.5804 83.6145 53.3811 79.0781 53.3858Z" fill="#251853"/>
<path d="M79.8049 23.558H78.3687C76.8011 23.5603 75.2985 24.1829 74.1901 25.2892C73.0817 26.3955 72.4579 27.8953 72.4556 29.4598V32.7249H74.4148V29.4598C74.4148 28.4132 74.8314 27.4094 75.5729 26.6693C76.3144 25.9293 77.32 25.5135 78.3687 25.5135H79.8226C80.8712 25.5135 81.8769 25.9293 82.6184 26.6693C83.3599 27.4094 83.7765 28.4132 83.7765 29.4598V32.7249H85.7357V29.4598C85.7345 28.6836 85.5802 27.9153 85.2815 27.1986C84.9828 26.4819 84.5457 25.831 83.9949 25.2829C83.4442 24.7349 82.7907 24.3005 82.0718 24.0045C81.3528 23.7086 80.5825 23.5568 79.8049 23.558Z" fill="#CAD1FF"/>
<path d="M79.8049 23.3545H78.3687C76.7471 23.3568 75.1926 24.0008 74.0459 25.1453C72.8993 26.2897 72.2541 27.8413 72.2517 29.4598V32.7249C72.2517 32.7516 72.257 32.7781 72.2672 32.8028C72.2775 32.8274 72.2925 32.8499 72.3114 32.8688C72.3304 32.8877 72.3528 32.9027 72.3776 32.9129C72.4023 32.9231 72.4288 32.9284 72.4556 32.9284H74.4148C74.4689 32.9284 74.5208 32.9069 74.559 32.8688C74.5973 32.8306 74.6187 32.7789 74.6187 32.7249V29.4598C74.6211 28.4679 75.0169 27.5172 75.7197 26.8158C76.4224 26.1144 77.3749 25.7193 78.3687 25.717H79.8226C80.8165 25.7193 81.7689 26.1144 82.4717 26.8158C83.1744 27.5172 83.5703 28.4679 83.5726 29.4598V32.7249C83.5726 32.7789 83.5941 32.8306 83.6324 32.8688C83.6706 32.9069 83.7225 32.9284 83.7765 32.9284H85.7358C85.7898 32.9284 85.8417 32.9069 85.8799 32.8688C85.9182 32.8306 85.9396 32.7789 85.9396 32.7249V29.4598C85.9385 28.6569 85.7789 27.8621 85.47 27.1207C85.161 26.3793 84.7088 25.706 84.1392 25.139C83.5695 24.5721 82.8935 24.1227 82.1499 23.8165C81.4062 23.5103 80.6094 23.3533 79.8049 23.3545ZM85.5141 32.486H83.9716V29.4598C83.9692 28.3584 83.5292 27.3029 82.748 26.5249C81.9669 25.7469 80.9084 25.31 79.8049 25.31H78.3687C77.2652 25.31 76.2067 25.7469 75.4256 26.5249C74.6444 27.3029 74.2044 28.3584 74.2021 29.4598V32.486H72.6684V29.4598C72.6684 27.9509 73.2689 26.5037 74.338 25.4368C75.407 24.3698 76.8569 23.7703 78.3687 23.7703H79.8226C81.3353 23.7703 82.7861 24.3695 83.8565 25.4362C84.927 26.5029 85.5295 27.9501 85.5319 29.4598L85.5141 32.486Z" fill="#251853"/>
<path d="M84.7341 32.3002H73.422C71.5126 32.3002 69.9646 33.8452 69.9646 35.751V43.0244C69.9646 44.9302 71.5126 46.4752 73.422 46.4752H84.7341C86.6436 46.4752 88.1916 44.9302 88.1916 43.0244V35.751C88.1916 33.8452 86.6436 32.3002 84.7341 32.3002Z" fill="#23548F"/>
<path d="M84.7341 32.0966H73.4221C72.451 32.0966 71.5198 32.4817 70.8331 33.167C70.1465 33.8523 69.7607 34.7818 69.7607 35.751V43.0244C69.7607 43.9936 70.1465 44.9231 70.8331 45.6084C71.5198 46.2937 72.451 46.6787 73.4221 46.6787H84.7341C85.7052 46.6787 86.6365 46.2937 87.3231 45.6084C88.0098 44.9231 88.3955 43.9936 88.3955 43.0244V35.751C88.3955 34.7818 88.0098 33.8523 87.3231 33.167C86.6365 32.4817 85.7052 32.0966 84.7341 32.0966ZM87.9877 43.0244C87.9854 43.8849 87.6418 44.7095 87.0322 45.318C86.4225 45.9265 85.5963 46.2694 84.7341 46.2717H73.4221C72.5599 46.2694 71.7337 45.9265 71.1241 45.318C70.5144 44.7095 70.1709 43.8849 70.1685 43.0244V35.751C70.1709 34.8905 70.5144 34.0659 71.1241 33.4574C71.7337 32.8489 72.5599 32.506 73.4221 32.5037H84.7341C85.5963 32.506 86.4225 32.8489 87.0322 33.4574C87.6418 34.0659 87.9854 34.8905 87.9877 35.751V43.0244Z" fill="#251853"/>
<path d="M73.422 39.0338L73.3511 38.7241L72.7571 38.8037L72.633 38.7064L72.5975 38.1755L72.2784 38.1578L72.172 38.7152L72.0745 38.8303L71.5337 38.7152L71.4185 39.0072L71.9238 39.2727L71.9858 39.4142L71.6844 39.839L71.9238 40.0513L72.3582 39.6708L72.5177 39.6797L72.8546 40.069L73.1294 39.9098L72.899 39.3877L72.9521 39.193L73.422 39.0338Z" fill="#CAD1FF"/>
<path d="M76.6754 39.0338L76.6045 38.7241L76.0105 38.8037L75.8864 38.7064L75.851 38.1755L75.5318 38.1578L75.4254 38.7152L75.3368 38.8303L74.7871 38.7152L74.6719 39.0072L75.1772 39.2727L75.2393 39.4142L74.9378 39.839L75.1772 40.0513L75.6116 39.6708L75.78 39.6797L76.108 40.069L76.3829 39.9098L76.1524 39.3877L76.2056 39.193L76.6754 39.0338Z" fill="#CAD1FF"/>
<path d="M79.938 39.0338L79.8582 38.7241L79.2642 38.8037L79.1401 38.7064L79.1046 38.1755L78.7855 38.1578L78.6791 38.7152L78.5904 38.8303L78.0408 38.7152L77.9255 39.0072L78.4309 39.2727L78.4929 39.4142L78.2004 39.839L78.4309 40.0513L78.8653 39.6708L79.0337 39.6797L79.3617 40.069L79.6365 39.9098L79.406 39.3877L79.4592 39.193L79.938 39.0338Z" fill="#CAD1FF"/>
<path d="M83.1914 39.0338L83.1116 38.7241L82.5265 38.8037L82.3935 38.7064L82.358 38.1755L82.0389 38.1578L81.9414 38.7152L81.8438 38.8303L81.2942 38.7152L81.179 39.0072L81.6931 39.2727L81.7463 39.4142L81.4538 39.839L81.6931 40.0513L82.1187 39.6708L82.2871 39.6797L82.6151 40.069L82.89 39.9098L82.6595 39.3877L82.7126 39.193L83.1914 39.0338Z" fill="#CAD1FF"/>
<path d="M86.4449 39.0338L86.3652 38.7241L85.7801 38.8037L85.6471 38.7064L85.6116 38.1755L85.2925 38.1578L85.1949 38.7152L85.0974 38.8303L84.5478 38.7152L84.4414 39.0072L84.9467 39.2727L84.9999 39.4142L84.7074 39.839L84.9467 40.0513L85.3722 39.6708L85.5407 39.6797L85.8776 40.069L86.1524 39.9098L85.913 39.3877L85.9662 39.193L86.4449 39.0338Z" fill="#CAD1FF"/>
</svg>
