<svg width="25" height="24" viewBox="0 0 25 24" fill="none" xmlns="http://www.w3.org/2000/svg">
<g clip-path="url(#clip0_132_292)">
<path d="M9.18404 0.789371C6.78607 1.62125 4.71806 3.20018 3.28377 5.29425C1.84949 7.38832 1.12452 9.88714 1.21537 12.4237C1.30621 14.9602 2.20808 17.4008 3.7885 19.3869C5.36891 21.373 7.54458 22.7999 9.99591 23.4581C11.9833 23.9709 14.0654 23.9934 16.0634 23.5237C17.8734 23.1172 19.5468 22.2476 20.9197 21C22.3486 19.6619 23.3857 17.9596 23.9197 16.0762C24.4998 14.0281 24.6031 11.8743 24.2215 9.78H13.0615V14.4094H19.5247C19.3955 15.1477 19.1187 15.8524 18.7108 16.4813C18.303 17.1102 17.7724 17.6503 17.1509 18.0694C16.3618 18.5916 15.4721 18.9429 14.539 19.1006C13.6033 19.2747 12.6435 19.2747 11.7078 19.1006C10.7593 18.9047 9.86211 18.5133 9.07341 17.9512C7.80619 17.0542 6.85468 15.7799 6.35466 14.31C5.84633 12.8126 5.84633 11.1893 6.35466 9.69187C6.71059 8.64228 7.29898 7.68663 8.07591 6.89625C8.96502 5.97515 10.0907 5.31674 11.3293 4.99326C12.568 4.66979 13.8718 4.69374 15.0978 5.0625C16.0555 5.35635 16.9313 5.87002 17.6553 6.5625C18.384 5.8375 19.1115 5.11062 19.8378 4.38187C20.2128 3.99 20.6215 3.61687 20.9909 3.21562C19.8857 2.18722 18.5884 1.38694 17.1734 0.860622C14.5966 -0.0750226 11.7771 -0.100167 9.18404 0.789371Z" fill="white"/>
<path d="M9.18395 0.789382C11.7768 -0.100761 14.5963 -0.0762781 17.1733 0.858757C18.5886 1.38865 19.8852 2.19278 20.9889 3.22501C20.6139 3.62626 20.2183 4.00126 19.8358 4.39126C19.1083 5.11751 18.3814 5.84126 17.6552 6.56251C16.9312 5.87003 16.0554 5.35636 15.0977 5.06251C13.8721 4.69246 12.5684 4.66712 11.3294 4.98927C10.0904 5.31143 8.96403 5.96862 8.07395 6.88876C7.29701 7.67914 6.70862 8.63479 6.3527 9.68438L2.46582 6.67501C3.85709 3.91606 6.26597 1.80568 9.18395 0.789382Z" fill="#E33629"/>
<path d="M1.43464 9.65625C1.6434 8.62082 1.99025 7.61812 2.46589 6.675L6.35277 9.69188C5.84444 11.1893 5.84444 12.8126 6.35277 14.31C5.05777 15.31 3.76214 16.315 2.46589 17.325C1.27555 14.9556 0.912517 12.2559 1.43464 9.65625Z" fill="#F8BD00"/>
<path d="M13.0615 9.77812H24.2215C24.603 11.8724 24.4998 14.0262 23.9196 16.0744C23.3857 17.9578 22.3485 19.66 20.9196 20.9981C19.6653 20.0194 18.4053 19.0481 17.1509 18.0694C17.7728 17.6499 18.3036 17.1092 18.7115 16.4796C19.1193 15.8501 19.3959 15.1446 19.5246 14.4056H13.0615C13.0596 12.8644 13.0615 11.3212 13.0615 9.77812Z" fill="#587DBD"/>
<path d="M2.46399 17.325C3.76024 16.325 5.05586 15.32 6.35086 14.31C6.85188 15.7804 7.80475 17.0548 9.07336 17.9512C9.86452 18.5107 10.7637 18.899 11.7134 19.0912C12.6491 19.2653 13.6089 19.2653 14.5446 19.0912C15.4777 18.9335 16.3674 18.5823 17.1565 18.06C18.4109 19.0387 19.6709 20.01 20.9252 20.9887C19.5525 22.237 17.8792 23.1073 16.069 23.5144C14.071 23.9841 11.9888 23.9616 10.0015 23.4487C8.42968 23.0291 6.96151 22.2892 5.68899 21.2756C4.34223 20.2062 3.24218 18.8586 2.46399 17.325Z" fill="#319F43"/>
</g>
<defs>
<clipPath id="clip0_132_292">
<rect width="24" height="24" fill="white" transform="translate(0.823364)"/>
</clipPath>
</defs>
</svg>
