<svg width="134" height="150" viewBox="0 0 134 150" fill="none" xmlns="http://www.w3.org/2000/svg">
<path d="M67 144.787C103.727 144.787 133.5 141.364 133.5 137.142C133.5 132.919 103.727 129.496 67 129.496C30.2731 129.496 0.5 132.919 0.5 137.142C0.5 141.364 30.2731 144.787 67 144.787Z" fill="#F1F3FA"/>
<path d="M33.9708 40.8408H90.6064V137.999H33.9708V40.8408Z" fill="white"/>
<path d="M23.1055 81.5948H11.6716V76.1865L3.54097 84.3171L11.6716 92.4475V87.0392H23.1055V81.5948Z" fill="#FCB94C"/>
<path d="M36.0201 138.424V43.5502C36.0201 43.279 36.2273 43.0717 36.4827 43.0717H88.0991C88.3538 43.0717 88.5773 43.295 88.5773 43.5502V138.424H94.9574V43.5502C94.9574 39.7699 91.8787 36.6914 88.0827 36.6914H36.4828C32.7024 36.6914 29.64 39.7699 29.64 43.5502V138.424H36.0201Z" fill="#CFD8F9"/>
<path d="M112.833 150C112.711 30.7657 113.093 33.4282 112.567 33.635L88.7544 43.0059C88.6531 43.0457 88.5743 43.2879 88.5743 43.5581V140.458L112.833 150Z" fill="#B2C1F9"/>
<path d="M49.5777 88.9785L49.0676 89.8646C49.0676 89.8646 46.5822 89.189 45.7899 87.4685C44.3293 84.2687 48.6988 87.0909 48.6988 87.0909C48.6988 87.0909 48.3832 86.5958 48.9774 86.54C49.5715 86.4782 49.5777 88.9785 49.5777 88.9785Z" fill="#FFCCBE"/>
<path d="M71.3236 138.234C71.2764 138.234 71.2519 138.173 71.2411 138.086C71.2011 137.766 71.4333 137.48 71.7477 137.409C72.2212 137.302 72.6459 137.117 73.0182 136.848H73.7176V138.004C73.7176 138.065 73.6934 138.124 73.6503 138.167C73.6072 138.21 73.5487 138.234 73.4878 138.234L71.3236 138.234ZM61.0788 138.234C61.0315 138.234 61.0071 138.173 60.9962 138.086C60.9563 137.766 61.1885 137.48 61.5029 137.409C61.9763 137.302 62.401 137.117 62.7734 136.848H63.4728V138.004C63.4728 138.065 63.4486 138.124 63.4055 138.167C63.3624 138.21 63.3039 138.234 63.2429 138.234L61.0788 138.234Z" fill="#F97C55"/>
<path d="M57.9407 80.5715C57.0308 80.6723 55.4512 91.0987 55.4512 91.0987L49.7244 88.9852C49.4928 88.8375 48.5868 89.9714 48.8184 90.1191C48.8184 90.1191 55.6315 96.627 58.1066 95.5563C61.545 94.0688 61.6642 80.1592 57.9407 80.5715Z" fill="#4F7DFC"/>
<path d="M74.4664 106.369L73.7862 136.848C73.7862 137.002 72.9423 137.002 72.9423 136.848L67.2585 113.197H66.5158L63.533 136.848C63.533 137.025 62.7137 137.025 62.7137 136.848L58.5239 104.99L74.4664 106.369Z" fill="#28214F"/>
<path d="M74.5613 78.9361C73.275 77.2231 59.4713 78.1422 57.9405 80.5721C56.9249 82.1844 57.8457 106.724 57.8457 106.724C57.9947 109.985 75.8957 109.166 75.7468 105.906C75.7468 105.906 76.5197 81.5443 74.5613 78.9361Z" fill="#3160FF"/>
<path d="M63.1746 79.1967L62.73 77.2229C62.73 77.2229 61.0407 79.499 59.1735 77.2229C57.3064 74.9467 55.0687 66.9624 61.4852 65.8836C68.2544 64.7456 66.9267 78.6455 66.9267 78.6455C66.979 79.002 63.227 79.5532 63.1746 79.1967Z" fill="#FFCCBE"/>
<path d="M66.9714 78.0354L65.9309 76.6945C65.9309 76.6945 67.5787 71.182 65.6938 70.8974C63.8089 70.6128 65.5397 73.1736 65.5397 73.1736H65.018L63.4531 70.933C63.4531 70.933 60.7264 70.5299 62.0661 68.9294C62.0661 68.9294 54.0047 75.4971 50.8987 70.518C47.7928 65.5389 62.7537 60.7969 66.3339 64.8277C69.9141 68.8583 66.9714 78.0354 66.9714 78.0354Z" fill="#F97C55"/>
<path d="M68.5714 95.2272C68.5714 95.2272 65.2991 96.7983 64.6454 94.8078C64.0842 93.0987 64.9075 92.947 66.0344 93.1935C65.8143 93.0572 65.7199 92.8737 65.9819 92.6169C66.6686 91.946 68.1258 93.4818 68.1258 93.4818L68.5714 95.2272Z" fill="#FFCCBE"/>
<path d="M74.5613 78.9354C76.9323 78.6983 81.3159 89.7989 79.4929 93.0665C78.1797 95.4201 68.4692 95.3502 68.4692 95.3502C68.0284 95.4413 67.6037 93.3871 68.0445 93.296L75.8266 91.1449C75.8266 91.1449 73.1623 85.2422 73.0259 81.4724C72.9992 80.7314 73.3783 79.0536 74.5613 78.9354Z" fill="#4F7DFC"/>
<path d="M51.2893 91.9627L49.4987 92.5319C49.4723 92.5405 49.4448 92.5456 49.4164 92.5476C49.2242 92.5615 48.9937 92.4318 48.8236 92.2123L42.3371 83.7226C42.0831 83.3948 42.0714 83.0129 42.2764 82.8643L41.8953 83.1405C41.6903 83.2893 41.7021 83.6711 41.9561 83.9989L48.4425 92.4886C48.6126 92.7081 48.8432 92.8378 49.0354 92.8239C49.0633 92.8219 49.0909 92.8167 49.1176 92.8082L50.9083 92.239C50.9423 92.2287 50.9728 92.2138 50.9992 92.1945L51.3801 91.9182C51.3526 91.9381 51.3218 91.9531 51.2893 91.9627Z" fill="#A5AADB"/>
<path d="M44.2337 82.2451C44.4241 82.2314 44.6575 82.3608 44.8278 82.5804L51.3182 91.0698C51.5917 91.4287 51.5832 91.8743 51.2894 91.9621L49.4987 92.5314C49.4724 92.5399 49.4449 92.545 49.4164 92.5471C49.2242 92.561 48.9937 92.4313 48.8235 92.2117L42.3371 83.722C42.0518 83.3538 42.0721 82.9174 42.362 82.8199L44.1526 82.2608C44.1784 82.2523 44.2057 82.2472 44.2337 82.2451Z" fill="#BEC3F2"/>
<path d="M50.4571 90.3529L48.3095 91.1266L42.5351 83.5697C42.3927 83.3902 42.3619 83.2107 42.3927 83.1118C42.4051 83.0684 42.4298 83.056 42.4423 83.056L44.2247 82.499H44.2371C44.361 82.499 44.5095 82.5733 44.6333 82.7342L50.4571 90.3529Z" fill="#F5F5FB"/>
<path d="M82.2569 6.5723H79.5497V5.94728H81.6603C81.92 2.70431 84.6009 0.206055 87.8926 0.206055C90.6181 0.206055 92.9154 1.81128 93.7455 4.29128L93.1529 4.49012C92.3979 2.23344 90.3827 0.831075 87.8926 0.831075C84.8384 0.831075 82.3665 3.21974 82.2671 6.26996L82.2569 6.5723Z" fill="#B2C1F9"/>
<path d="M83.9982 6.3774H83.3732C83.3732 3.97863 85.3254 2.02637 87.7242 2.02637V2.65139C85.6684 2.65139 83.9982 4.32164 83.9982 6.3774ZM102.951 10.6453H99.4888V10.3327C99.4888 7.22976 96.9642 4.70508 93.8612 4.70508C91.8602 4.70508 89.9931 5.7827 88.9885 7.51786L88.4487 7.20529C89.5649 5.27738 91.639 4.07994 93.8612 4.07994C97.2036 4.07994 99.9413 6.71823 100.106 10.02H102.951V10.6453Z" fill="#B2C1F9"/>
<path d="M90.7927 8.48649L90.2529 8.17391C91.0261 6.8446 92.4568 6.0166 93.9911 6.0166V6.64162C92.68 6.64174 91.4543 7.34798 90.7927 8.48649ZM74.2367 6.06543H77.289V6.69045H74.2367V6.06543ZM103.976 10.0207H105.179V10.6457H103.976V10.0207ZM82.5289 10.3333H81.9039C81.9039 9.21708 82.8111 8.30798 83.9273 8.30798V8.933C83.156 8.933 82.5289 9.56009 82.5289 10.3333ZM21.4272 15.4515H18.72V14.8264H20.8305C21.0902 11.5835 23.7712 9.0852 27.0628 9.0852C29.7864 9.0852 32.0836 10.6885 32.9157 13.1704L32.3231 13.3693C31.5681 11.1126 29.5529 9.71023 27.0628 9.71023C24.0086 9.71023 21.5368 12.0989 21.4373 15.1491L21.4272 15.4515Z" fill="#B2C1F9"/>
<path d="M23.1684 15.2563H22.5434C22.5434 12.8575 24.4957 10.9053 26.8944 10.9053V11.5303C24.8386 11.5303 23.1684 13.2005 23.1684 15.2563ZM42.1212 19.5242H38.659V19.2116C38.659 16.1087 36.1345 13.584 33.0314 13.584C31.0304 13.584 29.1633 14.6616 28.1587 16.3968L27.6189 16.0842C28.7352 14.1563 30.8092 12.9588 33.0314 12.9588C36.3739 12.9588 39.1115 15.5971 39.2759 18.8989H42.1212V19.5242Z" fill="#B2C1F9"/>
<path d="M29.9628 17.3644L29.423 17.0518C30.1942 15.7225 31.6249 14.8945 33.1612 14.8945V15.5196C31.8482 15.5197 30.6224 16.2259 29.9628 17.3644ZM13.4069 14.9432H16.4592V15.5683H13.4069V14.9432ZM43.146 18.8985H44.3494V19.5236H43.146V18.8985ZM21.6991 19.2111H21.0741C21.0741 18.0949 21.9812 17.1858 23.0974 17.1858V17.8108C22.3262 17.8108 21.6991 18.4379 21.6991 19.2111Z" fill="#B2C1F9"/>
</svg>
