<svg width="86" height="92" viewBox="0 0 86 92" fill="none" xmlns="http://www.w3.org/2000/svg">
<path d="M70.0759 70.2978C70.9357 71.4814 71.903 72.7367 72.8702 73.7948C73.7658 74.7811 74.6615 75.5881 75.3959 75.9826C76.2557 76.431 77.2946 76.1978 77.8857 75.4446C80.3217 72.3063 86.3044 64.1826 85.5163 63.3756C84.1729 62.0127 81.5398 63.3398 79.8202 64.362C79.0141 64.8462 78.0827 65.0255 77.1871 64.9C76.6855 64.8282 76.2019 64.6668 75.7541 64.4158L70.0759 70.2978Z" fill="#8F2354"/>
<path d="M70.0759 70.2978C70.9357 71.4814 71.903 72.7367 72.8702 73.7948C76.0407 72.3063 76.9542 67.5899 77.205 64.9C76.7035 64.8282 76.2198 64.6668 75.772 64.4158L70.0759 70.2978Z" fill="#8F2354"/>
<path d="M75.3959 75.3191C75.3243 75.2653 75.3064 75.1398 75.3601 75.068L82.6325 65.958C82.6862 65.8863 82.8116 65.8684 82.8832 65.9222C82.9549 65.976 82.9728 66.1015 82.9191 66.1732L75.6467 75.2832C75.593 75.3729 75.4676 75.3908 75.3959 75.3191Z" fill="#112544"/>
<path d="M39.1773 82.6179C38.7474 84.0167 38.3175 85.5589 38.0488 86.9577C37.798 88.2668 37.6906 89.4504 37.816 90.2932C37.9772 91.2437 38.7832 91.961 39.7505 91.979C43.727 92.0507 53.7937 91.9969 53.9728 90.8671C54.2773 88.9662 51.6084 87.6571 49.7634 86.886C48.9036 86.5273 48.1872 85.8996 47.7573 85.0926C47.5065 84.6622 47.3453 84.1601 47.2915 83.658L39.1773 82.6179Z" fill="#8F2354"/>
<path d="M39.1773 82.6179C38.7474 84.0167 38.3175 85.5589 38.0488 86.9577C41.1297 88.6075 45.4466 86.5094 47.7573 85.1106C47.5065 84.6802 47.3453 84.1781 47.2915 83.6759L39.1773 82.6179Z" fill="#8F2354"/>
<path d="M50.1575 90.4546L38.5146 90.0781C38.4071 90.0781 38.3354 89.9884 38.3354 89.8987C38.3354 89.7911 38.425 89.7194 38.5146 89.7194L50.1575 90.096C50.265 90.096 50.3366 90.1856 50.3366 90.2753C50.3366 90.3829 50.2471 90.4546 50.1575 90.4546Z" fill="#112544"/>
<path d="M85.8031 19.1705V23.2592C85.8031 23.5103 85.606 23.7076 85.3553 23.7076H59.1138C58.8631 23.7076 58.666 23.5103 58.666 23.2592V19.1705C58.666 18.9194 58.8631 18.7222 59.1138 18.7222H85.3732C85.606 18.7401 85.8031 18.9374 85.8031 19.1705Z" fill="#8D95FF"/>
<path d="M85.8031 20.8203V23.2772C85.8031 23.5282 85.606 23.7255 85.3553 23.7255H59.1138C58.8631 23.7255 58.666 23.5282 58.666 23.2772V22.0039C61.9619 21.2866 65.3473 22.7213 68.7148 23.0441C73.9272 23.5641 80.6264 21.4839 85.8031 20.8203Z" fill="#23548F"/>
<path d="M85.8031 26.8817V30.9705C85.8031 31.2216 85.606 31.4188 85.3553 31.4188H59.1138C58.8631 31.4188 58.666 31.2216 58.666 30.9705V26.8817C58.666 26.6307 58.8631 26.4334 59.1138 26.4334H85.3732C85.606 26.4513 85.8031 26.6486 85.8031 26.8817Z" fill="#8D95FF"/>
<path d="M85.8031 28.7647V30.9705C85.8031 31.2215 85.606 31.4188 85.3553 31.4188H59.1138C58.8631 31.4188 58.666 31.2215 58.666 30.9705V29.9304C59.1138 29.769 59.6154 29.769 60.099 29.769C64.9174 29.8228 69.7537 29.8945 74.5721 29.9483C75.5752 29.9662 76.5603 29.9662 77.5634 29.9304C79.3009 29.8766 82.6684 29.7152 84.3343 29.213C84.7641 29.1234 85.3194 28.9799 85.8031 28.7647Z" fill="#23548F"/>
<path d="M85.3731 23.8869H59.1137C58.7734 23.8869 58.4868 23.6 58.4868 23.2593V19.1705C58.4868 18.8298 58.7734 18.5428 59.1137 18.5428H85.3731C85.7134 18.5428 86 18.8298 86 19.1705V23.2593C85.9821 23.6 85.7134 23.8869 85.3731 23.8869ZM59.1137 18.9194C58.9704 18.9194 58.8451 19.045 58.8451 19.1884V23.2772C58.8451 23.4207 58.9704 23.5462 59.1137 23.5462H85.3731C85.5164 23.5462 85.6418 23.4207 85.6418 23.2772V19.1884C85.6418 19.045 85.5164 18.9194 85.3731 18.9194H59.1137ZM85.3731 31.5982H59.1137C58.7734 31.5982 58.4868 31.3112 58.4868 30.9705V26.8817C58.4868 26.541 58.7734 26.2541 59.1137 26.2541H85.3731C85.7134 26.2541 86 26.541 86 26.8817V30.9705C85.9821 31.3112 85.7134 31.5982 85.3731 31.5982ZM59.1137 26.6307C58.9704 26.6307 58.8451 26.7562 58.8451 26.8997V30.9884C58.8451 31.1319 58.9704 31.2574 59.1137 31.2574H85.3731C85.5164 31.2574 85.6418 31.1319 85.6418 30.9884V26.8997C85.6418 26.7562 85.5164 26.6307 85.3731 26.6307H59.1137Z" fill="#23548F"/>
<path d="M74.3212 67.7872C71.7956 70.9434 68.8043 73.7051 67.8728 72.9699L49.2441 60.3808V57.8164H35.4875L34.0903 49.3519C36.4727 46.4288 34.3232 45.3887 37.2787 43.3802C41.2911 40.6185 50.0681 43.8465 58.4331 48.1863C68.5177 53.4048 78.0291 60.2553 78.0291 60.2553C78.9963 61.0085 76.8827 64.5951 74.3212 67.7872Z" fill="#23548F"/>
<path d="M74.3212 67.7872C71.7956 70.9434 68.8043 73.7051 67.8728 72.9699L49.2441 60.3808V57.8164H35.4875L34.0903 49.3519C36.4727 46.4288 34.3232 45.3887 37.2787 43.3802C41.2911 40.6185 50.0681 43.8465 58.4331 48.1863C58.9167 49.7285 59.0779 51.3784 58.8809 52.9924C58.5405 55.5927 57.3225 58.3902 58.5585 60.7036C59.3466 62.21 60.9945 63.0708 62.6424 63.4474C64.2904 63.8419 66.0099 63.8419 67.6758 64.1109C69.664 64.4337 71.6344 65.169 73.139 66.496C73.5868 66.8726 73.9809 67.3209 74.3212 67.7872Z" fill="#23548F"/>
<path d="M45.6796 16.8213C45.8587 16.2474 46.2348 15.7632 46.7543 15.4583C48.8679 14.1851 49.1008 12.876 48.6172 12.7504C48.1873 12.6428 47.2917 13.4498 47.2917 13.4498C47.2917 13.4498 48.8321 11.8359 48.2948 11.3696C47.7037 10.8675 46.5214 12.9298 46.5214 12.9298C46.5214 12.9298 47.7932 10.7778 47.1125 10.4909C46.5214 10.2219 45.2855 12.4814 45.2855 12.4814C45.2855 12.4814 46.4856 10.1322 45.6796 9.93494C44.8914 9.73768 43.8883 12.7504 43.8883 12.7504C43.8883 12.7504 43.4943 10.8137 42.5628 10.8495C41.5239 10.9033 42.2583 13.2705 42.2583 14.0775C42.2583 14.8665 41.5239 17.162 41.5239 17.162L45.3392 17.8793L45.6796 16.8213Z" fill="#FCBBA4"/>
<path d="M43.7272 14.741C43.6556 14.741 43.566 14.6872 43.5481 14.5976C43.5302 14.5079 43.5839 14.4003 43.6735 14.3824C43.9422 14.3106 44.0855 14.203 44.1571 14.0416C44.2825 13.665 43.9064 13.0553 43.7451 12.8401C43.6914 12.7684 43.6914 12.6429 43.781 12.5891C43.8526 12.5353 43.978 12.5353 44.0317 12.6249C44.1034 12.7146 44.7124 13.5216 44.4975 14.1492C44.39 14.4362 44.1571 14.6334 43.7631 14.7231C43.7451 14.741 43.7451 14.741 43.7272 14.741Z" fill="#E2805D"/>
<path d="M28.7883 24.0662V30.3428C29.1645 30.6118 29.7377 30.9884 30.5796 31.5264C36.2398 35.131 43.6734 37.8568 47.2558 32.172C49.1008 29.2489 48.6888 21.2687 46.3244 15.9425C44.8914 16.5881 43.1898 16.5702 41.309 16.1757C41.2194 16.3371 41.0045 17.2517 40.8433 18.6504C40.5925 20.8024 40.4671 24.0842 41.0403 27.4556C38.7475 25.6264 33.338 24.3173 28.7883 24.0662Z" fill="#66D3D8"/>
<path d="M40.8611 18.6325C41.4343 19.027 42.1866 19.1167 42.8314 18.8477C43.6733 18.507 44.3898 17.5924 45.2854 17.7538C45.7153 17.8435 46.0735 18.1663 46.2885 18.5608C46.5034 18.9553 46.5751 19.4036 46.6467 19.834C46.9512 21.5735 47.1483 23.331 47.2378 25.1064C47.3274 26.7741 47.3274 28.4778 46.9692 30.1097C46.6109 31.7416 45.8586 33.3377 44.6406 34.4675C44.6943 34.4854 44.748 34.5213 44.8018 34.5392C45.7332 34.0191 46.5572 33.248 47.2558 32.1361C49.1007 29.213 48.6887 21.2328 46.3243 15.9067C44.8913 16.5523 43.1897 16.5343 41.3089 16.1398C41.2372 16.3371 41.0223 17.2517 40.8611 18.6325Z" fill="#47B6C3"/>
<path d="M14.2256 34.6647C14.2256 36.7629 14.5838 43.4699 15.0137 46.4109C15.0137 46.4109 25.1879 45.1377 34.556 47.5766C37.5652 48.3656 38.837 46.7158 39.5177 46.0881C40.6461 45.048 39.9834 41.3 39.9834 41.3C39.9834 41.3 39.034 25.3395 28.9136 24.1021C20.3874 23.0441 14.2793 23.331 14.2256 34.6647Z" fill="#66D3D8"/>
<path d="M39.9836 41.4614C39.894 41.4614 39.8044 41.3896 39.8044 41.3C39.8044 41.1924 39.07 30.0738 32.9978 25.8416C32.9082 25.7878 32.8903 25.6802 32.962 25.5905C33.0157 25.5009 33.1232 25.483 33.2127 25.5547C39.4283 29.8945 40.1627 41.1744 40.1627 41.282C40.1806 41.3717 40.1089 41.4434 39.9836 41.4614C40.0015 41.4614 40.0015 41.4614 39.9836 41.4614ZM30.4722 12.0331C30.4722 12.0331 31.1886 12.5352 30.3647 14.5079L28.9675 12.1586L30.4722 12.0331Z" fill="#112544"/>
<path d="M22.8236 17.1979L21.9459 23.6179C21.928 23.7076 21.928 23.8152 21.9459 23.9049C22.3042 25.8416 27.6779 25.8058 28.0719 23.8869L28.2869 22.8647L28.5914 21.3763C28.6989 21.3763 29.6303 21.466 29.7199 21.466C32.6754 21.3763 32.353 17.6103 30.92 14.9562C30.8483 14.8128 30.7767 14.6872 30.705 14.5617C29.6482 12.6967 28.9855 10.9034 28.9855 10.9034L21.4802 13.5037L22.8236 17.1979Z" fill="#FCBBA4"/>
<path d="M21.7846 23.9407C21.7667 23.8511 21.8383 23.7435 21.9279 23.7255C22.0175 23.7076 22.1249 23.7793 22.1428 23.869C22.4653 25.6085 27.5523 25.5726 27.9106 23.8511C27.9285 23.7614 28.0181 23.6897 28.1255 23.7076C28.2151 23.7255 28.2867 23.8152 28.2688 23.9228C27.821 26.0568 22.1787 26.0748 21.7846 23.9407ZM31.0094 11.0289C30.884 12.069 30.0063 12.6608 29.6302 12.9298C26.8538 14.8307 24.4894 13.3422 24.4894 13.3422C24.9372 14.9921 23.5042 15.2073 23.5042 15.2073C24.0595 15.4225 24.3102 16.5343 23.6654 18.1842L22.0533 17.9331C21.9816 17.7897 21.9458 17.6103 21.8383 17.5027C14.96 11.0647 24.364 6.79666 27.9643 7.40638C29.8272 7.71125 30.5258 8.85897 30.8303 9.80942C30.9915 10.4012 31.0094 10.9213 31.0094 11.0289ZM28.8779 14.472C28.9495 14.6334 29.2361 14.4362 29.6302 14.2568C30.0242 14.0775 30.3467 13.9699 30.275 13.8085C30.2034 13.6471 29.8272 13.683 29.451 13.8623C29.057 14.0416 28.8062 14.3106 28.8779 14.472Z" fill="#112544"/>
<path d="M26.6029 15.4942C26.6745 15.6556 26.9611 15.4583 27.3552 15.2969C27.7493 15.1176 28.0717 15.028 28.018 14.8666C27.9463 14.7052 27.5701 14.7231 27.194 14.9024C26.7999 15.0638 26.5312 15.3328 26.6029 15.4942Z" fill="#112544"/>
<path d="M28.9495 17.0006C28.9495 16.893 29.0211 16.8213 29.1107 16.8033C29.3435 16.7854 29.5764 16.7137 29.7734 16.5881C29.863 16.5343 29.8988 16.4626 29.8988 16.4626C29.863 16.3909 29.1823 16.2474 28.6987 15.4763C28.6449 15.3866 28.6629 15.279 28.7524 15.2252C28.842 15.1714 28.9495 15.1893 29.0032 15.279C29.2181 15.6197 29.5406 15.8887 29.8988 16.0501C30.0242 16.1039 30.2033 16.1936 30.257 16.3729C30.3645 16.8213 29.6122 17.1261 29.1286 17.162C29.039 17.1799 28.9495 17.1082 28.9495 17.0006Z" fill="#E2805D"/>
<path d="M24.0953 17.0006C24.2207 17.7717 23.755 18.489 23.0564 18.6146C22.3579 18.7222 21.6951 18.1842 21.5697 17.413C21.4443 16.6419 21.91 15.9246 22.6086 15.7991C23.3072 15.6915 23.97 16.2295 24.0953 17.0006Z" fill="#FCBBA4"/>
<path d="M28.9317 18.6504C28.86 18.5787 28.8421 18.4711 28.9138 18.3994C28.9854 18.3276 29.0929 18.3097 29.1645 18.3815C29.2004 18.4173 29.9169 18.9912 30.6513 18.3815C30.7229 18.3097 30.8483 18.3276 30.902 18.3994C30.9737 18.4711 30.9558 18.5966 30.8841 18.6504C30.2572 19.1705 29.4511 19.0808 28.9317 18.6504Z" fill="#E2805D"/>
<path d="M22.8237 17.3413L22.6444 17.1441C22.5726 17.0723 22.5726 16.9647 22.6444 16.893C22.7161 16.8213 22.8237 16.8213 22.8954 16.893L23.0748 17.0903C23.1465 17.162 23.1465 17.2696 23.0748 17.3413C23.003 17.4131 22.8954 17.4131 22.8237 17.3413Z" fill="#112544"/>
<path d="M25.3132 20.3541C25.4207 20.9638 25.9402 22.1653 28.2867 22.8647L28.5912 21.3763C28.1613 21.2866 26.8895 20.9638 25.5819 20.1747C25.4565 20.0851 25.2774 20.1927 25.3132 20.3541Z" fill="#E2805D"/>
<path d="M27.8572 16.355C28.0355 16.355 28.18 16.2105 28.18 16.0322C28.18 15.8539 28.0355 15.7094 27.8572 15.7094C27.6789 15.7094 27.5344 15.8539 27.5344 16.0322C27.5344 16.2105 27.6789 16.355 27.8572 16.355Z" fill="#112544"/>
<path d="M30.0962 15.3508C30.2745 15.3508 30.419 15.2062 30.419 15.028C30.419 14.8497 30.2745 14.7052 30.0962 14.7052C29.918 14.7052 29.7734 14.8497 29.7734 15.028C29.7734 15.2062 29.918 15.3508 30.0962 15.3508Z" fill="#112544"/>
<path d="M15.0496 46.3392C15.0496 46.3392 6.30845 66.5498 37.3145 59.6993L36.0428 83.3352C36.0428 85.5768 51.2324 85.5768 51.2324 83.3352C51.2324 83.3352 58.3435 46.5185 47.9723 45.9446C35.1113 45.2452 15.0496 46.3392 15.0496 46.3392Z" fill="#23548F"/>
<path d="M53.5789 63.0528C53.4714 63.0528 53.3997 62.9632 53.3997 62.8735C53.6326 55.3416 52.8803 46.3212 47.9723 46.1419C35.5591 45.6577 15.2646 46.5185 15.0676 46.5364C14.978 46.5364 14.8884 46.4647 14.8884 46.3571C14.8884 46.2495 14.9601 46.1778 15.0676 46.1778C15.2646 46.1778 35.5771 45.317 48.0082 45.7832C52.1817 45.9446 54.1341 51.7012 53.7759 62.8914C53.758 62.9632 53.6684 63.0528 53.5789 63.0528Z" fill="#112544"/>
<path d="M36.9742 42.4298C36.9563 42.7526 36.7593 42.896 36.0786 42.8243C36.3831 42.9319 36.6518 43.0933 36.7235 43.2547C36.8309 43.4878 36.5981 43.7927 35.8278 43.6492C36.0249 43.7389 36.1682 43.8465 36.2219 43.972C36.3294 44.2589 35.6845 44.4921 35.0576 44.4024C35.183 44.4562 36.3652 45.048 33.9829 45.0839C33.553 45.0839 32.2812 45.2811 31.9946 44.0796C31.6722 42.376 32.1737 41.4434 33.1231 40.8337C33.5172 40.5468 34.5382 39.9012 34.9322 40.1881C35.2905 40.4392 34.6635 41.2282 34.2516 41.6766C35.0576 41.6945 36.9921 41.8021 36.9742 42.4298Z" fill="#FCBBA4"/>
<path d="M12.3627 39.4349C12.5239 41.3 13.1508 42.8063 14.3689 43.5775C22.0174 48.3835 32.4423 45.2273 32.4423 45.2273C31.9945 43.3802 31.9408 41.6945 33.0872 40.4392C32.0483 39.9012 30.9556 39.5246 29.863 39.2735C25.5282 38.2693 21.2472 39.2018 21.2472 39.2018C24.2922 28.1371 19.4201 27.3301 19.4201 27.3301L18.22 24.8194C13.9748 26.4334 11.9149 34.306 12.3627 39.4349Z" fill="#66D3D8"/>
<path d="M12.3628 39.4349C12.524 41.3 13.1509 42.8064 14.369 43.5775C22.0175 48.3836 32.4424 45.2273 32.4424 45.2273C31.9946 43.3802 31.9409 41.6945 33.0873 40.4392C32.0483 39.9012 30.9557 39.5246 29.8631 39.2735C29.7018 40.5288 30.6691 41.7124 30.1855 42.8422C29.7735 43.8106 28.5375 44.0796 27.4807 44.1334C25.582 44.2231 23.6833 44.0617 21.8025 43.9003C19.8501 43.7389 17.8439 43.5595 16.0348 42.7884C14.4585 42.1428 13.0435 40.9772 12.3628 39.4349Z" fill="#47B6C3"/>
<path d="M24.7759 46.4109C21.4621 46.4109 17.5931 45.8191 14.2793 43.7389C14.0286 43.5775 13.7957 43.3981 13.5987 43.1829C13.527 43.1112 13.527 43.0036 13.5987 42.9319C13.6703 42.8601 13.7778 42.8601 13.8494 42.9319C14.0286 43.1291 14.2435 43.2905 14.4584 43.434C21.4442 47.8097 30.8661 45.4784 32.2274 45.1018C31.8871 43.6492 31.69 41.8738 32.8006 40.5109C27.8031 38.0182 21.3547 39.3632 21.3009 39.3811C21.1576 39.417 21.0502 39.2914 21.086 39.1659C22.716 33.1942 22.0174 30.289 21.1397 28.9082C20.3695 27.7067 19.4022 27.5273 19.3843 27.5273C19.2948 27.5094 19.2231 27.4197 19.241 27.3121C19.2589 27.2225 19.3485 27.1507 19.438 27.1687C19.4918 27.1687 20.5665 27.3659 21.4263 28.693C22.3398 30.1097 23.0742 33.0507 21.498 38.9866C22.8414 38.7535 28.627 37.9285 33.1588 40.3136C33.2663 40.3674 33.2842 40.5109 33.2126 40.6006C32.2632 41.6228 32.0841 43.0395 32.6215 45.2094C32.6394 45.299 32.5856 45.3887 32.4961 45.4246C32.4244 45.4246 29.0748 46.4109 24.7759 46.4109Z" fill="#112544"/>
<path d="M57.9314 33.2839C54.2952 47.2717 55.1192 44.1155 54.9938 44.5817C54.8147 45.2632 54.1877 45.7474 53.4892 45.7474H38.2638C37.2428 45.7474 36.5084 44.779 36.7591 43.7927L39.6967 32.4948C39.8759 31.8134 40.4849 31.3292 41.2014 31.3292H56.4268C57.4478 31.3471 58.1822 32.2976 57.9314 33.2839Z" fill="white"/>
<path d="M57.215 36.0456L54.9938 44.5997C54.8147 45.2811 54.1878 45.7653 53.4892 45.7653H38.2638C37.7085 45.7653 37.2428 45.4963 36.9741 45.0839C37.6548 44.4921 38.64 44.1693 39.5714 44.0258C41.9 43.6671 44.2823 43.8644 46.6288 43.6671C48.9753 43.4699 51.4293 42.8243 53.0593 41.1206C54.5639 39.5246 55.2267 37.1933 57.215 36.0456Z" fill="#E1E5FF"/>
<path d="M53.4715 45.9447H38.2461C37.1176 45.9447 36.2757 44.8687 36.5623 43.7748L39.4999 32.4769C39.6969 31.7058 40.3955 31.1857 41.1837 31.1857H56.4091C57.5375 31.1857 58.3794 32.2617 58.0928 33.3556L55.1552 44.6535C54.9582 45.4067 54.2596 45.9447 53.4715 45.9447ZM41.1837 31.5264C40.5567 31.5264 40.0015 31.9568 39.8582 32.5486L36.9206 43.8465C36.6877 44.7252 37.3504 45.5681 38.2461 45.5681H53.4715C54.0984 45.5681 54.6537 45.1377 54.797 44.5459L57.7346 33.248C57.9674 32.3693 57.3047 31.5264 56.4091 31.5264H41.1837Z" fill="#112544"/>
<path d="M41.1835 31.3471C40.4671 31.3471 39.858 31.8313 39.6789 32.5127L36.7413 43.8106C36.4905 44.7969 37.2249 45.7653 38.2459 45.7653L21.9458 46.1419C21.9458 45.1197 22.7877 44.2948 23.7908 44.2948L35.0576 43.9182C35.0755 43.8465 34.8964 44.5458 38.0131 32.5127C38.1922 31.8313 38.8012 31.3471 39.5177 31.3471H41.1835Z" fill="#8F2354"/>
<path d="M41.1835 31.3471C40.4671 31.3471 39.858 31.8313 39.6789 32.5127L36.7413 43.8106C36.4905 44.7969 37.2249 45.7653 38.2459 45.7653L21.9458 46.1419C21.9458 45.8729 21.9995 45.6039 22.107 45.3708C22.7339 45.1556 23.4863 45.1197 24.149 45.1197C26.8358 45.1556 29.5048 45.1914 32.1916 45.2273C33.2126 45.2452 34.3052 45.2273 35.1829 44.6893C36.2219 44.0437 36.6697 42.7884 36.9383 41.5869C37.3682 39.5604 37.422 37.4623 37.8698 35.4358C38.0668 34.5571 38.3355 33.6963 38.7296 32.9073C38.9624 32.441 39.2669 31.8671 39.661 31.365H41.1835V31.3471Z" fill="#8F2354"/>
<path d="M21.9638 46.3033C21.8563 46.3033 21.7847 46.2316 21.7847 46.124C21.7847 44.9942 22.6982 44.0975 23.8087 44.0975L34.9323 43.7389L37.8699 32.4769C38.0669 31.7058 38.7655 31.1857 39.5536 31.1857H41.2015C41.309 31.1857 41.3807 31.2574 41.3807 31.365C41.3807 31.4726 41.309 31.5444 41.2015 31.5444C40.5746 31.5444 40.0193 31.9748 39.876 32.5666L36.9384 43.8644C36.7056 44.7431 37.3683 45.586 38.2639 45.586C38.3535 45.586 38.4431 45.6577 38.4431 45.7653C38.4431 45.8729 38.3714 45.9447 38.2639 45.9447L21.9638 46.3033ZM39.5357 31.5264C38.9088 31.5264 38.3535 31.9568 38.2102 32.5486C35.0935 44.51 35.2547 43.8823 35.2547 43.9361C35.2368 44.0258 35.1651 44.0796 35.0755 44.0975L23.8087 44.4741C22.931 44.4741 22.2325 45.1377 22.1429 45.9626L37.225 45.6219C36.6697 45.2094 36.3831 44.4921 36.5802 43.7747L39.5178 32.4769C39.6253 32.1003 39.8402 31.7596 40.1447 31.5444H39.5357V31.5264Z" fill="#8F2354"/>
<path d="M48.9037 38.1258C48.7067 38.897 47.9186 39.5425 47.1483 39.5425C46.3602 39.5425 45.8945 38.9149 46.0915 38.1258C46.2885 37.3368 47.0767 36.7091 47.8469 36.7091C48.635 36.7091 49.1008 37.3368 48.9037 38.1258Z" fill="#8D95FF"/>
<path d="M48.9216 38.1258C48.7246 38.8969 47.9364 39.5425 47.1662 39.5425C46.6288 39.5425 46.2348 39.2377 46.1094 38.8073C46.2706 38.8969 46.4497 38.9328 46.6647 38.9328C47.7573 38.9328 48.7066 37.7671 48.4201 36.8346C48.832 37.0498 49.047 37.552 48.9216 38.1258Z" fill="#757BFF"/>
<path d="M46.1274 39.2377C45.3392 38.2334 46.4677 36.5298 47.8469 36.5298C48.7605 36.5298 49.2978 37.2829 49.0829 38.1617C48.7426 39.5246 46.9155 40.2419 46.1274 39.2377ZM47.8469 36.8884C46.7185 36.8884 45.8229 38.2693 46.396 39.0225C46.9692 39.7577 48.456 39.2018 48.7246 38.072C48.9038 37.4085 48.5097 36.8884 47.8469 36.8884Z" fill="#112544"/>
<path d="M2.99476 62.9273C2.70816 63.4294 2.77981 64.0392 3.15597 64.4696L4.75016 66.2808C3.99784 68.7735 3.97993 71.4993 4.75016 74.0638L3.15597 75.875C2.77981 76.3054 2.70816 76.9331 2.99476 77.4173L4.10531 79.3361C4.30235 79.6948 4.66059 79.9279 5.05466 79.9817H2.81563C2.27827 80.0714 1.72299 79.8024 1.45431 79.3361L0.343744 77.4173C0.0571486 76.9151 0.110886 76.3054 0.487043 75.875L2.08123 74.0638C1.31101 71.5173 1.32892 68.7735 2.08123 66.2808L0.487043 64.4696C0.110886 64.0392 0.0571486 63.4115 0.343744 62.9273L1.45431 61.0085C1.70508 60.5601 2.18871 60.3091 2.69025 60.3449H5.16214C4.73224 60.3808 4.32026 60.6139 4.0874 61.0085L2.99476 62.9273Z" fill="#E1E5FF"/>
<path d="M1.31093 79.4437L0.200373 77.5249C-0.122048 76.9689 -0.0503988 76.2516 0.379495 75.7674L1.90204 74.0279C1.18555 71.5531 1.16763 68.8632 1.90204 66.3346L0.379495 64.5951C-0.0503988 64.1109 -0.122048 63.3936 0.200373 62.8376L1.31093 60.9188C1.59753 60.4167 2.13489 60.1297 2.70809 60.1656H5.17997C5.26953 60.1656 5.3591 60.2373 5.3591 60.3449C5.3591 60.4525 5.28745 60.5243 5.19789 60.5243C4.80382 60.5422 4.46349 60.7574 4.26645 61.0981L3.15589 63.017C2.90512 63.4474 2.95886 63.9854 3.28128 64.362L4.87547 66.1732C4.91129 66.227 4.9292 66.2808 4.91129 66.3346C4.17689 68.7735 4.15898 71.4814 4.91129 74.01C4.9292 74.0638 4.91129 74.1355 4.87547 74.1714L3.28128 75.9826C2.95886 76.3592 2.90512 76.8972 3.15589 77.3276L4.26645 79.2464C4.44557 79.5513 4.75008 79.7486 5.09041 79.8024C5.17997 79.8203 5.25162 79.892 5.23371 79.9996C5.2158 80.1072 5.14415 80.161 5.05459 80.161H2.83347C2.22446 80.2686 1.61544 79.9817 1.31093 79.4437ZM2.61853 60.5243C2.18863 60.5243 1.81247 60.7395 1.61544 61.0981L0.50488 63.017C0.254109 63.4474 0.307845 63.9854 0.630265 64.362L2.22445 66.1732C2.26028 66.227 2.27819 66.2808 2.26028 66.3346C1.52588 68.7914 1.50797 71.4814 2.26028 74.01C2.27819 74.0638 2.26028 74.1355 2.22445 74.1714L0.630265 75.9826C0.307845 76.3592 0.254109 76.8972 0.50488 77.3276L1.61544 79.2464C1.8483 79.6589 2.31402 79.892 2.79765 79.8024C2.81556 79.8024 3.1738 79.8024 4.26645 79.8024C3.94403 79.5154 3.94403 79.354 2.85138 77.5069C2.52896 76.951 2.60061 76.2337 3.0305 75.7495L4.55304 74.01C3.83656 71.5352 3.81864 68.8452 4.55304 66.3167L3.0305 64.5772C2.60061 64.093 2.52896 63.3756 2.85138 62.8197C3.94403 60.9905 3.94403 60.7933 4.28436 60.5063C4.26645 60.5243 2.65435 60.5243 2.61853 60.5243Z" fill="#112544"/>
<path d="M16.4288 86.5811C16.2318 86.617 16.2497 86.599 13.9928 86.599C13.4196 86.599 12.918 86.2404 12.721 85.6844L11.9508 83.4069C9.55053 82.8331 7.38315 81.6315 5.66357 79.9638L7.88469 79.5154C9.67591 81.4164 12.0045 82.7793 14.6018 83.4069L15.372 85.6844C15.5511 86.1686 15.9631 86.5094 16.4288 86.5811Z" fill="#E1E5FF"/>
<path d="M14.0107 86.7784C13.3659 86.7784 12.7748 86.3659 12.5778 85.7562L11.8434 83.5683C9.49685 82.9945 7.32947 81.793 5.57407 80.1072C5.4666 79.9996 5.52034 79.8382 5.66363 79.8024L7.86684 79.354C7.92057 79.3361 7.99222 79.3541 8.02805 79.4079C9.83718 81.3267 12.13 82.6537 14.6556 83.2455C14.7093 83.2635 14.7631 83.2993 14.781 83.3711L15.5512 85.6486C15.6945 86.061 16.0348 86.348 16.4647 86.4197C16.6617 86.4556 16.6617 86.7425 16.4647 86.7784C16.2498 86.7963 16.3214 86.7784 14.0107 86.7784ZM6.0577 80.0714C7.74145 81.6136 9.80136 82.7075 12.0046 83.2455C12.0583 83.2635 12.112 83.2993 12.13 83.3711L12.9002 85.6486C13.0614 86.1148 13.4913 86.4376 13.9928 86.4376H15.6587C15.4616 86.2583 15.3004 86.0252 15.2109 85.7741L14.4765 83.5863C11.9329 82.9586 9.64015 81.6316 7.83101 79.7486L6.0577 80.0714Z" fill="#112544"/>
<path d="M7.88485 60.8291L5.68164 60.3808C7.40122 58.713 9.5686 57.5115 11.9688 56.9376L12.7391 54.6601C12.9182 54.1221 13.4376 53.7455 14.0108 53.7455C16.3215 53.7455 16.2499 53.7276 16.4469 53.7635C15.9633 53.8352 15.5513 54.1759 15.408 54.6601L14.6378 56.9376C12.0047 57.5653 9.67607 58.9461 7.88485 60.8291Z" fill="#E1E5FF"/>
<path d="M7.84877 61.0085L5.64557 60.5601C5.50227 60.5243 5.44853 60.3629 5.55601 60.2553C7.31141 58.5696 9.47879 57.3681 11.8253 56.7942L12.5597 54.6064C12.7746 53.9966 13.3478 53.5842 13.9927 53.5842C16.3034 53.5842 16.2317 53.5662 16.4466 53.6021C16.6437 53.638 16.6437 53.9249 16.4466 53.9608C16.0168 54.0325 15.6764 54.3194 15.5331 54.7319L14.7629 57.0094C14.745 57.0632 14.6912 57.117 14.6375 57.1349C12.094 57.7447 9.80121 59.0717 8.00998 60.9726C7.97416 61.0085 7.92042 61.0264 7.84877 61.0085ZM6.05755 60.2911L7.83086 60.6498C9.64 58.7489 11.9507 57.4219 14.4763 56.8121L15.2107 54.6243C15.3003 54.3553 15.4615 54.1222 15.6585 53.9608H13.9927C13.4911 53.9608 13.0612 54.2836 12.9 54.7498L12.1298 57.0273C12.1119 57.0811 12.0581 57.1349 12.0044 57.1529C9.78329 57.655 7.7413 58.731 6.05755 60.2911Z" fill="#112544"/>
<path d="M5.68235 60.3987C5.57475 60.3808 5.41335 60.327 5.18022 60.3449L5.10849 60.8112L5.23402 60.8291C5.39542 60.6857 5.53888 60.5422 5.68235 60.3987ZM5.05469 79.9996C5.35955 80.0534 5.57475 79.9817 5.68235 79.9638C5.55681 79.8382 5.43128 79.7127 5.30575 79.5872L5.05469 79.9996Z" fill="white"/>
<path d="M5.03666 80.179C4.91128 80.161 4.83963 80.0176 4.91128 79.91L5.16205 79.4975C5.19787 79.4437 5.2337 79.4079 5.28743 79.4079C5.41282 79.3899 5.41282 79.4616 5.80689 79.8382C5.86062 79.892 5.87854 79.9458 5.86062 80.0176C5.8248 80.161 5.64568 80.1431 5.57403 80.179C5.39491 80.1969 5.21579 80.2148 5.03666 80.179ZM5.07249 60.9905C4.98293 60.9726 4.91128 60.8829 4.92919 60.7933L5.00084 60.327C5.01875 60.2373 5.0904 60.1835 5.16205 60.1835C5.28743 60.1656 5.41282 60.1835 5.55612 60.2015C5.64568 60.2373 5.80689 60.2015 5.84271 60.3629C5.86063 60.4346 5.84271 60.4884 5.78898 60.5422C5.64568 60.6857 5.50238 60.8291 5.35908 60.9726C5.26952 61.0623 5.16205 60.9905 5.07249 60.9905Z" fill="#112544"/>
<path d="M30.7767 74.0638C31.529 71.5531 31.529 68.8094 30.7767 66.2808L32.3708 64.4696C32.747 64.0392 32.8187 63.4115 32.5321 62.9273L31.4215 61.0085C31.1349 60.5063 30.5617 60.2553 30.0064 60.3629L27.642 60.8291C25.8508 58.9461 23.5401 57.5653 20.9249 56.9376L20.1547 54.6601C19.9756 54.1221 19.4561 53.7455 18.8829 53.7455H16.6618C16.0886 53.7455 15.5871 54.1042 15.39 54.6601L14.6198 56.9376C12.0046 57.5653 9.67604 58.9282 7.90273 60.8291L5.53831 60.3629C4.98303 60.2553 4.40984 60.5063 4.12325 61.0085L3.01269 62.9273C2.72609 63.4294 2.77983 64.0392 3.15599 64.4696L4.75018 66.2808C3.99786 68.7914 3.99786 71.5352 4.75018 74.0458L3.15599 75.8571C2.77983 76.2875 2.72609 76.9151 3.01269 77.3993L4.12325 79.3182C4.40984 79.8203 4.98303 80.0714 5.53831 79.9638L7.88482 79.5154C9.67604 81.3984 11.9867 82.7793 14.6019 83.4069L15.3721 85.6844C15.5513 86.2224 16.0707 86.599 16.6439 86.599H18.865C19.4382 86.599 19.9398 86.2404 20.1368 85.6844L20.907 83.4069C23.5222 82.7793 25.8508 81.4163 27.6241 79.5154L29.9885 79.9817C30.5438 80.0893 31.117 79.8382 31.4036 79.3361L32.5141 77.4173C32.8007 76.9151 32.747 76.3054 32.3529 75.875L30.7767 74.0638ZM17.7545 74.7094C15.2647 74.7094 13.2227 72.6829 13.2227 70.1723C13.2227 67.6796 15.2467 65.6352 17.7545 65.6352C20.2443 65.6352 22.2863 67.6616 22.2863 70.1723C22.2863 72.6829 20.2622 74.7094 17.7545 74.7094Z" fill="white"/>
<path d="M30.7767 74.0638C31.5469 71.5173 31.529 68.7735 30.7767 66.2808L32.3709 64.4696C32.747 64.0392 32.8187 63.4115 32.5321 62.9273L31.4215 61.0085C31.1887 60.6139 30.7767 60.3629 30.3289 60.3449L30.9916 61.5106C31.2782 62.0127 31.2066 62.6224 30.8304 63.0528L30.311 63.6446C29.6661 64.3799 29.4153 65.3483 29.5945 66.3167C29.7378 67.1057 29.8094 67.9306 29.8094 68.7556C29.8094 69.5984 29.7378 70.4054 29.5945 71.1945C29.4153 72.1449 29.684 73.1313 30.311 73.8665L30.8304 74.4583C31.2066 74.8887 31.2782 75.5164 30.9916 76.0006L29.8811 77.9194C29.5945 78.4215 29.0213 78.6726 28.466 78.565L27.6958 78.4036C26.7464 78.2063 25.7613 78.4753 25.0268 79.103C23.7909 80.161 22.3579 80.986 20.7996 81.5419C19.886 81.8647 19.1695 82.582 18.865 83.4966L18.6143 84.2498C18.4351 84.7878 17.9157 85.1644 17.3425 85.1644H15.2109L15.3901 85.6844C15.5692 86.2224 16.0886 86.599 16.6618 86.599H18.8829C19.4561 86.599 19.9577 86.2404 20.1368 85.6844L20.907 83.4069C23.5222 82.7972 25.8508 81.4164 27.6241 79.5154L29.9885 79.9817C30.5438 80.0893 31.117 79.8382 31.4036 79.3361L32.5142 77.4173C32.8008 76.9151 32.747 76.3054 32.353 75.875L30.7767 74.0638Z" fill="#E1E5FF"/>
<path d="M18.8648 86.7784H16.6616C16.0167 86.7784 15.4256 86.3659 15.2286 85.7562L14.4942 83.5683C11.9507 82.9407 9.6579 81.6136 7.84877 79.7306L5.57391 80.179C4.92907 80.3045 4.28423 80.0176 3.96181 79.4437L2.85125 77.5249C2.52883 76.9689 2.60048 76.2516 3.03037 75.7674L4.55291 74.0279C3.83642 71.5531 3.81851 68.8632 4.55291 66.3346L3.03037 64.5951C2.60048 64.1109 2.52883 63.3936 2.85125 62.8376L3.96181 60.9188C4.28423 60.3629 4.92907 60.058 5.57391 60.1835L7.84877 60.6319C9.67582 58.731 11.9686 57.4039 14.4942 56.7942L15.2286 54.6063C15.4436 53.9966 16.0167 53.5842 16.6616 53.5842H18.8827C19.5275 53.5842 20.1187 53.9966 20.3157 54.6063L21.0501 56.7942C23.5936 57.4218 25.8864 58.7489 27.6955 60.6319L29.9704 60.1835C30.6152 60.058 31.2601 60.3449 31.5825 60.9188L32.693 62.8376C33.0155 63.3936 32.9438 64.1109 32.5139 64.5951L30.9914 66.3346C31.7258 68.8452 31.7079 71.5531 30.9914 74.0279L32.5139 75.7674C32.9438 76.2516 33.0155 76.9689 32.693 77.5249L31.5825 79.4437C31.2601 79.9996 30.6152 80.3045 29.9704 80.179L27.6955 79.7306C25.8685 81.6316 23.5757 82.9586 21.0501 83.5683L20.3157 85.7562C20.1007 86.3659 19.5275 86.7784 18.8648 86.7784ZM8.02789 79.3899C9.83703 81.2908 12.1298 82.6179 14.6554 83.2276C14.7092 83.2455 14.7629 83.2814 14.7808 83.3531L15.551 85.6306C15.7122 86.0969 16.1421 86.4197 16.6437 86.4197H18.8648C19.3663 86.4197 19.7962 86.0969 19.9574 85.6306L20.7277 83.3531C20.7456 83.2993 20.7993 83.2455 20.8531 83.2276C23.3966 82.6179 25.6894 81.2908 27.4806 79.3899C27.5164 79.354 27.5881 79.3182 27.6418 79.3361L30.0062 79.8024C30.4898 79.892 30.9914 79.6768 31.2422 79.2464L32.3527 77.3276C32.6035 76.8972 32.5497 76.3592 32.2273 75.9826L30.6331 74.1714C30.5973 74.1176 30.5794 74.0638 30.5973 74.01C31.3317 71.5531 31.3496 68.8452 30.5973 66.3346C30.5794 66.2808 30.5973 66.2091 30.6331 66.1732L32.2273 64.362C32.5497 63.9854 32.6035 63.4474 32.3527 63.017L31.2422 61.0981C30.9914 60.6677 30.5078 60.4525 30.0062 60.5422L27.6418 61.0085C27.5881 61.0264 27.5164 61.0085 27.4806 60.9547C25.6714 59.0538 23.3787 57.7267 20.8531 57.117C20.7993 57.099 20.7456 57.0632 20.7277 56.9914L19.9574 54.7139C19.7962 54.2477 19.3663 53.9249 18.8648 53.9249H16.6616C16.16 53.9249 15.7302 54.2477 15.5689 54.7139L14.7987 56.9914C14.7808 57.0452 14.7271 57.099 14.6733 57.117C12.1298 57.7267 9.83703 59.0538 8.0458 60.9547C8.00998 60.9905 7.93833 61.0264 7.88459 61.0085L5.52018 60.5422C5.03655 60.4525 4.535 60.6677 4.28423 61.0981L3.17367 63.017C2.9229 63.4474 2.97664 63.9854 3.29906 64.362L4.89325 66.1732C4.92907 66.227 4.94698 66.2808 4.92907 66.3346C4.19467 68.7914 4.17676 71.4814 4.92907 74.01C4.94698 74.0638 4.92907 74.1355 4.89325 74.1714L3.29906 75.9826C2.97664 76.3592 2.9229 76.8972 3.17367 77.3276L4.28423 79.2464C4.535 79.6768 5.01863 79.892 5.52018 79.8024L7.88459 79.3361C7.92042 79.3361 7.97415 79.354 8.02789 79.3899ZM17.7542 74.8887C15.157 74.8887 13.0433 72.7726 13.0433 70.1723C13.0433 67.572 15.157 65.4559 17.7542 65.4559C20.3515 65.4559 22.4652 67.572 22.4652 70.1723C22.4652 72.7726 20.3515 74.8887 17.7542 74.8887ZM17.7542 65.8325C15.354 65.8325 13.4016 67.7872 13.4016 70.1902C13.4016 72.5933 15.354 74.548 17.7542 74.548C20.1545 74.548 22.1069 72.5933 22.1069 70.1902C22.1069 67.7872 20.1545 65.8325 17.7542 65.8325Z" fill="#112544"/>
<path d="M17.7544 61.7975C13.1331 61.7975 9.3894 65.5455 9.3894 70.1723C9.3894 74.799 13.1331 78.5471 17.7544 78.5471C22.3758 78.5471 26.1194 74.799 26.1194 70.1723C26.1194 65.5455 22.3758 61.7975 17.7544 61.7975ZM17.7544 74.7094C15.2646 74.7094 13.2226 72.6829 13.2226 70.1723C13.2226 67.6796 15.2467 65.6352 17.7544 65.6352C20.2442 65.6352 22.2862 67.6617 22.2862 70.1723C22.2862 72.6829 20.2621 74.7094 17.7544 74.7094Z" fill="#8F2354"/>
<path d="M22.9488 63.6088C24.2922 65.0972 25.1162 67.0699 25.1162 69.2398C25.1162 73.8665 21.3725 77.6145 16.7512 77.6145C14.7988 77.6145 12.9896 76.9331 11.5566 75.8033C13.0792 77.489 15.2824 78.5471 17.7364 78.5471C22.3577 78.5471 26.1014 74.799 26.1014 70.1723C26.1193 67.5182 24.8833 65.151 22.9488 63.6088Z" fill="#8F2354" fill-opacity="0.9"/>
<path d="M17.7543 78.7264C13.0434 78.7264 9.21021 74.8887 9.21021 70.1723C9.21021 65.4559 13.0434 61.6182 17.7543 61.6182C22.4653 61.6182 26.2985 65.4559 26.2985 70.1723C26.2985 74.8887 22.4653 78.7264 17.7543 78.7264ZM17.7543 61.9769C13.2405 61.9769 9.56845 65.6531 9.56845 70.1723C9.56845 74.6914 13.2405 78.3677 17.7543 78.3677C22.2682 78.3677 25.9402 74.6914 25.9402 70.1723C25.9402 65.6531 22.2682 61.9769 17.7543 61.9769ZM17.7543 74.8887C15.1571 74.8887 13.0434 72.7726 13.0434 70.1723C13.0434 67.572 15.1571 65.4559 17.7543 65.4559C20.3516 65.4559 22.4653 67.572 22.4653 70.1723C22.4653 72.7726 20.3516 74.8887 17.7543 74.8887ZM17.7543 65.8325C15.3541 65.8325 13.4017 67.7872 13.4017 70.1902C13.4017 72.5933 15.3541 74.548 17.7543 74.548C20.1546 74.548 22.107 72.5933 22.107 70.1902C22.107 67.7872 20.1546 65.8325 17.7543 65.8325Z" fill="#112544"/>
<path d="M15.0494 14.5617C15.0494 18.5249 11.8431 21.717 7.9024 21.717C5.66337 21.717 3.6572 20.6769 2.34961 19.0629C3.62138 20.2106 5.30513 20.9279 7.15009 20.9279C11.1087 20.9279 14.2971 17.7179 14.2971 13.7726C14.2971 12.069 13.706 10.5088 12.7029 9.27142C14.1538 10.5805 15.0494 12.4635 15.0494 14.5617Z" fill="#E1E5FF"/>
<path d="M7.90252 21.8963C3.85436 21.8963 0.576416 18.5966 0.576416 14.5617C0.576416 10.5088 3.87227 7.22705 7.90252 7.22705C11.9507 7.22705 15.2286 10.5267 15.2286 14.5617C15.2286 18.6146 11.9328 21.8963 7.90252 21.8963ZM7.90252 7.58571C4.05139 7.58571 0.934661 10.724 0.934661 14.5617C0.934661 18.4173 4.0693 21.5377 7.90252 21.5377C11.7537 21.5377 14.8704 18.3994 14.8704 14.5617C14.8704 10.7061 11.7357 7.58571 7.90252 7.58571Z" fill="#112544"/>
<path d="M12.721 14.5617C12.721 17.2337 10.5715 19.3857 7.90262 19.3857C5.2337 19.3857 3.08423 17.2337 3.08423 14.5617C3.08423 11.8897 5.2337 9.7377 7.90262 9.7377C10.5536 9.7377 12.721 11.8897 12.721 14.5617Z" fill="#66D3D8"/>
<path d="M12.7208 14.5617C12.7208 17.2337 10.5713 19.3857 7.9024 19.3857C6.11118 19.3857 4.5349 18.3994 3.71094 16.9468C4.58864 18.0766 5.96788 18.8118 7.50833 18.8118C10.1773 18.8118 12.3267 16.6599 12.3267 13.9878C12.3267 13.1271 12.0939 12.3201 11.6998 11.6207C12.3267 12.4277 12.7208 13.4498 12.7208 14.5617Z" fill="#47B6C3"/>
<path d="M6.61287 15.6735L5.86056 14.4541C5.69935 14.1851 5.78891 13.8264 6.0576 13.665C6.32628 13.5036 6.68452 13.5933 6.84573 13.8623L7.27563 14.5617L9.08476 13.2884C9.33553 13.1091 9.69378 13.1629 9.89081 13.4319C10.0699 13.683 10.0162 14.0416 9.74752 14.2389L7.43684 15.8708C7.16815 16.0322 6.792 15.9605 6.61287 15.6735Z" fill="white"/>
<path d="M71.4557 15.6915C75.7392 15.6915 79.2117 12.215 79.2117 7.92645C79.2117 3.63793 75.7392 0.161407 71.4557 0.161407C67.1722 0.161407 63.6997 3.63793 63.6997 7.92645C63.6997 12.215 67.1722 15.6915 71.4557 15.6915Z" fill="white"/>
<path d="M79.2294 7.92643C79.2294 12.2304 75.7544 15.7094 71.4555 15.7094C69.0015 15.7094 66.8341 14.5796 65.4011 12.8042C66.7266 13.8623 68.4104 14.5079 70.2374 14.5079C74.5184 14.5079 78.0113 11.0289 78.0113 6.72492C78.0113 4.87781 77.3665 3.19209 76.2918 1.84711C78.083 3.28176 79.2294 5.4696 79.2294 7.92643Z" fill="#E1E5FF"/>
<path d="M70.13 13.0194V15.6018C69.0373 15.4225 68.0164 14.9921 67.1207 14.4003C66.87 14.6155 66.9416 14.5617 67.1207 14.4003C66.7804 14.1851 66.4759 13.9161 66.1714 13.6471C67.4073 13.3064 68.8224 13.0912 70.0942 13.0194C70.13 13.0194 70.13 13.0194 70.13 13.0194Z" fill="#8F2354"/>
<path d="M75.0737 14.9204C75.2351 14.8486 75.3427 14.8307 75.3427 14.8307C75.2531 14.8486 75.1634 14.8845 75.0737 14.9204Z" fill="#66D3D8"/>
<path d="M76.5424 13.8085C73.8376 16.1577 69.9865 16.3012 67.1384 14.4003C67.8907 13.683 68.9117 13.1629 70.0581 13.0194C70.076 13.0194 70.094 13.0194 70.1119 13.0194C72.1897 12.7505 74.9661 12.4815 76.5424 13.8085Z" fill="#8F2354"/>
<path d="M69.1983 6.31247C69.1983 6.31247 68.8043 6.5994 69.2521 7.67538L70.0223 6.36627L69.1983 6.31247Z" fill="#112544"/>
<path d="M73.4436 9.19969C73.9451 12.9656 73.9451 12.7863 73.9272 12.9298C73.7302 14.0058 70.7388 13.9878 70.5239 12.9118L70.4164 12.338L70.2552 11.5131C70.2015 11.5131 69.682 11.5669 69.6283 11.5669C67.8908 11.5131 68.1953 9.25349 69.073 7.72917C69.6641 6.68905 70.0224 5.70273 70.0224 5.70273L74.1959 7.15531L73.4436 9.19969Z" fill="#FCBBA4"/>
<path d="M70.4523 12.9298C70.4343 12.876 70.4702 12.8401 70.5239 12.8222C70.5777 12.8042 70.6135 12.8401 70.6314 12.8939C70.8284 13.8623 73.6765 13.8802 73.8556 12.9118C73.8735 12.858 73.9093 12.8401 73.9631 12.8401C74.0168 12.858 74.0526 12.8939 74.0347 12.9477C73.8019 14.1134 70.6851 14.0775 70.4523 12.9298ZM68.9118 5.77446C68.9835 6.34832 69.4671 6.67112 69.682 6.83252C71.2225 7.89057 72.548 7.06565 72.548 7.06565C72.2972 7.98024 73.0854 8.10577 73.0854 8.10577C72.7809 8.2313 72.6376 8.84102 72.9958 9.75561L73.8914 9.61215C73.9272 9.52248 73.9452 9.43282 74.0168 9.37902C77.8321 5.81033 72.6196 3.44316 70.6135 3.76595C69.5746 3.94528 69.1805 4.57294 69.0193 5.093C68.9118 5.4158 68.8939 5.70273 68.9118 5.77446ZM70.094 7.67537C70.0582 7.76504 69.897 7.65744 69.682 7.54984C69.4671 7.44224 69.288 7.38844 69.3238 7.29878C69.3596 7.20911 69.5746 7.22704 69.7895 7.33464C69.9865 7.44224 70.1298 7.58571 70.094 7.67537Z" fill="#112544"/>
<path d="M71.3487 8.24923C71.3128 8.3389 71.1515 8.2313 70.9363 8.14163C70.7211 8.05196 70.5417 7.99816 70.5776 7.9085C70.6135 7.81883 70.8287 7.83677 71.0438 7.92643C71.2411 8.0161 71.3846 8.15956 71.3487 8.24923Z" fill="#112544"/>
<path d="M69.9514 9.18175C69.7004 9.16381 69.27 9.00241 69.3417 8.75135C69.3596 8.64375 69.4672 8.60789 69.521 8.57202C69.7362 8.48235 69.9156 8.32096 70.0232 8.14163C70.0411 8.10576 70.1128 8.08783 70.1487 8.10576C70.1846 8.12369 70.2025 8.19542 70.1846 8.23129C69.8976 8.67962 69.521 8.73342 69.5031 8.78722C69.5031 8.78722 69.521 8.84102 69.5748 8.87688C69.6824 8.94862 69.8259 8.98448 69.9514 9.00242C70.0052 9.00242 70.0411 9.05622 70.0411 9.09208C70.0411 9.14588 69.9873 9.18175 69.9514 9.18175Z" fill="#E2805D"/>
<path d="M72.745 9.09209C72.6733 9.52249 72.942 9.91701 73.3182 9.98875C73.7123 10.0425 74.0705 9.75562 74.1422 9.32522C74.2138 8.89483 73.963 8.5003 73.569 8.42857C73.1749 8.35683 72.8166 8.6617 72.745 9.09209Z" fill="#FCBBA4"/>
<path d="M68.9835 9.98874C68.9477 9.95288 68.9477 9.89908 68.9656 9.86321C69.0014 9.82735 69.0552 9.82734 69.091 9.84528C69.503 10.2039 69.915 9.86321 69.9329 9.84528C69.9687 9.80941 70.0224 9.80941 70.0583 9.86321C70.0941 9.89908 70.0941 9.95288 70.0404 9.98874C69.7717 10.2398 69.3239 10.2757 68.9835 9.98874Z" fill="#E2805D"/>
<path d="M73.3721 9.28935C73.3004 9.28935 73.2466 9.19968 73.3004 9.14588L73.408 9.03828C73.4439 9.00242 73.4977 9.00242 73.5335 9.03828C73.5694 9.07415 73.5694 9.12795 73.5335 9.16381C73.4618 9.23555 73.4439 9.28935 73.3721 9.28935Z" fill="#112544"/>
<path d="M72.0645 10.9392C72.0108 11.2799 71.7063 11.9435 70.4166 12.338L70.2554 11.5131C70.5061 11.4593 71.2047 11.2799 71.9212 10.8495C71.9929 10.7957 72.0824 10.8675 72.0645 10.9392Z" fill="#E2805D"/>
<path d="M70.6495 8.7155C70.7486 8.7155 70.8289 8.63522 70.8289 8.53617C70.8289 8.43713 70.7486 8.35684 70.6495 8.35684C70.5505 8.35684 70.4702 8.43713 70.4702 8.53617C70.4702 8.63522 70.5505 8.7155 70.6495 8.7155Z" fill="#112544"/>
<path d="M69.4137 8.15957C69.5127 8.15957 69.593 8.07928 69.593 7.98023C69.593 7.88119 69.5127 7.8009 69.4137 7.8009C69.3147 7.8009 69.2344 7.88119 69.2344 7.98023C69.2344 8.07928 69.3147 8.15957 69.4137 8.15957Z" fill="#112544"/>
<path d="M75.0737 14.9204C75.2351 14.8486 75.3427 14.8307 75.3427 14.8307C75.2531 14.8486 75.1634 14.8845 75.0737 14.9204Z" fill="#66D3D8"/>
<path d="M76.614 13.7547C76.3632 13.9878 75.8975 14.3286 75.4497 14.6155L76.005 13.4498C76.2199 13.5216 76.417 13.6292 76.614 13.7547Z" fill="#8F2354"/>
<path d="M71.4554 15.8887C67.0669 15.8887 63.5203 12.3201 63.5203 7.94437C63.5203 3.56869 67.0848 0 71.4554 0C75.8439 0 79.3905 3.56869 79.3905 7.94437C79.3905 12.3201 75.8439 15.8887 71.4554 15.8887ZM71.4554 0.34073C67.2818 0.34073 63.8785 3.74802 63.8785 7.92644C63.8785 12.1049 67.2818 15.5121 71.4554 15.5121C75.6289 15.5121 79.0323 12.1049 79.0323 7.92644C79.0323 3.74802 75.6469 0.34073 71.4554 0.34073Z" fill="#112544"/>
<path d="M63.0903 21.2149C63.0903 21.7349 62.6783 22.1474 62.1768 22.1474C61.6753 22.1474 61.2454 21.7349 61.2454 21.2149C61.2454 20.7128 61.6573 20.3003 62.1768 20.3003C62.6963 20.3003 63.0903 20.7128 63.0903 21.2149ZM66.4578 21.2149C66.4578 21.7349 66.0458 22.1474 65.5443 22.1474C65.0428 22.1474 64.6129 21.7349 64.6129 21.2149C64.6129 20.7128 65.0248 20.3003 65.5443 20.3003C66.0458 20.3003 66.4578 20.7128 66.4578 21.2149ZM69.8074 21.2149C69.8074 21.7349 69.3954 22.1474 68.8939 22.1474C68.3923 22.1474 67.9625 21.7349 67.9625 21.2149C67.9625 20.7128 68.3744 20.3003 68.8939 20.3003C69.3954 20.3003 69.8074 20.7128 69.8074 21.2149ZM73.157 21.2149C73.157 21.7349 72.745 22.1474 72.2435 22.1474C71.7419 22.1474 71.312 21.7349 71.312 21.2149C71.312 20.7128 71.724 20.3003 72.2435 20.3003C72.745 20.3003 73.157 20.7128 73.157 21.2149ZM76.5245 21.2149C76.5245 21.7349 76.1125 22.1474 75.611 22.1474C75.1094 22.1474 74.6795 21.7349 74.6795 21.2149C74.6795 20.7128 75.0915 20.3003 75.611 20.3003C76.1125 20.3003 76.5245 20.7128 76.5245 21.2149ZM79.8741 21.2149C79.8741 21.7349 79.4621 22.1474 78.9606 22.1474C78.459 22.1474 78.0291 21.7349 78.0291 21.2149C78.0291 20.7128 78.4411 20.3003 78.9606 20.3003C79.4621 20.3003 79.8741 20.7128 79.8741 21.2149ZM83.2237 21.2149C83.2237 21.7349 82.8117 22.1474 82.3102 22.1474C81.8086 22.1474 81.3787 21.7349 81.3787 21.2149C81.3787 20.7128 81.7907 20.3003 82.3102 20.3003C82.8296 20.3003 83.2237 20.7128 83.2237 21.2149Z" fill="white"/>
<path d="M63.0903 28.9261C63.0903 29.4462 62.6783 29.8587 62.1768 29.8587C61.6753 29.8587 61.2454 29.4462 61.2454 28.9261C61.2454 28.424 61.6573 28.0115 62.1768 28.0115C62.6963 28.0115 63.0903 28.424 63.0903 28.9261ZM66.4578 28.9261C66.4578 29.4462 66.0458 29.8587 65.5443 29.8587C65.0428 29.8587 64.6129 29.4462 64.6129 28.9261C64.6129 28.424 65.0248 28.0115 65.5443 28.0115C66.0458 28.0115 66.4578 28.424 66.4578 28.9261ZM69.8074 28.9261C69.8074 29.4462 69.3954 29.8587 68.8939 29.8587C68.3923 29.8587 67.9625 29.4462 67.9625 28.9261C67.9625 28.424 68.3744 28.0115 68.8939 28.0115C69.3954 28.0115 69.8074 28.424 69.8074 28.9261ZM73.157 28.9261C73.157 29.4462 72.745 29.8587 72.2435 29.8587C71.7419 29.8587 71.312 29.4462 71.312 28.9261C71.312 28.424 71.724 28.0115 72.2435 28.0115C72.745 28.0115 73.157 28.424 73.157 28.9261ZM76.5245 28.9261C76.5245 29.4462 76.1125 29.8587 75.611 29.8587C75.1094 29.8587 74.6795 29.4462 74.6795 28.9261C74.6795 28.424 75.0915 28.0115 75.611 28.0115C76.1125 28.0115 76.5245 28.424 76.5245 28.9261ZM79.8741 28.9261C79.8741 29.4462 79.4621 29.8587 78.9606 29.8587C78.459 29.8587 78.0291 29.4462 78.0291 28.9261C78.0291 28.424 78.4411 28.0115 78.9606 28.0115C79.4621 28.0115 79.8741 28.424 79.8741 28.9261ZM83.2237 28.9261C83.2237 29.4462 82.8117 29.8587 82.3102 29.8587C81.8086 29.8587 81.3787 29.4462 81.3787 28.9261C81.3787 28.424 81.7907 28.0115 82.3102 28.0115C82.8296 28.0115 83.2237 28.424 83.2237 28.9261Z" fill="white"/>
</svg>
