<svg width="82" height="92" viewBox="0 0 82 92" fill="none" xmlns="http://www.w3.org/2000/svg">
<path d="M18.2462 83.0715C17.3309 83.1217 7.50377 82.0726 6.60448 85.68C5.7052 89.2873 8.15501 86.4525 18.2462 88.6202C28.3374 90.788 33.4677 92.289 37.3312 90.1209C41.1945 87.9532 50.6963 93.8728 59.1989 91.3716C67.7014 88.8703 76.2434 91.9029 77.0359 87.5936C77.8283 83.2842 47.9597 81.4415 18.2462 83.0715Z" fill="#D3D9EF"/>
<path d="M14.9891 83.1882C14.5648 86.937 24.838 85.4557 29.1344 88.55C30.3011 89.3904 32.035 89.4104 33.4236 89.0376C37.0728 88.057 36.1925 89.3986 37.5923 89.3986C43.9581 89.3986 43.1966 87.6085 44.4559 87.8229C45.7546 88.0441 51.9639 87.3343 50.9414 88.1306C49.3133 89.3986 53.134 89.9462 53.8941 90.0327C56.5607 90.3354 58.2187 88.3593 58.8941 88.4496C59.5083 88.5314 60.1204 88.627 60.7359 88.7003C61.8883 88.8377 63.0227 88.8442 64.1558 88.5758C64.8417 88.4133 65.4759 88.1147 66.1564 87.943C66.8373 87.7713 67.5477 87.7473 68.2483 87.7364C69.4674 87.7181 72.0081 88.2049 71.9251 86.9659C71.6638 83.0715 39.5396 82.3573 14.9891 83.1882ZM68.3939 62.9305C65.5634 65.7531 65.8393 66.7174 65.9768 68.405C66.1126 70.055 62.4787 70.3871 63.7138 73.949H62.9387C62.9387 73.949 57.759 73.0187 58.3807 70.4017C59.0016 67.7848 62.9036 70.8499 62.9724 68.9903C63.0421 67.1306 60.4518 64.8238 61.4882 63.7913C62.5239 62.7578 63.0758 66.1667 64.6648 65.2703C66.2524 64.3729 63.5944 62.0352 64.0088 60.3825C64.4225 58.7298 65.5277 60.5891 67.5651 61.2779C69.4416 61.9127 68.3004 57.0276 69.8077 57.5674C70.1251 58.8153 70.2987 61.0312 68.3939 62.9305Z" fill="#D3D9EF"/>
<path d="M70.5013 66.6139C69.948 68.3361 65.5976 69.3004 67.3237 70.643C69.0508 71.9855 67.4972 73.9487 67.4972 73.9487H63.7143C62.4792 70.3871 66.1127 70.0546 65.9773 68.4047C65.8398 66.717 65.5636 65.7531 68.3944 62.9302C70.2988 61.0312 70.1256 58.815 69.8089 57.567C69.9388 57.6135 70.0879 57.7004 70.2594 57.8337C72.4353 59.5214 69.7412 62.8607 69.1889 63.6529C68.6364 64.4451 71.0535 64.8923 70.5013 66.6139Z" fill="#E1E6F4"/>
<path d="M7.12492 74.0728C8.07899 73.9653 9.20284 74.9879 9.58698 75.3713C10.0014 75.4544 10.7486 75.6288 11.2267 75.8758C10.9973 75.3835 10.8133 74.8532 10.6993 74.2825C10.5951 73.7614 10.4451 73.2999 10.2651 72.8887C9.94221 72.4785 9.70267 72.1114 9.52778 71.6466C8.76392 70.6708 7.84421 70.1703 7.25014 69.9311C6.604 70.2019 6.09022 70.3369 5.25932 70.2667C4.32397 70.188 4.28552 68.2835 5.3386 68.2839C6.30253 68.2842 7.31036 69.5708 7.47402 69.789C8.00209 70.0193 8.71458 70.4282 9.3682 71.1241C9.34575 71.0308 9.32397 70.9361 9.30491 70.8333C9.11403 69.8029 11.1651 69.2 11.4754 70.3339C11.7343 71.2795 10.8459 72.5817 10.5438 72.9881C10.6948 73.3651 10.8218 73.7797 10.9136 74.2401C11.2576 75.9627 12.2464 77.3219 13.2464 78.3051C13.2399 77.9842 13.3495 77.5937 13.4502 77.2842C13.178 76.4811 13.0548 75.886 13.2175 74.9187C13.3913 73.8852 15.5254 74.0172 15.4284 75.1888C15.3485 76.1568 14.0923 77.0684 13.6571 77.3568C13.5353 77.7338 13.389 78.2617 13.5036 78.5294C13.5067 78.5369 13.505 78.5443 13.5063 78.5518C14.6775 79.6294 15.7877 80.1869 15.8088 80.1974C15.8633 80.2238 15.8854 80.2893 15.8588 80.3436C15.8548 80.3521 15.8497 80.3596 15.8442 80.366C15.8126 80.4033 15.7581 80.4159 15.7125 80.3931C15.6782 80.3765 12.9065 78.9895 11.4461 76.3139C11.4434 76.3101 11.4393 76.3077 11.4369 76.3037C11.2719 76.0221 10.3155 75.7442 9.58324 75.5932C8.84047 76.019 8.27565 76.2596 7.28756 76.2881C6.23755 76.3183 5.95378 74.2048 7.12492 74.0728ZM8.62713 55.478C8.62713 56.958 9.70131 58.189 11.1157 58.4346C9.70097 58.6799 8.62713 59.9109 8.62713 61.3912C8.62713 59.9112 7.55194 58.6803 6.13717 58.4346C7.5516 58.189 8.62713 56.958 8.62713 55.478Z" fill="#D3D9EF"/>
<path d="M8.80075 64.9653C8.80075 65.9065 9.48397 66.6895 10.3836 66.8456C9.48397 67.0017 8.80075 67.7844 8.80075 68.726C8.80075 67.7848 8.11684 67.0017 7.21722 66.8456C8.11684 66.6892 8.80075 65.9065 8.80075 64.9653ZM5.78067 50.9387C5.78067 51.7296 6.35468 52.3874 7.11072 52.5187C6.35468 52.6501 5.78067 53.3076 5.78067 54.0988C5.78067 53.3079 5.20599 52.6501 4.44995 52.5187C5.20599 52.3874 5.78067 51.7299 5.78067 50.9387Z" fill="#F1F2FF"/>
<path d="M3.55273 60.3323C3.55273 60.5558 3.73477 60.7374 3.95899 60.7374C4.18322 60.7374 4.36525 60.5558 4.36525 60.3323C4.36525 60.1087 4.18322 59.9271 3.95899 59.9271C3.73477 59.9271 3.55273 60.1087 3.55273 60.3323Z" fill="#D3D9EF"/>
<path d="M0.75 65.4956C0.75 65.9251 1.0991 66.2729 1.52952 66.2729C1.96028 66.2729 2.30903 65.9248 2.30903 65.4956C2.30903 65.0664 1.95993 64.7183 1.52952 64.7183C1.0991 64.7179 0.75 65.066 0.75 65.4956Z" fill="#F1F2FF"/>
<path d="M7.95869 80.69C8.36816 80.69 8.7001 80.359 8.7001 79.9507C8.7001 79.5424 8.36816 79.2114 7.95869 79.2114C7.54922 79.2114 7.21729 79.5424 7.21729 79.9507C7.21729 80.359 7.54922 80.69 7.95869 80.69Z" fill="#F1F2FF"/>
<path d="M50.5602 16.3036V78.0079C50.5602 81.6061 47.9144 84.5247 44.6497 84.5247H33.9699C33.5013 84.5247 33.0386 84.5416 32.5929 84.4029C32.4993 84.3747 32.4027 84.3605 32.3006 84.3605H29.9981C29.896 84.3605 29.7994 84.3747 29.7086 84.4029C29.257 84.5416 28.7974 84.5247 28.3288 84.5247H17.6487C14.384 84.5247 11.7351 81.6061 11.7351 78.0079V16.3036C11.7351 12.7054 14.3836 9.78683 17.6487 9.78683H44.6493C47.9141 9.78683 50.5602 12.7054 50.5602 16.3036Z" fill="#4F3F3D"/>
<path d="M48.279 15.4465C47.9732 14.1036 47.0933 13.0138 45.9412 12.51C45.4992 12.3156 45.0167 12.2101 44.5107 12.2101H17.7881C15.6438 12.2101 13.9031 14.127 13.9031 16.4919V77.8176C13.9031 80.0301 15.4271 81.8511 17.3801 82.076C17.5138 82.0923 17.6499 82.0994 17.7881 82.0994H44.5111C46.6553 82.0994 48.3961 80.1821 48.3961 77.8176V16.4919C48.3961 16.1309 48.3556 15.7818 48.279 15.4465Z" fill="url(#paint0_radial_138_480)"/>
<path d="M50.5601 16.3036V34.0332H35.4829L33.1719 37.3793L30.6367 34.0332H27.0171C25.2256 34.0332 23.7751 32.5865 23.7751 30.8004V9.78683H44.6496C47.914 9.78683 50.5601 12.7054 50.5601 16.3036Z" fill="#D3D9EF"/>
<path d="M45.77 15.3885H43.4243V15.6464H45.77V15.3885Z" fill="#F1F2FF"/>
<path d="M45.77 16.1404H43.4243V16.3982H45.77V16.1404Z" fill="#F1F2FF"/>
<path d="M45.77 16.8923H43.4243V17.1501H45.77V16.8923Z" fill="#F1F2FF"/>
<path opacity="0.25" d="M48.279 15.4465C36.7836 28.8105 25.3263 42.186 13.9031 55.5734V49.9998C24.5826 37.5031 35.262 25.0064 45.9412 12.5096C47.0933 13.0138 47.9731 14.1036 48.279 15.4465ZM48.3961 20.3496V45.7299C38.0504 57.8422 27.7132 69.9593 17.3801 82.0763C15.4271 81.8514 13.9031 80.0304 13.9031 77.8179V60.6386C25.3648 47.197 36.8622 33.7675 48.3961 20.3496Z" fill="#F1F2FF"/>
<path d="M18.3615 14.9498C17.5598 14.9498 16.9089 15.5989 16.9089 16.3982C16.9089 17.1976 17.5598 17.8467 18.3615 17.8467C19.1631 17.8467 19.814 17.1976 19.814 16.3982C19.814 15.5989 19.1631 14.9498 18.3615 14.9498ZM19.0171 16.8973C19.0171 17.0215 18.9161 17.1223 18.7915 17.1223H18.566V16.3769H18.157V17.1223H17.9314C17.8069 17.1223 17.7058 17.0215 17.7058 16.8973V16.1475L18.223 15.5687C18.2958 15.4866 18.4275 15.4866 18.5003 15.5687L19.0175 16.1475V16.8973H19.0171ZM71.9416 3.13742H29.1808C27.3917 3.13742 25.9413 4.58381 25.9413 6.3678V28.8875C25.9413 30.6715 27.3917 32.1179 29.1808 32.1179H71.9416C73.7306 32.1179 75.1811 30.6715 75.1811 28.8875V6.3678C75.1811 4.58381 73.7306 3.13742 71.9416 3.13742Z" fill="#F1F2FF"/>
<path d="M39.1117 29.9977L35.3366 35.4643L31.3179 30.1585L39.1117 29.9977Z" fill="#F1F2FF"/>
<path d="M24.4104 45.0506H18.3634C18.3253 45.0506 18.2947 45.0201 18.2947 44.9821V37.611C18.2947 37.573 18.3253 37.5425 18.3634 37.5425H24.4104C24.4485 37.5425 24.4791 37.573 24.4791 37.611V44.9821C24.4791 45.0198 24.4485 45.0506 24.4104 45.0506Z" fill="#F1F2FF"/>
<path opacity="0.5" d="M18.2947 40.8777V44.5159C18.2947 44.8114 18.5349 45.051 18.8313 45.051H23.9429C24.2392 45.051 24.4794 44.8114 24.4794 44.5159V40.8777H18.2947Z" fill="#E1E6F4"/>
<path d="M23.9109 43.8509H18.7993V44.2601H23.9109V43.8509Z" fill="#D3D9EF"/>
<path d="M31.6047 45.0506H25.5577C25.5196 45.0506 25.489 45.0201 25.489 44.9821V37.611C25.489 37.573 25.5196 37.5425 25.5577 37.5425H31.6047C31.6428 37.5425 31.6734 37.573 31.6734 37.611V44.9821C31.6734 45.0198 31.6428 45.0506 31.6047 45.0506Z" fill="#F1F2FF"/>
<path opacity="0.5" d="M25.489 40.8777V44.5159C25.489 44.8114 25.7292 45.051 26.0256 45.051H31.1372C31.4335 45.051 31.6738 44.8114 31.6738 44.5159V40.8777H25.489Z" fill="#E1E6F4"/>
<path d="M31.1053 43.8509H25.9937V44.2601H31.1053V43.8509Z" fill="#D3D9EF"/>
<path d="M38.799 45.0506H32.7521C32.714 45.0506 32.6833 45.0201 32.6833 44.9821V37.611C32.6833 37.573 32.714 37.5425 32.7521 37.5425H38.799C38.8371 37.5425 38.8678 37.573 38.8678 37.611V44.9821C38.8678 45.0198 38.8371 45.0506 38.799 45.0506Z" fill="#F1F2FF"/>
<path opacity="0.5" d="M32.6833 40.8777V44.5159C32.6833 44.8114 32.9236 45.051 33.2196 45.051H38.3312C38.6275 45.051 38.8678 44.8114 38.8678 44.5159V40.8777H32.6833Z" fill="#E1E6F4"/>
<path d="M38.2996 43.8509H33.188V44.2601H38.2996V43.8509Z" fill="#D3D9EF"/>
<path d="M45.9934 45.0506H39.9464C39.9083 45.0506 39.8777 45.0201 39.8777 44.9821V37.611C39.8777 37.573 39.9083 37.5425 39.9464 37.5425H45.9934C46.0315 37.5425 46.0621 37.573 46.0621 37.611V44.9821C46.0621 45.0198 46.0315 45.0506 45.9934 45.0506Z" fill="#F1F2FF"/>
<path opacity="0.5" d="M39.8777 40.8777V44.5159C39.8777 44.8114 40.1179 45.051 40.4143 45.051H45.5259C45.8222 45.051 46.0624 44.8114 46.0624 44.5159V40.8777H39.8777Z" fill="#E1E6F4"/>
<path d="M45.4939 43.8509H40.3823V44.2601H45.4939V43.8509Z" fill="#D3D9EF"/>
<path d="M36.55 10.7226H35.3846L35.1978 11.2726H34.4016L35.5316 8.15858H36.4122L37.5421 11.2726H36.7371L36.55 10.7226ZM35.9674 8.99731L35.585 10.1373H36.3543L35.9674 8.99731ZM40.3349 11.2729H39.5745V10.9357C39.423 11.1487 39.1563 11.2994 38.8225 11.2994C38.2488 11.2994 37.8616 10.9048 37.8616 10.2435V8.79747H38.6177V10.1414C38.6177 10.4786 38.8089 10.6649 39.0937 10.6649C39.3873 10.6649 39.5741 10.4786 39.5741 10.1414V8.79747H40.3346V11.2729H40.3349ZM41.0018 9.42753H40.6993V8.7978H41.0018V8.19455H41.7623V8.7978H42.2604V9.42753H41.7623V10.421C41.7623 10.5672 41.8245 10.6293 41.9936 10.6293H42.2648V11.2726H41.878C41.3621 11.2726 41.0018 11.0551 41.0018 10.4121V9.42753ZM42.6871 7.99029H43.4479V9.13031C43.599 8.91723 43.8705 8.771 44.2128 8.771C44.7776 8.771 45.1559 9.16118 45.1559 9.82653V11.2726H44.3996V9.92866C44.3996 9.59174 44.2128 9.40513 43.9236 9.40513C43.6343 9.40513 43.4479 9.5914 43.4479 9.92866V11.2726H42.6871V7.99029ZM46.7878 11.3082C46.0583 11.3082 45.5336 10.8203 45.5336 10.0352C45.5336 9.25008 46.0494 8.76218 46.7878 8.76218C47.5129 8.76218 48.0246 9.24126 48.0246 9.99516C48.0246 10.0661 48.0202 10.1414 48.0113 10.2171H46.2897C46.3165 10.5407 46.5166 10.6917 46.7613 10.6917C46.9749 10.6917 47.095 10.5852 47.1573 10.4522H47.9668C47.8463 10.9357 47.406 11.3082 46.7878 11.3082ZM46.2937 9.79566H47.2458C47.2458 9.52524 47.0321 9.36985 46.7786 9.36985C46.5299 9.36985 46.3383 9.52083 46.2937 9.79566ZM50.1369 9.92866C50.1369 9.59174 49.9501 9.40513 49.6609 9.40513C49.3717 9.40513 49.1852 9.5914 49.1852 9.92866V11.2726H48.4244V8.79747H49.1852V9.1259C49.3363 8.91757 49.603 8.771 49.9368 8.771C50.5105 8.771 50.8933 9.16118 50.8933 9.82653V11.2726H50.1369V9.92866ZM51.5418 9.42753H51.2393V8.7978H51.5418V8.19455H52.3022V8.7978H52.8004V9.42753H52.3022V10.421C52.3022 10.5672 52.3645 10.6293 52.5336 10.6293H52.8051V11.2726H52.4183C51.9025 11.2726 51.5421 11.0551 51.5421 10.4121V9.42753H51.5418ZM53.1559 8.13246C53.1559 7.90174 53.3383 7.71988 53.6095 7.71988C53.8766 7.71988 54.059 7.90174 54.059 8.13246C54.059 8.35876 53.8766 8.54062 53.6095 8.54062C53.3383 8.54028 53.1559 8.35842 53.1559 8.13246ZM53.2274 8.7978H53.9882V11.2729H53.2274V8.7978ZM55.6333 8.76218C56.256 8.76218 56.6966 9.10384 56.8256 9.69387H56.0161C55.9538 9.52083 55.8293 9.40988 55.62 9.40988C55.3485 9.40988 55.1621 9.62296 55.1621 10.0352C55.1621 10.4478 55.3489 10.6605 55.62 10.6605C55.829 10.6605 55.9494 10.5584 56.0161 10.3765H56.8256C56.6966 10.9486 56.2563 11.3079 55.6333 11.3079C54.9038 11.3079 54.388 10.82 54.388 10.0349C54.388 9.25449 54.9038 8.76218 55.6333 8.76218ZM58.1729 8.76218C58.5421 8.76218 58.8045 8.93081 58.9382 9.14795V8.79747H59.699V11.2726H58.9382V10.9221C58.8004 11.1396 58.5377 11.3079 58.1685 11.3079C57.5636 11.3079 57.0787 10.8112 57.0787 10.0304C57.0787 9.25008 57.5636 8.76218 58.1729 8.76218ZM58.3951 9.42312C58.1103 9.42312 57.8524 9.63619 57.8524 10.0308C57.8524 10.4254 58.1103 10.6473 58.3951 10.6473C58.6843 10.6473 58.9378 10.4298 58.9378 10.0352C58.9378 9.6406 58.6843 9.42312 58.3951 9.42312ZM60.3696 9.42753H60.0671V8.7978H60.3696V8.19455H61.1301V8.7978H61.6282V9.42753H61.1301V10.421C61.1301 10.5672 61.1923 10.6293 61.3614 10.6293H61.633V11.2726H61.2461C60.7303 11.2726 60.37 11.0551 60.37 10.4121V9.42753H60.3696ZM61.9838 8.13246C61.9838 7.90174 62.1661 7.71988 62.4373 7.71988C62.7044 7.71988 62.8868 7.90174 62.8868 8.13246C62.8868 8.35876 62.7044 8.54062 62.4373 8.54062C62.1661 8.54028 61.9838 8.35842 61.9838 8.13246ZM62.0552 8.7978H62.816V11.2729H62.0552V8.7978ZM64.4969 11.3082C63.7674 11.3082 63.2158 10.8203 63.2158 10.0352C63.2158 9.25008 63.7806 8.76218 64.5057 8.76218C65.2352 8.76218 65.7956 9.25008 65.7956 10.0352C65.7956 10.8203 65.2264 11.3082 64.4969 11.3082ZM64.4969 10.6517C64.7684 10.6517 65.0215 10.4522 65.0215 10.0352C65.0215 9.6138 64.7725 9.41871 64.5057 9.41871C64.2298 9.41871 63.9899 9.6138 63.9899 10.0352C63.9899 10.4522 64.2209 10.6517 64.4969 10.6517ZM67.9127 9.92866C67.9127 9.59174 67.7259 9.40513 67.4366 9.40513C67.1474 9.40513 66.961 9.5914 66.961 9.92866V11.2726H66.2002V8.79747H66.961V9.1259C67.112 8.91757 67.3788 8.771 67.7126 8.771C68.2863 8.771 68.669 9.16118 68.669 9.82653V11.2726H67.9127V9.92866Z" fill="#D3D9EF"/>
<path opacity="0.25" d="M43.0461 56.333H19.5895C19.502 56.333 19.4309 56.2625 19.4309 56.1749V51.2098C19.4309 51.1226 19.5017 51.0517 19.5895 51.0517H43.0461C43.1335 51.0517 43.2046 51.1222 43.2046 51.2098V56.1749C43.2046 56.2621 43.1335 56.333 43.0461 56.333Z" fill="#F1F2FF"/>
<path d="M24.8228 54.8639C24.1957 54.8639 23.6853 54.3957 23.6853 53.7331C23.6853 53.0701 24.1957 52.6053 24.8228 52.6053C25.4529 52.6053 25.9538 53.0701 25.9538 53.7331C25.9538 54.396 25.4498 54.8639 24.8228 54.8639ZM24.8228 54.374C25.1756 54.374 25.4056 54.1195 25.4056 53.7331C25.4056 53.3405 25.1756 53.0921 24.8228 53.0921C24.4638 53.0921 24.2369 53.3405 24.2369 53.7331C24.2369 54.1195 24.4638 54.374 24.8228 54.374ZM26.1331 52.6368H27.8435V53.0674H27.2576V54.8422H26.719V53.0674H26.1331V52.6368ZM28.9868 54.0503H28.653V54.8419H28.1144V52.6365H28.9871C29.5291 52.6365 29.8 52.9412 29.8 53.3466C29.7996 53.7113 29.5509 54.0503 28.9868 54.0503ZM28.9459 53.6231C29.1603 53.6231 29.2515 53.5163 29.2515 53.3466C29.2515 53.177 29.16 53.0701 28.9459 53.0701H28.653V53.6231H28.9459ZM31.7683 52.6117C32.2944 52.6117 32.6914 52.9069 32.8173 53.3846H32.2249C32.1334 53.1963 31.9667 53.1016 31.7619 53.1016C31.4311 53.1016 31.2042 53.3466 31.2042 53.7361C31.2042 54.1256 31.4311 54.3709 31.7619 54.3709C31.9667 54.3709 32.1337 54.2766 32.2249 54.088H32.8173C32.6914 54.5653 32.2944 54.8578 31.7683 54.8578C31.1161 54.8578 30.656 54.396 30.656 53.7361C30.656 53.0765 31.1161 52.6117 31.7683 52.6117ZM33.9476 54.8673C33.4311 54.8673 33.0402 54.5216 33.0402 53.9658C33.0402 53.4097 33.4403 53.0643 33.9538 53.0643C34.4706 53.0643 34.8673 53.4097 34.8673 53.9658C34.8677 54.5216 34.4645 54.8673 33.9476 54.8673ZM33.9476 54.4025C34.1399 54.4025 34.3195 54.261 34.3195 53.9658C34.3195 53.6672 34.1433 53.5291 33.9541 53.5291C33.7588 53.5291 33.5887 53.6672 33.5887 53.9658C33.5887 54.261 33.7523 54.4025 33.9476 54.4025ZM35.8217 53.064C36.0548 53.064 36.2566 53.1709 36.3638 53.331V52.5174H36.9024V54.8419H36.3638V54.5904C36.2661 54.7506 36.0803 54.867 35.8217 54.867C35.3903 54.867 35.0466 54.5151 35.0466 53.9621C35.047 53.4094 35.3903 53.064 35.8217 53.064ZM35.9793 53.5322C35.7775 53.5322 35.5948 53.6832 35.5948 53.9624C35.5948 54.242 35.7775 54.3991 35.9793 54.3991C36.1841 54.3991 36.3634 54.245 36.3634 53.9655C36.3638 53.6859 36.1841 53.5322 35.9793 53.5322ZM38.0739 54.8673C37.557 54.8673 37.1855 54.5216 37.1855 53.9658C37.1855 53.4097 37.5509 53.0643 38.0739 53.0643C38.5873 53.0643 38.9497 53.4036 38.9497 53.9376C38.9497 53.9879 38.9466 54.0411 38.9401 54.0947H37.721C37.7401 54.3241 37.8816 54.431 38.0551 54.431C38.2062 54.431 38.2913 54.3557 38.3355 54.2613H38.9088C38.8238 54.6033 38.5118 54.8673 38.0739 54.8673ZM37.7244 53.7962H38.3985C38.3985 53.6045 38.247 53.4945 38.0677 53.4945C37.8911 53.4942 37.7557 53.6011 37.7244 53.7962Z" fill="#F1F2FF"/>
<path d="M33.2869 17.636C33.2869 16.4753 33.9922 15.8459 35.4808 15.8459C36.8911 15.8459 37.6223 16.4753 37.6223 17.5769V17.7541H36.2641V17.5081C36.2641 17.0161 35.9769 16.8295 35.5199 16.8295C35.0106 16.8295 34.7234 17.0164 34.7234 17.6753V18.9344C34.9714 18.5409 35.4155 18.3244 36.0555 18.3244C37.1133 18.3244 37.6485 18.8849 37.6485 19.898V21.1571C37.6485 22.2588 36.8782 22.8882 35.4679 22.8882C34.0575 22.8882 33.2872 22.2588 33.2872 21.1571V17.636H33.2869ZM34.7234 19.9869V21.2264C34.7234 21.7183 35.0106 21.8951 35.4675 21.8951C35.9248 21.8951 36.212 21.718 36.212 21.2264V19.9869C36.212 19.495 35.9248 19.3083 35.4675 19.3083C35.0109 19.308 34.7234 19.495 34.7234 19.9869ZM43.5172 17.5769C43.5172 16.4753 44.2875 15.8459 45.6979 15.8459C47.1082 15.8459 47.8786 16.4753 47.8786 17.5769V21.1575C47.8786 22.2592 47.1079 22.8885 45.6979 22.8885C44.2879 22.8885 43.5172 22.2592 43.5172 21.1575V17.5769ZM44.9537 21.2264C44.9537 21.7183 45.2409 21.9049 45.6982 21.9049C46.1552 21.9049 46.4424 21.718 46.4424 21.2264V17.5081C46.4424 17.0161 46.1552 16.8295 45.6982 16.8295C45.2409 16.8295 44.9537 17.0164 44.9537 17.5081V21.2264ZM55.9946 16.8295C55.5373 16.8295 55.2501 17.0164 55.2501 17.5081V18.2457H53.8922V17.5769C53.8922 16.4753 54.6234 15.8459 56.0337 15.8459C57.444 15.8459 58.1752 16.4753 58.1752 17.5769C58.1752 19.7409 55.3154 20.5474 55.3154 21.6786C55.3154 21.7278 55.3154 21.777 55.3287 21.8262H58.0449V22.8098H53.8922V21.964C53.8922 19.9377 56.7387 19.6032 56.7387 17.6163C56.739 16.9968 56.4515 16.8295 55.9946 16.8295ZM68.3665 21.0984C68.3665 22.2592 67.6611 22.8885 66.1725 22.8885C64.7622 22.8885 64.031 22.2592 64.031 21.1575V20.9804H65.3889V21.2264C65.3889 21.7183 65.6764 21.9049 66.1334 21.9049C66.6427 21.9049 66.9299 21.718 66.9299 21.0591V19.8C66.6819 20.1936 66.2379 20.41 65.5978 20.41C64.54 20.41 64.0048 19.8495 64.0048 18.8364V17.5773C64.0048 16.4756 64.7751 15.8462 66.1855 15.8462C67.5958 15.8462 68.3661 16.4756 68.3661 17.5773V21.0984H68.3665ZM66.9296 18.7475V17.5081C66.9296 17.0161 66.6424 16.8393 66.1855 16.8393C65.7282 16.8393 65.441 17.0164 65.441 17.5081V18.7475C65.441 19.2395 65.7282 19.4261 66.1855 19.4261C66.6424 19.4261 66.9296 19.2395 66.9296 18.7475Z" fill="#D3D9EF"/>
<path d="M38.3868 25.0549H32.7832V25.4149H38.3868V25.0549Z" fill="#D3D9EF"/>
<path d="M48.4998 25.0549H42.8962V25.4149H48.4998V25.0549Z" fill="#D3D9EF"/>
<path d="M58.6126 25.0549H53.009V25.4149H58.6126V25.0549Z" fill="#D3D9EF"/>
<path d="M68.7257 25.0549H63.1221V25.4149H68.7257V25.0549Z" fill="#D3D9EF"/>
<path d="M33.0853 4.84676C33.0853 5.18062 33.0699 5.55215 33.0397 5.93894C33.0243 6.25007 32.9941 6.58359 32.9485 6.92491C32.9029 7.28897 32.8495 7.65303 32.7736 8.03236C32.0662 11.6882 30.218 14.0544 27.4265 14.8965C27.3962 14.904 27.3656 14.9118 27.32 14.9267L27.2288 14.9495L27.1377 14.9267C27.0921 14.9115 27.0614 14.904 27.0386 14.8965C24.2472 14.0622 22.399 11.6882 21.6916 8.03236C21.1669 5.32448 21.4483 2.89007 21.4558 2.79134L21.5014 2.45748L21.8362 2.46494H21.973C24.4146 2.46494 26.3619 0.826511 26.9019 0.326058L26.9172 0.31079C26.9172 0.31079 26.94 0.295522 26.9706 0.265325L27.2292 0L27.4953 0.257861C27.5255 0.295861 27.5487 0.318594 27.5562 0.318594C28.1036 0.82685 30.0509 2.46494 32.485 2.46494H32.6297L32.9645 2.45748L33.0026 2.79134C33.009 2.84461 33.108 3.65619 33.0853 4.84676Z" fill="#6F9DF7"/>
<path d="M27.8 14.3744C27.6411 14.4358 27.4747 14.4935 27.3046 14.5437C27.3046 14.5437 27.29 14.5508 27.2321 14.5654C27.1818 14.5508 27.1563 14.5437 27.1563 14.5437C20.6605 12.6118 21.8283 2.83275 21.8283 2.83275C24.4778 2.90094 26.5962 1.11696 27.1563 0.59411C27.1563 0.59411 27.1852 0.569003 27.2321 0.525574C27.2321 0.525574 27.2321 0.529306 27.2359 0.532699C27.2757 0.564931 27.3046 0.593771 27.3046 0.593771C27.8684 1.11628 29.9868 2.9006 32.6363 2.83241C32.6367 2.83275 33.7428 12.1072 27.8 14.3744Z" fill="#ADBCFF"/>
<path opacity="0.2" d="M27.8001 14.3744C31.6317 11.3825 31.7004 4.70697 31.7004 4.70697C31.7004 4.70697 31.5449 4.97738 29.6872 3.66162C27.8978 2.40013 27.2799 0.662629 27.2363 0.53302C27.2761 0.565253 27.3051 0.594092 27.3051 0.594092C27.8689 1.1166 29.9873 2.90093 32.6368 2.83273C32.6368 2.83273 33.743 12.1072 27.8001 14.3744Z" fill="#F1F2FF"/>
<path opacity="0.23" d="M33.0851 4.84677C33.0851 5.18063 33.0698 5.55216 33.0396 5.93895L27.7912 12.2341L24.0947 8.44189L23.686 7.31918L27.7915 8.81341L33.0851 4.84677Z" fill="#D3D9EF"/>
<path d="M23.686 7.31918L25.539 5.60305L27.3832 7.68867L34.471 3.80719L27.3832 11.1067L23.686 7.31918Z" fill="#6F9DF7"/>
<path d="M72.2522 72.1918C71.5574 72.2122 70.8575 73.0594 70.6214 73.3732C70.3329 73.4753 69.8153 73.6762 69.4982 73.9022C69.6119 73.5259 69.6894 73.1272 69.7126 72.7069C69.7337 72.3228 69.7939 71.977 69.8807 71.6639C70.0698 71.3371 70.2039 71.0494 70.2815 70.6986C70.7286 69.9213 71.3363 69.469 71.7374 69.2369C72.2281 69.3649 72.6102 69.4093 73.1981 69.2743C73.8602 69.1226 73.6921 67.7539 72.9378 67.8618C72.2471 67.9605 71.6571 68.9852 71.5622 69.1579C71.2076 69.3767 70.7388 69.7425 70.342 70.3077C70.3485 70.2385 70.3546 70.1686 70.3577 70.093C70.3887 69.3353 68.8572 69.1124 68.7514 69.9566C68.6629 70.6606 69.4332 71.5031 69.6915 71.7633C69.6221 72.0486 69.5734 72.3587 69.5547 72.698C69.4849 73.9673 68.916 75.0422 68.3005 75.8487C68.2723 75.618 68.1535 75.3496 68.0498 75.1379C68.1624 74.5346 68.1896 74.0956 67.9739 73.4194C67.7432 72.6967 66.2277 73.0088 66.4172 73.8384C66.5737 74.5238 67.5676 75.0486 67.9089 75.2112C68.0348 75.4687 68.194 75.8321 68.1393 76.0356C68.1375 76.0411 68.1399 76.0465 68.1396 76.0519C67.4111 76.9436 66.6728 77.4562 66.6585 77.4657C66.6224 77.4902 66.6129 77.5394 66.6377 77.5757C66.6415 77.5811 66.6459 77.5862 66.6506 77.5903C66.6772 77.6137 66.7173 77.6171 66.748 77.5964C66.7708 77.5808 68.6146 76.3044 69.3863 74.2384C69.388 74.2354 69.3903 74.2333 69.3917 74.2303C69.4812 74.0118 70.1379 73.7149 70.6469 73.532C71.2229 73.7614 71.6523 73.876 72.3631 73.7956C73.1185 73.7105 73.1049 72.167 72.2522 72.1918Z" fill="#D3D9EF"/>
<path d="M50.8727 81.6349H37.1415C37.1034 81.6349 37.0728 81.6044 37.0728 81.5664V64.8662C37.0728 64.8282 37.1034 64.7977 37.1415 64.7977H50.8727C50.9108 64.7977 50.9414 64.8282 50.9414 64.8662V81.5664C50.9414 81.6041 50.9108 81.6349 50.8727 81.6349Z" fill="#D3D9EF"/>
<path d="M51.3922 82.5741H37.661C37.6229 82.5741 37.5923 82.5436 37.5923 82.5056V65.8054C37.5923 65.7674 37.6229 65.7368 37.661 65.7368H51.3922C51.4303 65.7368 51.4609 65.7674 51.4609 65.8054V82.5056C51.4609 82.5436 51.4303 82.5741 51.3922 82.5741Z" fill="#F1F2FF"/>
<path d="M48.4555 70.2674C47.6038 70.2097 46.6552 70.0377 45.9703 69.4921C45.1918 68.8722 45.0281 67.951 44.9832 67.0078C44.9632 66.5833 44.9676 66.1603 44.9774 65.7368H38.6311C38.0574 65.7368 37.5923 66.2006 37.5923 66.7727V81.5379C37.5923 82.1099 38.0574 82.5741 38.6311 82.5741H50.4218C50.9955 82.5741 51.4609 82.1103 51.4609 81.5379V70.134C50.4681 70.2535 49.4555 70.3349 48.4555 70.2674Z" fill="#D3D9EF"/>
<path d="M50.1874 79.8842H38.7244V80.8013H50.1874V79.8842Z" fill="#D3D9EF"/>
<path d="M40.5908 71.0925C40.5908 69.4615 41.582 68.577 43.6742 68.577C45.6558 68.577 46.6837 69.4615 46.6837 71.0094V71.2584H44.7749V70.9127C44.7749 70.2216 44.3714 69.9589 43.729 69.9589C43.0131 69.9589 42.6099 70.2216 42.6099 71.1475V72.9169C42.9586 72.3638 43.5823 72.0598 44.4816 72.0598C45.9682 72.0598 46.7205 72.8477 46.7205 74.2713V76.0407C46.7205 77.5889 45.6374 78.4738 43.6558 78.4738C41.6742 78.4738 40.5912 77.5892 40.5912 76.0407V71.0925H40.5908ZM42.6095 74.3958V76.1371C42.6095 76.8282 43.0131 77.0773 43.6555 77.0773C44.2979 77.0773 44.7014 76.8282 44.7014 76.1371V74.3958C44.7014 73.7047 44.2979 73.4421 43.6555 73.4421C43.0131 73.4421 42.6095 73.7047 42.6095 74.3958Z" fill="#D3D9EF"/>
<path opacity="0.5" d="M37.5923 73.2161V81.3744C37.5923 82.0367 38.1309 82.5738 38.7951 82.5738H50.2582C50.9223 82.5738 51.4609 82.0367 51.4609 81.3744V73.2161H37.5923Z" fill="#E1E6F4"/>
<path d="M44.4253 69.5722C44.4253 69.5722 51.5628 56.7989 48.3961 57.3658C32.8173 60.1558 34.6257 69.5722 34.6257 69.5722H33.0238C32.7581 69.5722 32.5427 69.7869 32.5427 70.0519V84.1026C32.5427 84.3676 32.7581 84.5824 33.0238 84.5824H44.4253C44.6911 84.5824 44.9065 84.3676 44.9065 84.1026V70.0519C44.9065 69.7869 44.6911 69.5722 44.4253 69.5722Z" fill="#D3D9EF"/>
<path d="M45.3196 70.8764H33.9181C33.6524 70.8764 33.437 71.0912 33.437 71.3561V85.4068C33.437 85.6718 33.6524 85.8866 33.9181 85.8866H45.3196C45.5854 85.8866 45.8007 85.6718 45.8007 85.4068V71.3561C45.8007 71.0915 45.5854 70.8764 45.3196 70.8764Z" fill="#D3D9EF"/>
<path d="M46.1949 86.724H33.9686C33.9305 86.724 33.8999 86.6934 33.8999 86.6554V71.7823C33.8999 71.7443 33.9305 71.7138 33.9686 71.7138H46.1949C46.233 71.7138 46.2636 71.7443 46.2636 71.7823V86.6554C46.2636 86.6934 46.233 86.724 46.1949 86.724Z" fill="#F1F2FF"/>
<path d="M45.1283 84.3259H34.9092V85.1436H45.1283V84.3259Z" fill="#D3D9EF"/>
<path d="M41.9717 74.3443V75.527L39.3215 82.9697H37.5222L40.1557 75.5766H36.5732V74.3439H41.9717V74.3443Z" fill="#D3D9EF"/>
<path opacity="0.5" d="M33.8999 78.3815V85.6545C33.8999 86.2452 34.38 86.724 34.9724 86.724H45.1915C45.7839 86.724 46.264 86.2452 46.264 85.6545V78.3815H33.8999Z" fill="#E1E6F4"/>
<path d="M65.7166 81.3913H51.5907C51.5526 81.3913 51.522 81.3608 51.522 81.3228V64.1435C51.522 64.1055 51.5526 64.075 51.5907 64.075H65.7166C65.7547 64.075 65.7853 64.1055 65.7853 64.1435V81.3228C65.7853 81.3608 65.7544 81.3913 65.7166 81.3913Z" fill="#D3D9EF"/>
<path d="M66.2508 82.3573H52.1249C52.0868 82.3573 52.0562 82.3268 52.0562 82.2888V65.1095C52.0562 65.0715 52.0868 65.0409 52.1249 65.0409H66.2508C66.2889 65.0409 66.3195 65.0715 66.3195 65.1095V82.2888C66.3195 82.3268 66.2889 82.3573 66.2508 82.3573Z" fill="#F1F2FF"/>
<path d="M60.8711 67.9778C60.376 67.9751 59.5961 67.8292 59.1137 68.0094C58.6342 68.1882 58.4284 68.8763 58.1671 69.2671C57.2042 70.7088 55.559 70.7312 53.9697 70.8659C53.3328 70.9198 52.6945 70.9544 52.0562 70.9812V81.2923C52.0562 81.8806 52.5345 82.3576 53.1245 82.3576H65.2508C65.8408 82.3576 66.3192 81.8806 66.3192 81.2923V67.8869C64.5094 68.0491 62.688 67.9877 60.8711 67.9778Z" fill="#D3D9EF"/>
<path d="M65.0095 79.5907H53.2205V80.534H65.0095V79.5907Z" fill="#D3D9EF"/>
<path d="M56.1604 70.4638C56.1604 68.8719 57.2737 67.9622 59.3118 67.9622C61.3503 67.9622 62.4639 68.8719 62.4639 70.4638V75.6383C62.4639 77.2306 61.3506 78.1406 59.3118 78.1406C57.2737 78.1406 56.1604 77.231 56.1604 75.6383V70.4638ZM58.2359 75.7374C58.2359 76.4482 58.6514 76.7183 59.3115 76.7183C59.9722 76.7183 60.3877 76.4482 60.3877 75.7374V70.3641C60.3877 69.6533 59.9722 69.3832 59.3115 69.3832C58.651 69.3832 58.2359 69.6533 58.2359 70.3641V75.7374Z" fill="#D3D9EF"/>
<path opacity="0.5" d="M52.0562 72.7333V81.124C52.0562 81.8053 52.6101 82.3576 53.2933 82.3576H65.0823C65.7656 82.3576 66.3195 81.8053 66.3195 81.124V72.7333H52.0562Z" fill="#E1E6F4"/>
<path d="M59.3822 86.3297H44.9811C44.943 86.3297 44.9124 86.2992 44.9124 86.2612V68.748C44.9124 68.71 44.943 68.6795 44.9811 68.6795H59.3822C59.4203 68.6795 59.451 68.71 59.451 68.748V86.2612C59.451 86.2988 59.4203 86.3297 59.3822 86.3297Z" fill="#D3D9EF"/>
<path d="M59.9269 87.3143H45.5258C45.4877 87.3143 45.457 87.2838 45.457 87.2458V69.7326C45.457 69.6946 45.4877 69.6641 45.5258 69.6641H59.9269C59.965 69.6641 59.9956 69.6946 59.9956 69.7326V87.2458C59.9956 87.2834 59.965 87.3143 59.9269 87.3143Z" fill="#F1F2FF"/>
<path d="M58.6605 84.4942H46.6438V85.4557H58.6605V84.4942Z" fill="#D3D9EF"/>
<path d="M52.8528 83.0155C50.7174 83.0155 49.5442 82.0882 49.5442 80.4651V79.6684C49.5442 78.6974 49.9287 77.9438 50.8521 77.5526C49.9668 77.1902 49.5442 76.5093 49.5442 75.5094V75.1908C49.5442 73.5683 50.7174 72.641 52.8528 72.641C54.9882 72.641 56.1614 73.5683 56.1614 75.1908V75.5094C56.1614 76.5093 55.7191 77.1902 54.8535 77.5526C55.7773 77.9438 56.1614 78.6974 56.1614 79.6684V80.4651C56.1614 82.0882 54.9882 83.0155 52.8528 83.0155ZM51.6602 75.8141C51.6602 76.6253 52.1604 76.8862 52.8528 76.8862C53.5262 76.8862 54.0454 76.6253 54.0454 75.8141V75.2485C54.0454 74.3358 53.5262 74.0895 52.8528 74.0895C52.1794 74.0895 51.6602 74.3358 51.6602 75.2485V75.8141ZM52.8528 81.5661C53.5262 81.5661 54.026 81.3197 54.0454 80.4213V79.4798C54.0454 78.6828 53.6031 78.335 52.8528 78.335C52.1025 78.335 51.6602 78.6828 51.6602 79.4798V80.4213C51.6602 81.3197 52.1794 81.5661 52.8528 81.5661Z" fill="#D3D9EF"/>
<path opacity="0.5" d="M45.457 77.5044V86.0569C45.457 86.7514 46.0215 87.3143 46.718 87.3143H58.7347C59.4312 87.3143 59.9956 86.7514 59.9956 86.0569V77.5044H45.457Z" fill="#E1E6F4"/>
<path d="M70.8543 86.3704H59.7553C59.7171 86.3704 59.6865 86.3399 59.6865 86.3019V72.7974C59.6865 72.7594 59.7171 72.7289 59.7553 72.7289H70.8543C70.8924 72.7289 70.923 72.7594 70.923 72.7974V86.3019C70.923 86.3399 70.8924 86.3704 70.8543 86.3704Z" fill="#D3D9EF"/>
<path d="M71.2752 87.1315H60.1762C60.138 87.1315 60.1074 87.1009 60.1074 87.0629V73.5585C60.1074 73.5205 60.138 73.4899 60.1762 73.4899H71.2752C71.3133 73.4899 71.3439 73.5205 71.3439 73.5585V87.0629C71.3439 87.1009 71.3133 87.1315 71.2752 87.1315Z" fill="#F1F2FF"/>
<path d="M70.3122 84.9518H61.0247V85.6949H70.3122V84.9518Z" fill="#D3D9EF"/>
<path d="M62.2542 81.1772L65.2276 75.8802H67.0119V81.1772H67.7853V82.2972H67.0119V83.7192H65.4062V82.2972H62.2542V81.1772ZM65.4062 81.1772V78.2319L63.756 81.1772H65.4062Z" fill="#D3D9EF"/>
<path opacity="0.5" d="M60.1074 79.5497V86.1597C60.1074 86.6965 60.5436 87.1314 61.0819 87.1314H70.3694C70.9077 87.1314 71.3439 86.6965 71.3439 86.1597V79.5497H60.1074Z" fill="#E1E6F4"/>
<path d="M36.4519 41.044C36.4519 41.044 35.7635 42.6675 38.312 44.5797C39.8251 50.7816 44.9861 56.616 46.5053 56.8355C48.0245 57.0547 49.9799 55.8482 49.9799 55.8482V52.668C49.9799 52.668 44.3824 50.9119 43.4189 49.6239C42.4556 48.336 36.4519 41.044 36.4519 41.044Z" fill="#D3D9EF"/>
<path d="M51.3278 49.4444C51.3278 49.4444 51.7776 54.0106 47.5864 55.2785C45.7657 55.8295 39.734 48.7143 39.0546 44.6503C38.912 43.7983 39.9416 43.6687 39.9416 43.6687L46.7 50.406L47.5935 47.5678L51.3278 49.4444Z" fill="#F4CABA"/>
<path d="M37.2069 42.7088C37.4145 43.0319 37.6139 43.3107 37.7381 43.4383C37.8337 43.5367 37.9371 43.6205 38.0385 43.6908C38.126 43.7508 38.2114 43.801 38.29 43.8421C38.4934 43.95 38.6486 43.9951 38.6486 43.9951L40.0685 46.4594C40.5907 46.2809 41.1736 45.7944 41.2685 45.7058C41.2685 45.7058 39.7592 43.5588 39.8245 43.0736C39.8242 43.0695 39.8252 43.0641 39.8262 43.0604C39.8289 43.0542 39.8327 43.0475 39.8361 43.0407C39.882 42.9382 39.883 42.7645 39.8507 42.5748C39.8269 42.4357 39.7854 42.2888 39.7326 42.1555C39.6033 41.8301 40.1419 41.0365 39.9545 40.9289C39.766 40.8217 39.3284 41.198 39.2995 41.4874C39.2702 41.7761 39.011 41.7466 38.8629 41.5125L38.8163 41.4389C38.521 40.9713 37.5999 39.529 37.3417 39.6396C37.1733 39.7119 37.4948 40.3484 37.7677 40.8282C37.4128 40.2537 36.8742 39.4489 36.7411 39.6138C36.6387 39.7407 37.0817 40.6192 37.3339 41.1071C37.1304 40.7885 36.7044 40.1727 36.5931 40.2392C36.3529 40.3834 36.734 41.0596 37.0178 41.4986C36.831 41.2489 36.5897 40.9825 36.4516 41.0436C36.2838 41.1193 36.7619 42.0181 37.2069 42.7088Z" fill="#F4CABA"/>
<path opacity="0.1" d="M38.4978 43.8631C38.5478 43.8876 38.5995 43.9089 38.6564 43.9211C38.8472 43.9608 39.0521 43.9218 39.2287 43.8431C39.407 43.7637 39.5757 43.6375 39.657 43.4556C39.6914 43.3807 39.704 43.3013 39.7156 43.2202C39.4958 43.4607 39.1436 43.5391 39.1436 43.5391C38.9371 43.7189 38.7231 43.8234 38.5162 43.8472C38.5073 43.8584 38.5005 43.8635 38.4978 43.8631Z" fill="#231F20"/>
<path opacity="0.2" d="M37.2943 42.6692C37.2783 42.8188 37.6138 43.3108 37.7379 43.4383C37.8336 43.5367 37.937 43.6205 38.0384 43.6908C38.1258 43.7508 38.2112 43.801 38.2898 43.8421C38.3637 43.856 38.4395 43.8574 38.5161 43.8475C38.7226 43.8238 38.937 43.7196 39.1435 43.5394C39.1435 43.5394 39.496 43.4611 39.7155 43.2205C39.759 43.174 39.7971 43.1211 39.8261 43.0607C39.8288 43.0546 39.8325 43.0478 39.8359 43.041C39.8819 42.9386 39.8829 42.7648 39.8506 42.5752C39.8267 42.4361 39.7852 42.2892 39.7325 42.1558C39.6032 41.8304 40.1418 41.0368 39.9543 40.9293C39.7658 40.8221 39.3283 41.1983 39.2994 41.4878C39.2701 41.7765 39.0741 41.7202 38.8196 41.6096C38.5988 41.5135 38.2643 41.5987 37.8826 41.8773C37.477 42.1721 37.3558 42.5345 37.2943 42.6692Z" fill="white"/>
<path d="M37.487 42.2474C37.4843 42.2454 37.4809 42.2447 37.4789 42.2417L37.0273 41.5162L37.5149 42.2104C37.5289 42.1921 37.5421 42.1731 37.5568 42.1551C37.6245 42.0734 37.698 41.9953 37.7803 41.9254C37.78 41.9248 37.7793 41.9248 37.779 41.9244L37.3727 41.1729L37.8167 41.8956C37.8235 41.8901 37.83 41.8844 37.8371 41.879C37.945 41.803 38.0549 41.7324 38.1713 41.672C38.1934 41.6608 38.2155 41.6496 38.2376 41.6391C38.2373 41.6384 38.2359 41.6384 38.2356 41.6374L37.8293 40.8858L38.2764 41.614C38.2767 41.6143 38.2767 41.6146 38.2771 41.615C38.2781 41.6167 38.2771 41.6184 38.2778 41.6201C38.3608 41.5817 38.4459 41.5481 38.534 41.5261C38.4139 41.576 38.2995 41.6377 38.1883 41.7035C38.0777 41.77 37.9675 41.8393 37.865 41.9166C37.7623 41.9913 37.6721 42.0842 37.5854 42.1785C37.4986 42.2735 37.4166 42.373 37.3363 42.4744C37.3805 42.3953 37.4322 42.3207 37.487 42.2474Z" fill="#E8AD80"/>
<path d="M51.9242 40.0295C51.9242 40.0295 51.6051 40.7294 52.3907 42.889C53.2053 45.1273 50.6309 52.4007 50.6309 52.4007C50.6309 52.4007 46.3053 49.8482 46.6684 48.3187C47.2543 45.85 47.6973 39.9491 51.9242 40.0295Z" fill="#23548F"/>
<path opacity="0.15" d="M46.6642 48.4639C47.0191 48.7296 47.5142 48.8127 47.8963 48.5457C48.2587 48.2922 48.4597 47.823 48.5421 47.4029C48.6428 46.8882 48.4853 46.4122 48.3679 45.9138C48.2352 45.3495 48.2811 44.7901 48.4254 44.2326C48.5486 43.7562 48.7622 43.2945 49.1334 42.9599C49.5053 42.6247 50.0293 42.4364 50.5305 42.4768C50.9657 42.5117 51.3621 42.7319 51.684 43.0159C52.0252 43.3165 52.3066 43.6779 52.5482 44.0667C52.5451 46.9904 50.6309 52.401 50.6309 52.401C50.6309 52.401 46.5492 49.9921 46.6493 48.4524C46.6547 48.4558 46.6591 48.4602 46.6642 48.4639Z" fill="#202234"/>
<path d="M38.8605 86.8509C38.8605 86.8509 38.4311 85.4343 38.6281 85.3244C38.8251 85.2145 39.3001 85.149 39.4155 85.2389C39.5308 85.3288 39.5784 86.8587 39.4046 87.0673C39.2311 87.2763 38.9885 87.2244 38.8605 86.8509Z" fill="#F4CABA"/>
<path opacity="0.2" d="M39.2531 86.5109C39.1095 86.3178 38.9771 86.117 38.8482 85.9141C38.7859 85.816 38.7247 85.7173 38.6559 85.6233C38.6294 85.587 38.6029 85.5507 38.5767 85.5141C38.5807 85.9273 38.8604 86.8509 38.8604 86.8509C38.9884 87.2241 39.2306 87.2763 39.4048 87.0677C39.4361 87.03 39.4603 86.9486 39.4783 86.8407C39.4059 86.729 39.3327 86.6181 39.2531 86.5109Z" fill="white"/>
<path d="M38.8734 85.9575C38.7849 85.9453 38.6978 85.9232 38.6094 85.909C38.6322 86.557 38.8503 86.8651 38.8503 86.8651C38.984 87.2556 39.2375 87.3099 39.4192 87.0917C39.5253 86.9642 39.5526 86.365 39.5325 85.87C39.3504 85.988 39.0653 85.9843 38.8734 85.9575Z" fill="#CED9EF"/>
<path d="M36.3123 87.9098L36.1643 87.9413C36.1643 87.9413 36.119 88.1273 36.1891 88.208C36.2592 88.2884 36.8917 88.4621 38.104 88.3729C39.3164 88.2837 39.8642 88.055 39.8281 87.8409C39.7914 87.6275 36.8567 88.3889 36.3123 87.9098Z" fill="#432D29"/>
<path d="M39.8275 87.8413C38.245 88.4448 35.8142 88.1578 36.2001 87.8816C36.2851 87.8209 36.4355 87.7653 36.6186 87.7103C37.2695 87.5159 38.3355 87.3344 38.3491 87.0025C38.3665 86.5771 38.5883 86.5051 38.6404 86.518C38.6536 86.5214 38.69 86.534 38.7404 86.5482C38.8874 86.59 39.1528 86.6456 39.3093 86.5275C39.5196 86.3691 39.5509 86.3508 39.6506 86.4434C39.9439 86.7162 39.9473 86.9577 39.8275 87.8413Z" fill="#4F3F3D"/>
<path d="M54.1031 87.2519C54.1031 87.2519 53.3831 85.8622 53.5665 85.7102C53.7499 85.5582 54.231 85.3987 54.3685 85.4699C54.506 85.5415 54.851 87.1223 54.7108 87.3727C54.5703 87.6227 54.3079 87.6153 54.1031 87.2519Z" fill="#F4CABA"/>
<path opacity="0.2" d="M54.4453 86.823C54.2589 86.65 54.0826 86.4664 53.9095 86.2805C53.8254 86.1903 53.7431 86.1 53.6532 86.0152C53.6185 85.9826 53.5842 85.95 53.5498 85.9171C53.6338 86.346 54.1031 87.2519 54.1031 87.2519C54.3079 87.6153 54.5702 87.6231 54.7104 87.3727C54.7359 87.3272 54.7451 87.2383 54.7427 87.1226C54.6464 87.0202 54.5488 86.9191 54.4453 86.823Z" fill="white"/>
<path d="M53.9439 86.3205C53.8493 86.3246 53.7547 86.3188 53.6602 86.3205C53.8092 86.99 54.2127 87.7727 54.2127 87.7727C54.4271 88.1527 54.8789 88.0116 55.0256 87.7496C55.1113 87.5966 54.7285 86.613 54.6122 86.1024C54.4455 86.2608 54.1488 86.3117 53.9439 86.3205Z" fill="#CED9EF"/>
<path d="M52.9741 89.0841C52.9741 89.0841 53.0061 89.305 53.2201 89.3633C53.7513 89.5079 55.2953 88.9222 55.344 88.7597C55.3923 88.5969 55.3266 88.4164 55.3266 88.4164L52.9741 89.0841Z" fill="#432D29"/>
<path d="M53.929 87.146C53.929 87.146 54.8517 86.7148 54.9678 86.9815C55.0838 87.2482 55.423 88.3919 55.3179 88.6019C55.2127 88.812 54.1671 88.8724 54.1671 88.8724C54.1671 88.8724 53.3094 88.5775 53.7102 88.4014C54.4363 88.0825 53.5625 87.3025 53.929 87.146Z" fill="#4F3F3D"/>
<path d="M53.0419 89.2113C53.3494 89.3704 54.2661 89.2293 54.4076 88.9711C54.5488 88.7129 54.1688 87.9505 53.3814 88.3037C53.0565 88.4496 52.8261 89.0997 53.0419 89.2113Z" fill="#4F3F3D"/>
<path opacity="0.2" d="M53.542 88.3152C53.4304 88.3454 53.3453 88.3912 53.2824 88.4462C53.3171 88.4808 53.3535 88.5134 53.3916 88.5439C53.4647 88.4764 53.5692 88.4136 53.7101 88.4014C54.0347 88.3736 54.0455 88.3831 54.0455 88.3831C54.0455 88.3831 53.8046 88.244 53.542 88.3152ZM53.2058 88.586C53.1919 88.6257 53.2167 88.6684 53.2585 88.6745C53.2851 88.6783 53.3109 88.6661 53.3246 88.643C53.3358 88.624 53.3521 88.5992 53.3732 88.5721C53.3354 88.5415 53.299 88.5093 53.2643 88.475C53.2391 88.5103 53.2194 88.5473 53.2058 88.586Z" fill="white"/>
<path d="M51.1065 57.4982C50.7711 57.6342 38.4495 59.7596 36.0439 66.8925C33.6384 74.0254 38.44 85.7685 38.44 85.7685L39.652 85.643L43.9721 67.9616L61.2971 61.4733L51.1065 57.4982Z" fill="#432D29"/>
<path opacity="0.2" d="M35.6917 75.6421C35.2477 72.6373 35.1759 69.4656 36.0439 66.8924C36.985 64.1011 39.4451 62.0769 42.1106 60.6386C42.2763 60.8375 42.1851 61.1937 42.0915 61.4C41.7591 62.1315 41.0936 62.7131 40.5029 63.2376C39.5992 64.04 38.8251 65.0504 38.1613 66.0547C37.4087 67.1934 36.7894 68.4406 36.4393 69.7632C36.2743 70.3868 36.1712 71.0294 36.1494 71.6741C36.1286 72.2909 36.195 72.9084 36.1929 73.5256C36.1909 74.0878 36.0898 75.0812 35.6917 75.6421Z" fill="#F2FAFF"/>
<path opacity="0.3" d="M38.7897 85.5354C39.1582 85.0007 39.3157 84.2858 39.3967 83.6544C39.4995 82.8523 39.5022 82.0333 39.5526 81.2264C39.6073 80.3504 39.5444 79.4733 39.6393 78.599C39.7312 77.7521 39.9459 76.9242 40.1354 76.0954C40.3161 75.3045 40.492 74.4946 40.5046 73.6803C40.5161 72.9389 40.3848 72.2057 40.2552 71.4786C40.1255 70.7515 40.0007 70.0187 40.0371 69.277C40.0742 68.5302 40.3018 67.8211 40.6444 67.1598C41.277 65.939 42.245 64.9208 43.297 64.0485C44.3858 63.1457 45.5873 62.3599 46.8516 61.7257C47.5964 61.3522 48.3603 61.0186 49.133 60.7072C49.8686 60.4106 50.6223 60.1552 51.33 59.7948C52.1034 59.4016 52.8258 58.9232 53.5532 58.4523L61.297 61.4726L43.9721 67.9609L39.6519 85.6423L38.5886 85.7526C38.6618 85.6935 38.7298 85.6226 38.7897 85.5354Z" fill="#202234"/>
<path d="M51.163 69.394L54.8826 85.945L53.5155 86.2581C53.5155 86.2581 41.6574 72.3445 42.4815 68.4366C43.1181 65.4182 47.7105 59.0895 50.9054 58.8265C54.1004 58.5636 63.3998 59.5655 63.3998 59.5655C63.3998 59.5655 64.8006 64.9934 60.491 66.6441C56.1817 68.2947 51.163 69.394 51.163 69.394Z" fill="#4F3F3D"/>
<path opacity="0.2" d="M42.4818 68.4369C42.8302 66.7839 44.3661 64.1394 46.2082 62.0409C46.2466 62.0491 46.2854 62.0596 46.3252 62.0755C46.5416 62.1638 46.5202 62.4209 46.479 62.612C46.3317 63.2953 45.8965 63.9304 45.5131 64.5028C45.0404 65.2082 44.4722 65.8376 43.9823 66.5291C43.3011 67.4906 43.0438 68.5841 43.3157 69.7411C43.6039 70.9666 44.3712 72.0398 45.1102 73.036C45.4542 73.4998 45.839 73.985 45.9567 74.5638C46.0476 75.011 45.9258 75.4748 45.574 75.7364C43.6287 72.7391 42.1745 69.8931 42.4818 68.4369Z" fill="#F2FAFF"/>
<path opacity="0.3" d="M54.2516 86.0898C54.2526 86.0864 54.2543 86.0837 54.2553 86.0803C54.3792 85.7003 54.3948 85.2888 54.3431 84.8952C54.2826 84.4348 54.093 84.0198 53.9508 83.5811C53.5915 82.473 53.3465 81.3445 52.8161 80.2982C52.3319 79.3437 51.7572 78.4453 51.435 77.4172C51.0777 76.2765 50.9658 75.0778 50.6429 73.9283C50.5255 73.5106 50.3656 73.1259 50.0934 72.7842C49.8382 72.4636 49.5177 72.2068 49.1948 71.9577C48.5609 71.4681 47.4728 70.5738 48.0423 69.6658C48.3986 69.0978 49.2591 69.0096 49.8569 68.9C50.5891 68.7657 51.2911 68.5842 51.7695 67.9673C51.9848 67.6894 52.1373 67.3647 52.371 67.1015C52.6504 66.7869 53.0563 66.5861 53.4466 66.4429C54.352 66.1107 55.3326 66.0588 56.2846 65.9757C57.8249 65.8407 59.598 65.5489 60.5493 64.1771C60.8919 63.6828 60.9797 63.0558 60.6136 62.5478C60.223 62.0063 59.553 61.7128 58.93 61.5239C57.8341 61.1914 56.6793 61.0672 55.5571 60.8514C54.469 60.6424 53.2764 60.4059 52.3574 59.7501C52.0185 59.5085 51.7344 59.1838 51.5898 58.7919C55.2523 58.6884 63.3999 59.5662 63.3999 59.5662C63.3999 59.5662 64.8008 64.9941 60.4911 66.6448C56.1815 68.2951 51.1628 69.3947 51.1628 69.3947L54.8824 85.9456L54.2516 86.0898Z" fill="#202234"/>
<path d="M49.2437 41.1461C48.3853 42.4211 48.4642 57.4398 50.9059 58.8268C53.3475 60.2139 60.4894 60.6685 63.1906 61.6385C65.8919 62.6082 66.602 50.5515 61.7109 44.1176C56.8198 37.6836 50.29 39.5915 49.2437 41.1461Z" fill="#23548F"/>
<path opacity="0.15" d="M50.2157 57.5291C50.7067 57.7601 51.1888 58.0203 51.6543 58.2989C52.1068 58.5697 52.5481 58.8625 53.0275 59.085C54.0081 59.5397 55.0918 59.6035 56.1578 59.6371C57.2926 59.6727 58.4402 59.6557 59.5529 59.9143C60.0098 60.0205 60.4464 60.1942 60.906 60.2885C61.3075 60.3709 61.7223 60.4178 62.1327 60.392C62.5372 60.3665 62.9516 60.2726 63.2949 60.049C63.6059 59.8464 63.8179 59.5458 63.9768 59.216C64.2783 58.5907 64.4208 57.6861 65.0911 57.3302C65.1558 57.296 65.2191 57.2715 65.2773 57.2658C65.1231 60.1175 64.3361 62.0491 63.1905 61.6375C60.4892 60.6678 53.3474 60.2128 50.9057 58.8258C50.5478 58.6226 50.2409 58.1245 49.9802 57.4215C50.0605 57.4575 50.1395 57.4934 50.2157 57.5291Z" fill="#202234"/>
<path opacity="0.15" d="M50.0944 49.2975C50.2223 49.3942 50.3598 49.4784 50.5071 49.5466C51.0413 49.7939 51.631 49.8913 52.1611 50.1481C52.7011 50.4097 53.1495 50.7914 53.6194 51.1565C54.6255 51.9382 55.6143 52.7457 56.666 53.4667C58.1944 54.5148 59.9726 55.5086 61.8827 55.5157C62.5228 55.5181 63.3104 55.3691 63.5646 54.696C63.6939 54.3533 63.701 53.8684 63.4193 53.598C63.1498 53.3388 62.7082 53.3303 62.3577 53.3096C61.5632 53.2628 60.766 53.3466 59.9729 53.2608C59.2386 53.1814 58.4693 52.9127 58.2342 52.1411C58.0576 51.5623 58.0576 50.9244 57.9807 50.3269C57.9402 50.0131 57.8892 49.7009 57.8079 49.3949C57.7245 49.0807 57.6034 48.7788 57.5214 48.4642C57.3717 47.8902 57.3067 47.2947 57.324 46.703C57.9892 46.9829 58.6585 47.2553 59.3513 47.4606C59.9579 47.6404 60.6031 47.7999 61.2315 47.8807C61.5578 47.9227 61.864 47.8983 62.1481 47.7921C62.1842 47.8912 62.2165 47.9909 62.2574 48.089C62.5415 48.772 62.9651 49.3559 63.322 49.9982C63.7085 50.6937 64.0052 51.4361 64.2325 52.1978C64.6704 53.6645 64.2417 55.2802 63.1876 56.3812C62.6544 56.938 62.0117 57.3221 61.2587 57.5019C60.8358 57.6027 60.4037 57.6454 59.9695 57.6634C59.0552 57.565 58.158 57.3275 57.323 56.9394C55.996 56.3225 54.8099 55.4231 53.9396 54.244C53.584 53.7622 53.3343 53.2204 53.0134 52.7176C52.697 52.2219 52.2785 51.8341 51.7412 51.586C51.2213 51.3458 50.6762 51.1507 50.3567 50.6408C50.1056 50.2391 50.0651 49.7627 50.0944 49.2975Z" fill="#202234"/>
<path d="M52.2691 49.2511L52.182 49.1513C52.182 49.1513 52.3433 49.0543 52.3705 49.0896C52.3977 49.1252 52.2691 49.2511 52.2691 49.2511ZM51.9969 48.5938C51.9887 48.5633 51.8581 48.4666 51.8581 48.4666C51.8581 48.4666 52.0183 48.3509 52.1064 48.3699C52.1946 48.3889 51.9969 48.5938 51.9969 48.5938ZM51.6093 47.7891C51.5957 47.7714 51.5045 47.7029 51.5045 47.7029C51.5045 47.7029 51.6148 47.5841 51.6651 47.5933C51.7152 47.6024 51.6093 47.7891 51.6093 47.7891ZM50.8431 47.7517L50.708 47.6798C50.708 47.6798 50.7761 47.5824 50.8628 47.577C50.9492 47.5716 50.8431 47.7517 50.8431 47.7517Z" fill="#E8AD80"/>
<path d="M50.624 45.2423L48.8659 45.6061C48.6597 45.6488 48.556 45.8578 48.6322 46.0726L50.1443 50.3235C50.2154 50.5237 50.4372 50.6649 50.6407 50.6398L51.3157 50.556C51.3457 50.5522 51.3753 50.5495 51.4015 50.5383C51.4069 50.5359 51.4127 50.5342 51.4192 50.5336L51.5672 50.5152C51.5736 50.5146 51.5801 50.5146 51.5866 50.5156C51.6182 50.52 51.6475 50.5152 51.6778 50.5115L52.3746 50.425C52.5903 50.3982 52.7101 50.2078 52.6403 49.9995L51.1579 45.5674C51.0827 45.3424 50.8431 45.1969 50.624 45.2423Z" fill="#432D29"/>
<path opacity="0.15" d="M50.6655 45.3947L48.9265 45.7502C48.7907 45.7781 48.722 45.9151 48.7724 46.0566L50.2752 50.2957C50.3219 50.4277 50.4682 50.5207 50.6019 50.5037L52.3185 50.2866C52.46 50.2686 52.5383 50.1434 52.4923 50.0066L51.0153 45.6077C50.9663 45.4608 50.8091 45.3655 50.6655 45.3947Z" fill="#4F3F3D"/>
<path opacity="0.5" d="M49.1298 45.9243C49.0393 45.9501 48.9927 46.0471 49.0253 46.1411L49.2628 46.8251C49.2948 46.9178 49.3945 46.9765 49.4864 46.9558C49.5789 46.9351 49.6282 46.8414 49.5956 46.7471L49.3557 46.0502C49.3227 45.9545 49.2213 45.8982 49.1298 45.9243Z" fill="#4F3F3D"/>
<path d="M49.1168 47.9852C49.306 47.8637 50.0804 48.4958 50.0804 48.4958C50.0804 48.4958 49.0086 47.295 49.2277 47.176C49.4468 47.0569 50.4029 48.0774 50.4029 48.0774C50.4029 48.0774 49.2712 46.7254 49.4067 46.4933C49.5417 46.2616 50.7336 47.7639 50.7336 47.7639C50.7336 47.7639 49.929 46.3036 50.1379 46.173C50.3468 46.042 51.1539 47.5197 51.3866 47.7877C51.5377 47.9617 51.7544 47.9529 51.7418 47.712C51.7292 47.4711 52.0412 47.1078 52.2093 47.1722C52.3774 47.2367 52.0341 47.956 52.1814 48.2064C52.3287 48.4568 52.4291 48.7879 52.3713 48.9375C52.3502 49.325 54.1481 50.3378 54.1481 50.3378C54.0817 50.423 53.6996 51.4615 53.2937 51.6722L51.5223 49.8526C51.5223 49.8526 51.0759 49.7905 50.7051 49.5089C50.3349 49.227 48.9276 48.1063 49.1168 47.9852Z" fill="#F4CABA"/>
<g opacity="0.2">
<path d="M52.22 47.2055C52.255 47.2506 52.2264 47.3493 52.2138 47.389C52.2138 47.389 52.1308 47.4084 52.1315 47.3578C52.1322 47.3076 52.1849 47.1607 52.22 47.2055ZM50.1529 46.1927C50.2094 46.1754 50.3254 46.3209 50.3244 46.342C50.3244 46.342 50.1907 46.4129 50.1621 46.4146C50.1342 46.4163 50.0968 46.21 50.1529 46.1927ZM49.4455 46.531C49.4952 46.4991 49.6466 46.608 49.6511 46.6287C49.6511 46.6287 49.5412 46.7328 49.5143 46.7423C49.4877 46.7515 49.3962 46.5628 49.4455 46.531ZM49.2645 47.2343C49.3125 47.2004 49.4687 47.3022 49.4745 47.3225C49.4745 47.3225 49.3693 47.4318 49.3431 47.4419C49.3166 47.4525 49.2166 47.2686 49.2645 47.2343ZM49.1502 48.0164C49.1876 47.9845 49.3248 48.0571 49.3309 48.0734C49.3309 48.0734 49.2523 48.1718 49.2312 48.1826C49.2101 48.1935 49.1131 48.0486 49.1502 48.0164Z" fill="white"/>
</g>
<path d="M62.8425 46.2063L59.0794 48.2817L59.6459 52.132L52.3706 49.0902L51.5227 49.8526C51.5227 49.8526 59.326 59.4203 62.9793 56.6255C66.6323 53.8301 62.8425 46.2063 62.8425 46.2063Z" fill="#F4CABA"/>
<path d="M58.4935 41.3792C58.4935 41.3792 59.1757 41.2516 60.9065 42.7679C62.7004 44.3395 63.9474 47.2048 63.9474 47.2048C63.9474 47.2048 60.012 50.2038 58.5911 49.5232C57.1702 48.8429 54.7487 43.3365 58.4935 41.3792Z" fill="#23548F"/>
<g opacity="0.15">
<path opacity="0.5" d="M62.3066 45.6736C61.964 45.2586 61.722 44.7707 61.4556 44.3069C60.9936 43.5018 60.4652 42.6043 59.6577 42.0991C59.277 41.861 58.819 41.7571 58.3879 41.919C57.8187 42.1324 57.5193 42.7027 57.1222 43.1228C56.997 43.2551 56.8605 43.3525 56.7173 43.422C56.9895 42.6037 57.5414 41.8766 58.4931 41.3792C58.4931 41.3792 59.1753 41.2516 60.9061 42.7679C62.032 43.7542 62.9422 45.2498 63.4641 46.227C63.0344 46.438 62.5489 45.9671 62.3066 45.6736Z" fill="#F2FAFF"/>
<path d="M56.6962 46.0034C57.0225 46.268 57.3583 46.3966 57.7605 46.5008C58.2317 46.6229 58.5954 46.7868 58.803 47.2506C58.9599 47.6011 59.0619 47.9845 59.3266 48.2756C59.5226 48.491 59.787 48.5837 60.0704 48.6159C60.5165 48.6668 60.983 48.6454 61.4304 48.6264C61.5679 48.6206 61.7047 48.6108 61.8408 48.5969C60.6703 49.2711 59.3093 49.8679 58.591 49.5235C57.8792 49.1825 56.9163 47.6296 56.6033 45.9189C56.6346 45.9464 56.6635 45.9769 56.6962 46.0034Z" fill="#202234"/>
</g>
<path d="M52 38.4341L52.2297 41.1376C52.2297 41.1376 54.1368 41.4036 54.7053 40.1184L53.8295 38.0185L52 38.4341Z" fill="#F4CABA"/>
<path opacity="0.1" d="M53.9257 38.3361C53.9148 39.1144 52.206 39.6953 52.4568 40.3481C52.5837 40.6789 52.9645 40.8268 53.3023 40.8767C53.5262 40.9099 53.7559 40.9045 53.9825 40.8736C53.2169 41.2753 52.2292 41.1376 52.2292 41.1376L51.9995 38.4341L53.9257 38.3361Z" fill="#513F3C"/>
<path d="M54.7618 33.8256C54.7618 33.8256 56.1204 34.9754 55.7305 36.7753C55.3406 38.5753 53.7754 38.9088 52.036 38.9248C50.2967 38.9407 49.7873 37.4173 49.7128 36.6698C49.6383 35.9224 48.8322 35.9882 49.1936 35.0297C49.5553 34.0712 49.9394 33.2003 51.5985 33.1344C53.2575 33.0686 54.7618 33.8256 54.7618 33.8256Z" fill="#432D29"/>
<path d="M49.9385 35.0626C49.9385 35.0626 49.5411 34.6398 49.2407 34.8512C48.9402 35.0626 49.3067 36.587 49.8392 36.2522C50.3713 35.9173 49.9385 35.0626 49.9385 35.0626Z" fill="#F4CABA"/>
<path d="M55.0356 34.1754C55.0356 34.1754 55.8288 38.3286 52.3507 38.8545C48.873 39.3804 49.9475 33.7302 49.9475 33.7302C49.9475 33.7302 53.6808 33.3818 55.0356 34.1754Z" fill="#F4CABA"/>
<path d="M55.1394 34.8434C55.1394 34.8434 52.0764 35.0314 51.1697 33.9514C51.1697 33.9514 50.9536 34.9985 49.8488 34.741C48.744 34.4831 49.1588 33.093 49.9767 33.1175C49.9767 33.1175 50.7498 30.621 52.5626 31.741C54.3755 32.861 55.3377 31.974 55.3915 33.5884C55.417 34.3365 56.2918 34.9449 55.1394 34.8434Z" fill="#432D29"/>
<path opacity="0.18" d="M49.736 35.2703C49.7193 35.2703 49.7033 35.2608 49.6962 35.2445C49.6951 35.2424 49.6057 35.0453 49.4679 35.0137C49.408 35.0002 49.3474 35.0199 49.2831 35.0735C49.2644 35.0891 49.2372 35.0864 49.2215 35.068C49.2059 35.0497 49.2082 35.0222 49.227 35.0066C49.3127 34.9347 49.4005 34.9082 49.4876 34.9286C49.6676 34.9703 49.7714 35.199 49.7758 35.2088C49.7857 35.2309 49.7758 35.2563 49.7537 35.2662C49.7479 35.2692 49.7418 35.2703 49.736 35.2703Z" fill="#432D29"/>
<path d="M54.6092 34.4953C54.6092 34.4953 55.3027 35.767 54.4374 36.6742C53.5721 37.5812 52.7113 36.2725 51.8916 36.3343C51.072 36.396 50.5657 37.365 50.2135 36.753C49.8614 36.1409 49.7909 35.5878 49.9481 34.4444C49.4377 34.3854 49.5786 36.0276 49.5786 36.0276C49.5786 36.0276 49.9679 37.1669 49.7361 37.9283C49.5044 38.6896 50.7777 40.9557 52.1747 40.1146C53.5718 39.2735 54.2724 39.9749 54.8671 38.5193C55.4619 37.0637 56.1921 34.2476 54.6092 34.4953Z" fill="#432D29"/>
<path d="M54.6927 34.8709C54.6927 34.8709 55.1251 34.4108 55.4521 34.6409C55.7791 34.8709 55.3803 36.5297 54.8009 36.1653C54.2214 35.8009 54.6927 34.8709 54.6927 34.8709Z" fill="#F4CABA"/>
<path opacity="0.18" d="M54.8518 35.0965C54.8699 35.0965 54.8872 35.086 54.8954 35.0684C54.8964 35.0663 54.9941 34.8519 55.1438 34.8173C55.2088 34.8027 55.2748 34.8237 55.3449 34.8824C55.3649 34.8994 55.3949 34.8967 55.4119 34.8767C55.4289 34.8567 55.4262 34.8268 55.4061 34.8102C55.3125 34.7321 55.2173 34.7033 55.1223 34.7254C54.9264 34.7705 54.8137 35.0195 54.809 35.03C54.7984 35.0538 54.8093 35.082 54.8331 35.0925C54.8389 35.0955 54.8454 35.0965 54.8518 35.0965Z" fill="#432D29"/>
<path d="M55.1506 34.9632C55.1506 34.9632 55.4252 35.6326 54.8658 35.9217C54.8658 35.9217 55.6997 35.6021 55.1506 34.9632ZM53.645 35.1182C53.645 35.1182 52.792 35.1898 52.6953 35.1182C52.5987 35.0467 52.8403 34.8353 53.2265 34.879C53.6126 34.9232 53.7413 35.1023 53.645 35.1182ZM52.9247 35.5888C52.9247 35.7266 53.0196 35.8379 53.1363 35.8379C53.253 35.8379 53.3479 35.7266 53.3479 35.5888C53.3479 35.4511 53.253 35.3391 53.1363 35.3391C53.1036 35.3391 53.0727 35.3476 53.0451 35.3642C53.0866 35.3764 53.1172 35.4209 53.1172 35.4738C53.1172 35.5359 53.074 35.5871 53.0209 35.5871C52.9822 35.5871 52.9481 35.5593 52.9335 35.52C52.9277 35.5424 52.9247 35.5651 52.9247 35.5888ZM51.3962 35.1182C51.3962 35.1182 50.5432 35.1898 50.4466 35.1182C50.35 35.0467 50.5915 34.8353 50.9777 34.879C51.3639 34.9232 51.4925 35.1023 51.3962 35.1182ZM50.6759 35.5888C50.6759 35.7266 50.7709 35.8379 50.8876 35.8379C51.0043 35.8379 51.0992 35.7266 51.0992 35.5888C51.0992 35.4511 51.0043 35.3391 50.8876 35.3391C50.8549 35.3391 50.8239 35.3476 50.7964 35.3642C50.8379 35.3764 50.8685 35.4209 50.8685 35.4738C50.8685 35.5359 50.8253 35.5871 50.7722 35.5871C50.7334 35.5871 50.6994 35.5593 50.6848 35.52C50.679 35.5424 50.6759 35.5651 50.6759 35.5888ZM51.6991 36.6753C51.7212 36.6753 51.743 36.6641 51.7549 36.6434C51.7729 36.6128 51.7627 36.5731 51.7321 36.5551C51.5875 36.4703 51.5633 36.4198 51.5613 36.397C51.5575 36.3502 51.6388 36.2837 51.7253 36.2135C51.7777 36.1707 51.8369 36.1222 51.8927 36.0662C52.157 35.8012 52.0866 35.0887 52.0836 35.0585C52.0798 35.0232 52.0482 34.9971 52.0128 35.0012C51.9774 35.0049 51.9515 35.0365 51.9553 35.0718C51.9747 35.2608 51.9852 35.7914 51.8015 35.9753C51.7504 36.0265 51.696 36.071 51.6436 36.1137C51.5259 36.2101 51.4238 36.2932 51.4327 36.4069C51.4395 36.4951 51.5116 36.5752 51.6667 36.6661C51.6766 36.6725 51.6878 36.6753 51.6991 36.6753Z" fill="#432D29"/>
<path d="M50.9672 37.8865C50.9509 37.8892 50.9352 37.8964 50.9223 37.9082C50.8859 37.9412 50.8832 37.9968 50.9159 38.0331C50.9247 38.0426 51.1336 38.2693 51.4837 38.2743C51.7821 38.2791 52.085 38.124 52.3837 37.8139C52.4177 37.7786 52.4167 37.7227 52.3813 37.6887C52.3459 37.6548 52.2898 37.6558 52.2558 37.6911C51.9924 37.9642 51.7331 38.101 51.4864 38.0969C51.2125 38.0928 51.0492 37.9157 51.0475 37.9137C51.0268 37.8913 50.9961 37.8818 50.9672 37.8865Z" fill="white"/>
<path d="M72.8333 37.9744C72.7095 39.4449 72.5904 40.8485 72.4761 42.1884C72.438 42.6397 72.3998 43.0838 72.3641 43.5211C72.357 43.609 72.2712 43.6874 72.1736 43.6945C69.1603 43.9391 66.1494 43.9391 63.1358 43.6945C63.0382 43.6874 62.9524 43.609 62.9453 43.5211C62.7976 41.787 62.6428 39.9413 62.4761 37.9748C62.4713 37.9177 62.4904 37.8655 62.5261 37.8251C62.5594 37.7919 62.6023 37.7681 62.6523 37.7634C64.6033 37.5852 66.5686 37.514 68.5312 37.5449C69.9082 37.5662 71.2872 37.6375 72.6571 37.7634C72.7047 37.7681 72.7476 37.7895 72.7762 37.8204C72.7833 37.8275 72.7905 37.8346 72.7952 37.8418C72.7952 37.8441 72.7976 37.8441 72.7976 37.8441C72.8238 37.8794 72.8381 37.9269 72.8333 37.9744Z" fill="#F1F2FF"/>
<path opacity="0.25" d="M72.7958 37.8424C72.7958 37.8424 71.1459 39.7954 68.8316 40.4346C67.6448 39.89 66.7149 40.3084 66.3508 40.5293H66.3467C65.1123 40.2571 63.8067 39.4639 62.5247 37.8268C62.5563 37.7912 62.5999 37.7678 62.6512 37.7637C65.9707 37.46 69.3375 37.46 72.657 37.7637C72.7046 37.7678 72.7479 37.7874 72.7758 37.819C72.7877 37.8305 72.7917 37.8387 72.7958 37.8424Z" fill="#D3D9EF"/>
<path d="M72.7996 37.8387C72.7638 37.7953 72.7125 37.7637 72.657 37.7637C72.7125 37.7678 72.756 37.7993 72.7914 37.8387V37.8428C72.099 38.5726 71.3079 39.1999 70.4335 39.6929C69.9153 39.9928 69.4008 40.2096 68.9023 40.3518C68.5185 40.1703 68.115 40.0559 67.6917 40.0441C67.2327 40.0559 66.77 40.1978 66.3229 40.4387C64.9142 40.115 63.6366 39.188 62.5325 37.8268C62.5444 37.8071 62.56 37.7953 62.5801 37.7834C62.5645 37.7912 62.5444 37.8031 62.5287 37.8227L62.5247 37.8268C62.9796 38.4226 63.4862 39.0065 64.0833 39.468C64.7281 39.9966 65.4205 40.3518 66.1408 40.5371C64.9894 41.2038 63.9333 42.4388 63.2052 43.5001C64.0201 42.4744 65.1875 41.2 66.4018 40.5964C66.477 40.5571 66.5481 40.5255 66.6233 40.494C66.9792 40.3399 67.3355 40.2493 67.6917 40.2415C68.0003 40.2456 68.3048 40.3125 68.6015 40.4271C68.6689 40.4509 68.7359 40.4784 68.8033 40.5099C69.278 40.723 69.7251 41.0348 70.1405 41.37C70.8802 41.9814 71.5607 42.7075 72.1779 43.5004C71.6043 42.6522 70.9476 41.8868 70.2116 41.2438C69.8516 40.9361 69.4678 40.648 69.0643 40.4349C69.5509 40.285 70.0296 40.0682 70.4927 39.7879C71.363 39.2712 72.1466 38.6123 72.7992 37.8468L72.8033 37.8428L72.7996 37.8387Z" fill="#D3D9EF"/>
<path opacity="0.2" d="M72.8334 37.9744C72.7096 39.4449 72.5905 40.8485 72.4761 42.1884C72.288 42.2193 72.0951 42.2359 71.8997 42.2359C69.9345 42.2359 68.3411 40.6466 68.3411 38.6872C68.3411 38.2859 68.4077 37.9035 68.5316 37.5449C69.9086 37.5662 71.2876 37.6375 72.6575 37.7634C72.7051 37.7681 72.748 37.7895 72.7766 37.8204C72.7837 37.8275 72.7909 37.8346 72.7956 37.8417C72.7956 37.8441 72.798 37.8441 72.798 37.8441C72.8239 37.8794 72.8382 37.9269 72.8334 37.9744Z" fill="#4F3F3D"/>
<path d="M73.9209 40.7033C75.0374 39.5899 75.0374 37.7847 73.9208 36.6713C72.8042 35.5579 70.9939 35.5579 69.8774 36.6713C68.7608 37.7848 68.7609 39.59 69.8775 40.7033C70.994 41.8167 72.8043 41.8167 73.9209 40.7033Z" fill="#D3D9EF"/>
<path d="M73.6852 40.4684C74.6717 39.4847 74.6716 37.8898 73.6851 36.9061C72.6986 35.9225 71.0993 35.9225 70.1128 36.9062C69.1263 37.8899 69.1264 39.4848 70.1129 40.4685C71.0994 41.4521 72.6987 41.4521 73.6852 40.4684Z" fill="white"/>
<path d="M73.4196 39.7689C73.4196 39.8432 72.9538 39.9067 72.3223 39.9253C72.3036 40.1255 72.1365 40.2826 71.9314 40.2826C71.7262 40.2826 71.5591 40.1255 71.5404 39.9253C70.9086 39.9067 70.4431 39.8435 70.4431 39.7689C70.4431 39.7625 70.4469 39.756 70.4533 39.7492C70.7565 39.47 70.8871 39.0486 70.9562 38.6428L71.0056 38.3507C71.0056 37.9507 71.2567 37.609 71.6112 37.475C71.653 37.459 71.683 37.42 71.683 37.3756V37.3382C71.683 37.2025 71.7939 37.0916 71.9304 37.0916C72.0675 37.0916 72.1794 37.2032 72.1794 37.3399V37.3752C72.1794 37.42 72.2094 37.459 72.2512 37.4746C72.2567 37.4763 72.2624 37.4784 72.2672 37.4811C72.0627 37.6124 71.9276 37.8411 71.9276 38.1016C71.9276 38.5091 72.259 38.8396 72.6677 38.8396C72.7619 38.8396 72.8514 38.8219 72.9344 38.7904C73.009 39.1487 73.1427 39.5039 73.4094 39.7489C73.4162 39.7557 73.4196 39.7621 73.4196 39.7689Z" fill="#D3D9EF"/>
<path d="M72.6677 37.4706C72.3179 37.4706 72.0342 37.7535 72.0342 38.1023C72.0342 38.4511 72.3179 38.7341 72.6677 38.7341C73.0175 38.7341 73.3013 38.4511 73.3013 38.1023C73.3013 37.7535 73.0175 37.4706 72.6677 37.4706ZM72.913 38.4297L72.6677 38.3005L72.4214 38.4297L72.469 38.1569L72.2703 37.9635L72.5446 37.9235L72.6677 37.6751L72.7899 37.9235L73.0651 37.9635L72.8664 38.1569L72.913 38.4297Z" fill="#D3D9EF"/>
<path d="M80.7623 32.3055C80.1641 31.1774 79.0515 30.3787 77.8317 30.037C77.5234 29.9509 77.2087 29.8939 76.8899 29.863C76.7932 29.8535 76.7779 30.0031 76.8745 30.0123C78.0988 30.1314 79.2883 30.6786 80.1022 31.6117C80.9082 32.5359 81.2675 33.8194 81.0253 35.0246C80.8766 35.7639 80.4686 36.451 79.866 36.871C79.8364 36.7085 79.7946 36.5473 79.7374 36.3892C79.5789 35.9482 79.2944 35.5356 78.8854 35.2923C78.4383 35.0263 77.7925 34.9388 77.3703 35.2977C76.5721 35.9767 77.4179 37.2303 78.2464 37.404C78.7612 37.5119 79.292 37.3861 79.7524 37.1231C79.8483 38.0219 79.5499 38.9583 79.0675 39.7085C77.9491 41.446 75.915 42.3333 73.961 42.7526C73.8664 42.773 73.8909 42.9209 73.9858 42.9005C75.9263 42.4842 77.9303 41.619 79.0943 39.9389C79.669 39.109 80.0219 38.0504 79.8919 37.0383C80.2794 36.7855 80.6061 36.4361 80.8136 36.0533C81.4373 34.9028 81.3679 33.4479 80.7623 32.3055ZM78.8089 37.2761C78.292 37.3372 77.8606 37.1713 77.5336 36.7669C77.209 36.3651 77.0205 35.7503 77.503 35.3836C77.9072 35.0762 78.5169 35.2105 78.9035 35.483C79.2488 35.7263 79.4809 36.0991 79.6149 36.4941C79.6666 36.6467 79.7034 36.8025 79.7289 36.9596C79.4564 37.1235 79.1488 37.2361 78.8089 37.2761Z" fill="#D3D9EF"/>
<defs>
<radialGradient id="paint0_radial_138_480" cx="0" cy="0" r="1" gradientUnits="userSpaceOnUse" gradientTransform="translate(-3.69677 18.4426) scale(112.219 111.902)">
<stop stop-color="#23548F"/>
<stop offset="0.01" stop-color="#EFF1FF"/>
<stop offset="0.24" stop-color="#23548F"/>
<stop offset="0.461" stop-color="#9EBBFA"/>
<stop offset="0.667" stop-color="#23548F"/>
<stop offset="0.852" stop-color="#74A1F7"/>
<stop offset="1" stop-color="#23548F"/>
</radialGradient>
</defs>
</svg>
