<svg width="78" height="50" viewBox="0 0 78 50" fill="none" xmlns="http://www.w3.org/2000/svg">
<rect y="0.5" width="78" height="49" rx="8" fill="#D0DEEB"/>
<path d="M13.7942 20.1757C13.5465 22.3041 12.0601 22.3041 10.6976 22.3041H9.95446L10.5738 18.1892C10.5738 17.9054 10.8215 17.7635 11.0692 17.7635H11.4408C12.4317 17.7635 13.2987 17.7635 13.7942 18.3311C13.7942 18.8986 13.7942 19.4662 13.7942 20.1757ZM13.1749 14.5H7.84882C7.47724 14.5 7.22952 14.7838 7.10566 15.2095L5 30.8176C5 31.1013 5.12387 31.3851 5.49546 31.3851H7.97269C8.34427 31.3851 8.59199 31.1014 8.71585 30.6757L9.33516 26.4189C9.33516 25.9932 9.70675 25.7095 10.0783 25.7095H11.8124C15.2805 25.7095 17.2623 23.723 17.8816 19.8919C18.1293 18.1892 17.8816 16.9122 17.2623 15.9189C16.2714 15.0676 14.9089 14.5 13.1749 14.5Z" fill="#263577"/>
<path d="M25.4371 25.8515C25.1894 27.5543 24.0747 28.6894 22.5883 28.6894C21.8452 28.6894 21.2259 28.4056 20.8543 27.838C20.4827 27.2705 20.3588 26.561 20.4827 25.8515C20.7304 24.1488 21.8452 23.0137 23.3315 23.0137C24.0747 23.0137 24.694 23.2975 25.0656 23.8651C25.3133 24.2907 25.561 25.0002 25.4371 25.8515ZM28.9053 20.1759H26.428C26.1803 20.1759 26.0564 20.3178 25.9326 20.6015L25.8087 21.4529L25.6849 21.1691C25.1894 20.3178 23.9508 19.8921 22.7122 19.8921C19.8634 19.8921 17.51 22.3043 17.0145 25.7097C16.7668 27.4124 17.1384 28.9732 18.0054 30.1083C18.7486 31.1015 19.8634 31.5272 21.2258 31.5272C23.4553 31.5272 24.6939 29.8245 24.6939 29.8245L24.5701 30.6759C24.5701 30.9597 24.694 31.2434 25.0656 31.2434H27.295C27.6666 31.2434 27.9144 30.9597 28.0382 30.534L29.4007 20.6015C29.4007 20.4597 29.2769 20.1759 28.9053 20.1759Z" fill="#263577"/>
<path d="M42.4062 20.1758H39.8051C39.5574 20.1758 39.3097 20.3177 39.1858 20.6015L35.7177 26.5609L34.2314 20.8852C34.1075 20.4596 33.8598 20.3177 33.4882 20.3177H31.011C30.7632 20.3177 30.5155 20.6015 30.6394 21.0271L33.4882 30.392L30.8871 34.6487C30.6394 34.9325 30.8871 35.5001 31.2587 35.5001H33.8598C34.1075 35.5001 34.3552 35.3582 34.4791 35.0744L42.9017 21.0271C43.0255 20.6015 42.7778 20.1758 42.4062 20.1758Z" fill="#263577"/>
<path d="M51.448 20.1757C51.2003 22.3041 49.7139 22.3041 48.3514 22.3041H47.6083L48.2276 18.1892C48.2276 17.9054 48.4753 17.7635 48.7231 17.7635H49.0946C50.0855 17.7635 50.9525 17.7635 51.448 18.3311C51.5718 18.8986 51.5718 19.4662 51.448 20.1757ZM50.8287 14.5H45.5026C45.1311 14.5 44.8833 14.7838 44.7595 15.2095L42.6538 30.8176C42.6538 31.1013 42.7777 31.3851 43.1493 31.3851H45.8742C46.1219 31.3851 46.3697 31.2432 46.3697 30.8176L46.989 26.4189C46.989 25.9932 47.3606 25.7095 47.7321 25.7095H49.4662C52.9343 25.7095 54.9161 23.723 55.5354 19.8919C55.7832 18.1892 55.5354 16.9122 54.9161 15.9189C54.0491 15.0676 52.6866 14.5 50.8287 14.5Z" fill="#2199D6"/>
<path d="M63.215 25.8515C62.9672 27.5543 61.8525 28.6894 60.3662 28.6894C59.623 28.6894 59.0037 28.4056 58.6321 27.838C58.2605 27.2705 58.1366 26.561 58.2605 25.8515C58.5082 24.1488 59.623 23.0137 61.1093 23.0137C61.8525 23.0137 62.4718 23.2975 62.8434 23.8651C63.0911 24.2907 63.3388 25.0002 63.215 25.8515ZM66.6831 20.1759H64.2059C63.9581 20.1759 63.8343 20.3178 63.7104 20.6015L63.5866 21.4529L63.4627 21.1691C62.9672 20.3178 61.7286 19.8921 60.49 19.8921C57.6412 19.8921 55.2878 22.3043 54.7924 25.7097C54.5447 27.4124 54.9162 28.9732 55.7833 30.1083C56.5264 31.1015 57.6412 31.5272 59.0037 31.5272C61.2332 31.5272 62.4718 29.8245 62.4718 29.8245L62.3479 30.6759C62.3479 30.9597 62.4718 31.2434 62.8434 31.2434H65.0729C65.4445 31.2434 65.6922 30.9597 65.8161 30.534L67.1785 20.6015C67.1785 20.4597 66.9308 20.1759 66.6831 20.1759Z" fill="#2199D6"/>
<path d="M69.6556 14.9257L67.4261 30.8176C67.4261 31.1013 67.55 31.3851 67.9216 31.3851H70.1511C70.5227 31.3851 70.7704 31.1014 70.8943 30.6757L72.9999 15.0676C72.9999 14.7838 72.876 14.5 72.5044 14.5H70.0272C69.9034 14.5 69.7795 14.7838 69.6556 14.9257Z" fill="#2199D6"/>
</svg>
