<svg width="14" height="12" viewBox="0 0 14 12" fill="none" xmlns="http://www.w3.org/2000/svg">
<path fill-rule="evenodd" clip-rule="evenodd" d="M5.5032 5.538C5.2407 5.538 5.03314 5.742 5.03314 6C5.03314 6.252 5.2407 6.462 5.5032 6.462H9.16599V9.33C9.16599 10.8 7.95117 12 6.44942 12H3.47646C1.98082 12 0.765991 10.806 0.765991 9.336V2.67C0.765991 1.194 1.98692 0 3.48256 0H6.46163C7.95117 0 9.16599 1.194 9.16599 2.664V5.538H5.5032ZM11.344 3.92397L13.096 5.66997C13.186 5.75997 13.234 5.87397 13.234 5.99997C13.234 6.11997 13.186 6.23997 13.096 6.32397L11.344 8.06997C11.254 8.15997 11.134 8.20797 11.02 8.20797C10.9 8.20797 10.78 8.15997 10.69 8.06997C10.51 7.88997 10.51 7.59597 10.69 7.41597L11.65 6.46197H9.16601V5.53797H11.65L10.69 4.58397C10.51 4.40397 10.51 4.10997 10.69 3.92997C10.87 3.74397 11.164 3.74397 11.344 3.92397Z" fill="#93000F"/>
</svg>
